<?xml version="1.0" encoding="utf-8"?>
<!-- Generator: Adobe Illustrator 16.0.0, SVG Export Plug-In . SVG Version: 6.00 Build 0)  -->
<!DOCTYPE svg PUBLIC "-//W3C//DTD SVG 1.1//EN" "http://www.w3.org/Graphics/SVG/1.1/DTD/svg11.dtd">
<svg version="1.1" id="Capa_1" xmlns="http://www.w3.org/2000/svg" xmlns:xlink="http://www.w3.org/1999/xlink" x="0px" y="0px"
	 width="50px" height="50px" viewBox="0 0 50 50" enable-background="new 0 0 50 50" xml:space="preserve">
<g>
	<g>
		<path fill="#32BA46" d="M25.074,2.376c-12.363,0-22.386,10.023-22.386,22.386c0,5.196,1.786,9.965,4.755,13.763l-1.495,7.707
			l7.271-2.506c3.44,2.157,7.496,3.422,11.855,3.422c12.364,0,22.388-10.022,22.388-22.386C47.462,12.399,37.438,2.376,25.074,2.376
			z"/>
		<path fill="#FFFFFF" d="M25.074,48.948c-4.233,0-8.385-1.12-12.063-3.246l-9.422,3.246l1.936-9.979
			c-3.036-4.16-4.636-9.054-4.636-14.207c0-13.336,10.849-24.186,24.186-24.186s24.187,10.85,24.187,24.186
			C49.261,38.099,38.411,48.948,25.074,48.948z M13.447,41.745l0.728,0.457c3.285,2.06,7.055,3.148,10.899,3.148
			c11.354,0,20.589-9.236,20.589-20.588S36.428,4.175,25.074,4.175c-11.351,0-20.586,9.235-20.586,20.587
			c0,4.619,1.512,8.996,4.372,12.655l0.506,0.646l-1.059,5.453L13.447,41.745z"/>
	</g>
	<path fill="#FFFFFF" d="M12.865,15.47c0,0,1.418-2.48,2.576-2.622c1.157-0.143,2.646-0.143,3.048,0.614
		c0.401,0.756,2.196,5.151,2.196,5.151s0.307,0.756-0.166,1.488c-0.472,0.732-1.535,1.796-1.535,1.796s-0.59,0.757,0,1.559
		c0.591,0.804,1.507,2.28,3.404,4.173c1.892,1.896,5.527,3.245,5.527,3.245s0.521,0.07,0.851-0.259
		c0.331-0.331,2.128-2.576,2.128-2.576s0.576-0.744,1.534-0.306c0.956,0.437,5.104,2.503,5.104,2.503s0.484,0.177,0.484,0.91
		c0,0.732-0.297,2.523-0.902,3.129c-0.605,0.608-2.378,2.475-5.041,2.475c-2.661,0-9.001-2.166-12.379-5.544
		c-3.378-3.38-6.378-6.806-7.086-9.923C11.897,18.164,11.992,16.754,12.865,15.47z"/>
</g>
</svg>
