<?xml version="1.0" encoding="utf-8"?>
<!-- Generator: Adobe Illustrator 16.0.0, SVG Export Plug-In . SVG Version: 6.00 Build 0)  -->
<!DOCTYPE svg PUBLIC "-//W3C//DTD SVG 1.1//EN" "http://www.w3.org/Graphics/SVG/1.1/DTD/svg11.dtd">
<svg version="1.1" id="Capa_1" xmlns="http://www.w3.org/2000/svg" xmlns:xlink="http://www.w3.org/1999/xlink" x="0px" y="0px"
	 width="936.563px" height="1160.018px" viewBox="0 0 936.563 1160.018" enable-background="new 0 0 936.563 1160.018"
	 xml:space="preserve">
<g>
	<g>
		<rect x="263.745" y="37.563" fill="#70AF9D" width="392.922" height="109.842"/>
		<g>
			<path fill="#FFFFFF" d="M367.042,101.819h-11.63l-2.415,7.737h-7.516l12.099-35.876h7.367l12.049,35.876h-7.515L367.042,101.819z
				 M357.186,96.176h8.106l-3.967-12.64h-0.147L357.186,96.176z"/>
			<path fill="#FFFFFF" d="M409.448,109.556h-7.195l-14.464-24.197l-0.147,0.025v24.172h-7.195V73.679h7.195l14.464,24.172
				l0.147-0.025V73.679h7.195V109.556z"/>
			<path fill="#FFFFFF" d="M435.198,101.819h-11.63l-2.415,7.737h-7.516l12.099-35.876h7.367l12.049,35.876h-7.515L435.198,101.819z
				 M425.341,96.176h8.106l-3.967-12.64h-0.147L425.341,96.176z"/>
			<path fill="#FFFFFF" d="M455.796,104.036h16.065v5.52h-23.261V73.679h7.195V104.036z"/>
			<path fill="#FFFFFF" d="M482.432,90.213h0.147l7.836-16.534h7.885L486.005,96.94v12.616h-7.195V96.571l-12.099-22.891h7.885
				L482.432,90.213z"/>
			<path fill="#FFFFFF" d="M520.182,100.193c0-1.38-0.48-2.489-1.441-3.327c-0.961-0.837-2.649-1.626-5.063-2.365
				c-4.14-1.248-7.281-2.719-9.425-4.411c-2.145-1.692-3.216-4-3.216-6.924c0-2.94,1.207-5.343,3.622-7.208
				c2.415-1.864,5.495-2.796,9.24-2.796c3.975,0,7.174,1.002,9.598,3.006c2.422,2.004,3.593,4.632,3.511,7.885l-0.049,0.147h-6.974
				c0-1.79-0.542-3.166-1.626-4.127s-2.604-1.441-4.559-1.441c-1.774,0-3.146,0.427-4.115,1.281
				c-0.97,0.854-1.453,1.946-1.453,3.277c0,1.216,0.525,2.214,1.576,2.994c1.052,0.78,2.866,1.605,5.446,2.476
				c3.942,1.117,6.948,2.575,9.018,4.374c2.07,1.799,3.104,4.168,3.104,7.109c0,3.072-1.199,5.495-3.597,7.269
				c-2.398,1.774-5.569,2.661-9.512,2.661c-3.86,0-7.174-0.961-9.942-2.883c-2.768-1.922-4.11-4.789-4.028-8.6l0.049-0.148h6.974
				c0,2.119,0.624,3.68,1.873,4.682c1.248,1.002,2.939,1.503,5.075,1.503c1.922,0,3.389-0.402,4.398-1.207
				C519.677,102.616,520.182,101.54,520.182,100.193z"/>
			<path fill="#FFFFFF" d="M540.362,109.556h-7.194V73.679h7.194V109.556z"/>
			<path fill="#FFFFFF" d="M566.185,100.193c0-1.38-0.48-2.489-1.441-3.327c-0.961-0.837-2.649-1.626-5.063-2.365
				c-4.14-1.248-7.281-2.719-9.425-4.411c-2.145-1.692-3.216-4-3.216-6.924c0-2.94,1.207-5.343,3.622-7.208
				c2.415-1.864,5.495-2.796,9.24-2.796c3.975,0,7.174,1.002,9.598,3.006c2.422,2.004,3.593,4.632,3.511,7.885l-0.049,0.147h-6.974
				c0-1.79-0.542-3.166-1.626-4.127s-2.604-1.441-4.559-1.441c-1.774,0-3.146,0.427-4.115,1.281
				c-0.97,0.854-1.453,1.946-1.453,3.277c0,1.216,0.525,2.214,1.576,2.994c1.052,0.78,2.866,1.605,5.446,2.476
				c3.942,1.117,6.948,2.575,9.018,4.374c2.07,1.799,3.104,4.168,3.104,7.109c0,3.072-1.199,5.495-3.597,7.269
				c-2.398,1.774-5.569,2.661-9.512,2.661c-3.86,0-7.174-0.961-9.942-2.883c-2.768-1.922-4.11-4.789-4.028-8.6l0.049-0.148h6.974
				c0,2.119,0.624,3.68,1.873,4.682c1.248,1.002,2.939,1.503,5.075,1.503c1.922,0,3.389-0.402,4.398-1.207
				C565.68,102.616,566.185,101.54,566.185,100.193z"/>
		</g>
	</g>
	<g>
		<rect x="95.836" y="201.126" fill="#E6BD53" width="728.74" height="109.842"/>
		<g>
			<path fill="#FFFFFF" d="M240.145,265.898c0-1.38-0.48-2.489-1.441-3.327c-0.961-0.837-2.649-1.626-5.063-2.365
				c-4.14-1.248-7.281-2.719-9.425-4.411c-2.145-1.692-3.216-4-3.216-6.924c0-2.94,1.207-5.343,3.622-7.208
				c2.415-1.864,5.495-2.796,9.24-2.796c3.975,0,7.174,1.002,9.598,3.006c2.422,2.004,3.593,4.632,3.511,7.885l-0.049,0.147h-6.974
				c0-1.79-0.542-3.166-1.626-4.127s-2.604-1.441-4.559-1.441c-1.774,0-3.146,0.427-4.115,1.281
				c-0.97,0.854-1.453,1.946-1.453,3.277c0,1.216,0.525,2.214,1.576,2.994c1.052,0.78,2.866,1.605,5.446,2.476
				c3.942,1.117,6.948,2.575,9.018,4.374c2.07,1.799,3.104,4.168,3.104,7.109c0,3.072-1.199,5.495-3.597,7.269
				c-2.398,1.774-5.569,2.661-9.512,2.661c-3.86,0-7.174-0.961-9.942-2.883c-2.768-1.922-4.11-4.789-4.028-8.6l0.049-0.148h6.974
				c0,2.119,0.624,3.68,1.873,4.682c1.248,1.002,2.939,1.503,5.075,1.503c1.922,0,3.389-0.402,4.398-1.207
				C239.64,268.321,240.145,267.245,240.145,265.898z"/>
			<path fill="#FFFFFF" d="M279.544,263.385l0.049,0.147c0.065,3.828-1.101,6.826-3.498,8.994c-2.399,2.168-5.709,3.252-9.931,3.252
				c-4.304,0-7.778-1.384-10.423-4.152s-3.967-6.345-3.967-10.731v-7.121c0-4.37,1.289-7.946,3.868-10.731
				c2.579-2.784,5.963-4.176,10.152-4.176c4.369,0,7.786,1.068,10.25,3.203c2.464,2.136,3.663,5.142,3.598,9.019l-0.05,0.147h-6.997
				c0-2.299-0.555-4.012-1.663-5.137c-1.109-1.125-2.821-1.688-5.138-1.688c-2.152,0-3.832,0.867-5.039,2.6
				c-1.207,1.733-1.812,3.971-1.812,6.714v7.17c0,2.76,0.637,5.01,1.91,6.751c1.272,1.741,3.043,2.612,5.31,2.612
				c2.152,0,3.758-0.563,4.817-1.688c1.06-1.125,1.589-2.854,1.589-5.187H279.544z"/>
			<path fill="#FFFFFF" d="M291.939,260.92v14.341h-7.195v-35.876h12.419c4.09,0,7.289,0.933,9.598,2.797
				c2.308,1.865,3.462,4.464,3.462,7.799c0,1.84-0.489,3.429-1.467,4.768c-0.978,1.339-2.402,2.419-4.274,3.24
				c2.118,0.625,3.643,1.667,4.57,3.129c0.928,1.462,1.393,3.269,1.393,5.421v2.637c0,1.002,0.135,2.049,0.406,3.142
				s0.735,1.901,1.393,2.427v0.518h-7.417c-0.657-0.525-1.08-1.396-1.27-2.612c-0.188-1.215-0.283-2.39-0.283-3.523v-2.538
				c0-1.791-0.488-3.183-1.466-4.177c-0.978-0.994-2.361-1.491-4.152-1.491H291.939z M291.939,255.376h5.101
				c2.021,0,3.523-0.427,4.509-1.281c0.985-0.854,1.479-2.119,1.479-3.794c0-1.643-0.497-2.949-1.491-3.918
				s-2.451-1.454-4.373-1.454h-5.224V255.376z"/>
			<path fill="#FFFFFF" d="M324.586,275.261h-7.194v-35.876h7.194V275.261z"/>
			<path fill="#FFFFFF" d="M338.904,262.251v13.01h-7.195v-35.876h13.725c4.123,0,7.367,1.052,9.733,3.154
				c2.365,2.103,3.548,4.871,3.548,8.304c0,3.434-1.183,6.193-3.548,8.279c-2.366,2.086-5.61,3.129-9.733,3.129H338.904z
				 M338.904,256.707h6.529c2.004,0,3.523-0.546,4.559-1.639c1.035-1.092,1.553-2.484,1.553-4.176c0-1.725-0.514-3.15-1.54-4.275
				c-1.027-1.125-2.551-1.688-4.571-1.688h-6.529V256.707z"/>
			<path fill="#FFFFFF" d="M388.873,244.929h-10.25v30.332h-7.195v-30.332h-10.103v-5.544h27.548V244.929z"/>
			<path fill="#FFFFFF" d="M430.392,244.929h-10.25v30.332h-7.195v-30.332h-10.103v-5.544h27.548V244.929z"/>
			<path fill="#FFFFFF" d="M441.53,260.92v14.341h-7.195v-35.876h12.419c4.09,0,7.289,0.933,9.598,2.797
				c2.308,1.865,3.462,4.464,3.462,7.799c0,1.84-0.489,3.429-1.467,4.768c-0.978,1.339-2.402,2.419-4.274,3.24
				c2.118,0.625,3.643,1.667,4.57,3.129c0.928,1.462,1.393,3.269,1.393,5.421v2.637c0,1.002,0.135,2.049,0.406,3.142
				s0.735,1.901,1.393,2.427v0.518h-7.417c-0.657-0.525-1.08-1.396-1.27-2.612c-0.188-1.215-0.283-2.39-0.283-3.523v-2.538
				c0-1.791-0.488-3.183-1.466-4.177c-0.978-0.994-2.361-1.491-4.152-1.491H441.53z M441.53,255.376h5.101
				c2.021,0,3.523-0.427,4.509-1.281c0.985-0.854,1.479-2.119,1.479-3.794c0-1.643-0.497-2.949-1.491-3.918
				s-2.451-1.454-4.373-1.454h-5.224V255.376z"/>
			<path fill="#FFFFFF" d="M485.193,267.524h-11.63l-2.415,7.737h-7.516l12.099-35.876h7.367l12.049,35.876h-7.515L485.193,267.524z
				 M475.336,261.881h8.106l-3.967-12.64h-0.147L475.336,261.881z"/>
			<path fill="#FFFFFF" d="M527.598,275.261h-7.195l-14.464-24.197l-0.147,0.025v24.172h-7.195v-35.876h7.195l14.464,24.172
				l0.147-0.025v-24.147h7.195V275.261z"/>
			<path fill="#FFFFFF" d="M552.904,265.898c0-1.38-0.48-2.489-1.441-3.327c-0.961-0.837-2.649-1.626-5.063-2.365
				c-4.14-1.248-7.281-2.719-9.425-4.411c-2.145-1.692-3.216-4-3.216-6.924c0-2.94,1.207-5.343,3.622-7.208
				c2.415-1.864,5.495-2.796,9.24-2.796c3.975,0,7.174,1.002,9.598,3.006c2.422,2.004,3.593,4.632,3.511,7.885l-0.049,0.147h-6.974
				c0-1.79-0.542-3.166-1.626-4.127s-2.604-1.441-4.559-1.441c-1.774,0-3.146,0.427-4.115,1.281
				c-0.97,0.854-1.453,1.946-1.453,3.277c0,1.216,0.525,2.214,1.576,2.994c1.052,0.78,2.866,1.605,5.446,2.476
				c3.942,1.117,6.948,2.575,9.018,4.374c2.07,1.799,3.104,4.168,3.104,7.109c0,3.072-1.199,5.495-3.597,7.269
				c-2.398,1.774-5.569,2.661-9.512,2.661c-3.86,0-7.174-0.961-9.942-2.883c-2.768-1.922-4.11-4.789-4.028-8.6l0.049-0.148h6.974
				c0,2.119,0.624,3.68,1.873,4.682c1.248,1.002,2.939,1.503,5.075,1.503c1.922,0,3.389-0.402,4.398-1.207
				C552.399,268.321,552.904,267.245,552.904,265.898z"/>
			<path fill="#FFFFFF" d="M592.303,263.385l0.049,0.147c0.065,3.828-1.101,6.826-3.498,8.994c-2.399,2.168-5.709,3.252-9.931,3.252
				c-4.304,0-7.778-1.384-10.423-4.152s-3.967-6.345-3.967-10.731v-7.121c0-4.37,1.289-7.946,3.868-10.731
				c2.579-2.784,5.963-4.176,10.152-4.176c4.369,0,7.786,1.068,10.25,3.203c2.464,2.136,3.663,5.142,3.598,9.019l-0.05,0.147h-6.997
				c0-2.299-0.555-4.012-1.663-5.137c-1.109-1.125-2.821-1.688-5.138-1.688c-2.152,0-3.832,0.867-5.039,2.6
				c-1.207,1.733-1.812,3.971-1.812,6.714v7.17c0,2.76,0.637,5.01,1.91,6.751c1.272,1.741,3.043,2.612,5.31,2.612
				c2.152,0,3.758-0.563,4.817-1.688c1.06-1.125,1.589-2.854,1.589-5.187H592.303z"/>
			<path fill="#FFFFFF" d="M604.698,260.92v14.341h-7.195v-35.876h12.419c4.09,0,7.289,0.933,9.598,2.797
				c2.308,1.865,3.462,4.464,3.462,7.799c0,1.84-0.489,3.429-1.467,4.768c-0.978,1.339-2.402,2.419-4.274,3.24
				c2.118,0.625,3.643,1.667,4.57,3.129c0.928,1.462,1.393,3.269,1.393,5.421v2.637c0,1.002,0.135,2.049,0.406,3.142
				s0.735,1.901,1.393,2.427v0.518h-7.417c-0.657-0.525-1.08-1.396-1.27-2.612c-0.188-1.215-0.283-2.39-0.283-3.523v-2.538
				c0-1.791-0.488-3.183-1.466-4.177c-0.978-0.994-2.361-1.491-4.152-1.491H604.698z M604.698,255.376h5.101
				c2.021,0,3.523-0.427,4.509-1.281c0.985-0.854,1.479-2.119,1.479-3.794c0-1.643-0.497-2.949-1.491-3.918
				s-2.451-1.454-4.373-1.454h-5.224V255.376z"/>
			<path fill="#FFFFFF" d="M637.345,275.261h-7.194v-35.876h7.194V275.261z"/>
			<path fill="#FFFFFF" d="M651.662,262.251v13.01h-7.195v-35.876h13.725c4.123,0,7.367,1.052,9.733,3.154
				c2.365,2.103,3.548,4.871,3.548,8.304c0,3.434-1.183,6.193-3.548,8.279c-2.366,2.086-5.61,3.129-9.733,3.129H651.662z
				 M651.662,256.707h6.529c2.004,0,3.523-0.546,4.559-1.639c1.035-1.092,1.553-2.484,1.553-4.176c0-1.725-0.514-3.15-1.54-4.275
				c-1.027-1.125-2.551-1.688-4.571-1.688h-6.529V256.707z"/>
			<path fill="#FFFFFF" d="M701.632,244.929h-10.25v30.332h-7.195v-30.332h-10.103v-5.544h27.548V244.929z"/>
		</g>
	</g>
	<g>
		<rect x="61.134" y="364.69" fill="#C55194" width="798.147" height="109.842"/>
		<g>
			<path fill="#FFFFFF" d="M149.974,410.634h-10.25v30.332h-7.195v-30.332h-10.103v-5.544h27.548V410.634z"/>
			<path fill="#FFFFFF" d="M161.112,426.625v14.341h-7.195V405.09h12.419c4.09,0,7.289,0.933,9.598,2.797
				c2.308,1.865,3.462,4.464,3.462,7.799c0,1.84-0.489,3.429-1.467,4.768c-0.978,1.339-2.402,2.419-4.274,3.24
				c2.118,0.625,3.643,1.667,4.57,3.129c0.928,1.462,1.393,3.269,1.393,5.421v2.637c0,1.002,0.135,2.049,0.406,3.142
				s0.735,1.901,1.393,2.427v0.518h-7.417c-0.657-0.525-1.08-1.396-1.27-2.612c-0.188-1.215-0.283-2.39-0.283-3.523v-2.538
				c0-1.791-0.488-3.183-1.466-4.177c-0.978-0.994-2.361-1.491-4.152-1.491H161.112z M161.112,421.081h5.101
				c2.021,0,3.523-0.427,4.509-1.281c0.985-0.854,1.479-2.119,1.479-3.794c0-1.643-0.497-2.949-1.491-3.918
				s-2.451-1.454-4.373-1.454h-5.224V421.081z"/>
			<path fill="#FFFFFF" d="M204.774,433.229h-11.63l-2.415,7.737h-7.516l12.099-35.876h7.367l12.049,35.876h-7.515L204.774,433.229z
				 M194.917,427.586h8.106l-3.967-12.64h-0.147L194.917,427.586z"/>
			<path fill="#FFFFFF" d="M247.18,440.966h-7.195l-14.464-24.197l-0.147,0.025v24.172h-7.195V405.09h7.195l14.464,24.172
				l0.147-0.025V405.09h7.195V440.966z"/>
			<path fill="#FFFFFF" d="M272.486,431.603c0-1.38-0.48-2.489-1.441-3.327c-0.961-0.837-2.649-1.626-5.063-2.365
				c-4.14-1.248-7.281-2.719-9.425-4.411c-2.145-1.692-3.216-4-3.216-6.924c0-2.94,1.207-5.343,3.622-7.208
				c2.415-1.864,5.495-2.796,9.24-2.796c3.975,0,7.174,1.002,9.598,3.006c2.422,2.004,3.593,4.632,3.511,7.885l-0.049,0.147h-6.974
				c0-1.79-0.542-3.166-1.626-4.127s-2.604-1.441-4.559-1.441c-1.774,0-3.146,0.427-4.115,1.281
				c-0.97,0.854-1.453,1.946-1.453,3.277c0,1.216,0.525,2.214,1.576,2.994c1.052,0.78,2.866,1.605,5.446,2.476
				c3.942,1.117,6.948,2.575,9.018,4.374c2.07,1.799,3.104,4.168,3.104,7.109c0,3.072-1.199,5.495-3.597,7.269
				c-2.398,1.774-5.569,2.661-9.512,2.661c-3.86,0-7.174-0.961-9.942-2.883c-2.768-1.922-4.11-4.789-4.028-8.6l0.049-0.148h6.974
				c0,2.119,0.624,3.68,1.873,4.682c1.248,1.002,2.939,1.503,5.075,1.503c1.922,0,3.389-0.402,4.398-1.207
				C271.981,434.026,272.486,432.95,272.486,431.603z"/>
			<path fill="#FFFFFF" d="M292.173,435.447h16.065v5.52h-23.261V405.09h7.195V435.447z"/>
			<path fill="#FFFFFF" d="M332.189,433.229h-11.63l-2.415,7.737h-7.516l12.099-35.876h7.367l12.049,35.876h-7.515L332.189,433.229z
				 M322.332,427.586h8.106l-3.967-12.64h-0.147L322.332,427.586z"/>
			<path fill="#FFFFFF" d="M368.409,410.634h-10.25v30.332h-7.195v-30.332h-10.103v-5.544h27.548V410.634z"/>
			<path fill="#FFFFFF" d="M380.04,440.966h-7.194V405.09h7.194V440.966z"/>
			<path fill="#FFFFFF" d="M416.188,426.256c0,4.419-1.389,8.062-4.164,10.928c-2.776,2.867-6.391,4.3-10.842,4.3
				c-4.436,0-8.033-1.438-10.793-4.312s-4.14-6.513-4.14-10.916V419.8c0-4.386,1.376-8.021,4.128-10.903
				c2.751-2.883,6.336-4.324,10.755-4.324c4.452,0,8.074,1.441,10.867,4.324c2.792,2.883,4.188,6.518,4.188,10.903V426.256z
				 M409.017,419.751c0-2.792-0.698-5.084-2.094-6.875c-1.396-1.791-3.326-2.686-5.791-2.686c-2.431,0-4.324,0.896-5.68,2.686
				c-1.354,1.791-2.032,4.082-2.032,6.875v6.505c0,2.842,0.682,5.159,2.045,6.949c1.363,1.791,3.269,2.686,5.717,2.686
				c2.464,0,4.386-0.896,5.766-2.686c1.38-1.79,2.069-4.106,2.069-6.949V419.751z"/>
			<path fill="#FFFFFF" d="M450.881,440.966h-7.195l-14.464-24.197l-0.147,0.025v24.172h-7.195V405.09h7.195l14.464,24.172
				l0.147-0.025V405.09h7.195V440.966z"/>
			<path fill="#FFFFFF" d="M499.077,426.256c0,4.419-1.389,8.062-4.164,10.928c-2.776,2.867-6.391,4.3-10.842,4.3
				c-4.436,0-8.033-1.438-10.793-4.312s-4.14-6.513-4.14-10.916V419.8c0-4.386,1.376-8.021,4.128-10.903
				c2.751-2.883,6.336-4.324,10.755-4.324c4.452,0,8.074,1.441,10.867,4.324c2.792,2.883,4.188,6.518,4.188,10.903V426.256z
				 M491.906,419.751c0-2.792-0.698-5.084-2.094-6.875c-1.396-1.791-3.326-2.686-5.791-2.686c-2.431,0-4.324,0.896-5.68,2.686
				c-1.354,1.791-2.032,4.082-2.032,6.875v6.505c0,2.842,0.682,5.159,2.045,6.949c1.363,1.791,3.269,2.686,5.717,2.686
				c2.464,0,4.386-0.896,5.766-2.686c1.38-1.79,2.069-4.106,2.069-6.949V419.751z"/>
			<path fill="#FFFFFF" d="M525.738,426.059h-13.773v14.907h-7.195V405.09h23.482v5.544h-16.287v9.88h13.773V426.059z"/>
			<path fill="#FFFFFF" d="M564.103,431.603c0-1.38-0.48-2.489-1.441-3.327c-0.961-0.837-2.649-1.626-5.063-2.365
				c-4.14-1.248-7.281-2.719-9.425-4.411c-2.145-1.692-3.216-4-3.216-6.924c0-2.94,1.207-5.343,3.622-7.208
				c2.415-1.864,5.495-2.796,9.24-2.796c3.975,0,7.174,1.002,9.598,3.006c2.422,2.004,3.593,4.632,3.511,7.885l-0.049,0.147h-6.974
				c0-1.79-0.542-3.166-1.626-4.127s-2.604-1.441-4.559-1.441c-1.774,0-3.146,0.427-4.115,1.281
				c-0.97,0.854-1.453,1.946-1.453,3.277c0,1.216,0.525,2.214,1.576,2.994c1.052,0.78,2.866,1.605,5.446,2.476
				c3.942,1.117,6.948,2.575,9.018,4.374c2.07,1.799,3.104,4.168,3.104,7.109c0,3.072-1.199,5.495-3.597,7.269
				c-2.398,1.774-5.569,2.661-9.512,2.661c-3.86,0-7.174-0.961-9.942-2.883c-2.768-1.922-4.11-4.789-4.028-8.6l0.049-0.148h6.974
				c0,2.119,0.624,3.68,1.873,4.682c1.248,1.002,2.939,1.503,5.075,1.503c1.922,0,3.389-0.402,4.398-1.207
				C563.598,434.026,564.103,432.95,564.103,431.603z"/>
			<path fill="#FFFFFF" d="M605.031,405.09v23.482c0,4.041-1.339,7.204-4.016,9.486c-2.678,2.284-6.152,3.425-10.423,3.425
				c-4.255,0-7.709-1.142-10.361-3.425c-2.653-2.283-3.979-5.445-3.979-9.486V405.09h7.22v23.482c0,2.398,0.641,4.23,1.922,5.495
				c1.281,1.265,3.014,1.897,5.199,1.897c2.217,0,3.975-0.632,5.272-1.897c1.298-1.265,1.946-3.096,1.946-5.495V405.09H605.031z"/>
			<path fill="#FFFFFF" d="M611.264,440.966V405.09h11.754c4.221,0,7.515,0.826,9.88,2.477c2.366,1.651,3.549,4.103,3.549,7.355
				c0,1.643-0.428,3.113-1.281,4.411c-0.854,1.298-2.104,2.275-3.745,2.932c2.233,0.411,3.917,1.38,5.051,2.908s1.7,3.31,1.7,5.347
				c0,3.433-1.134,6.033-3.4,7.798c-2.267,1.766-5.479,2.649-9.635,2.649H611.264z M618.459,420.12h4.805
				c1.922,0,3.4-0.394,4.436-1.183c1.034-0.789,1.552-1.938,1.552-3.45c0-1.659-0.521-2.883-1.564-3.671s-2.6-1.183-4.669-1.183
				h-4.559V420.12z M618.459,425.098v10.349h6.677c1.906,0,3.359-0.415,4.361-1.244s1.504-2.058,1.504-3.684
				c0-1.741-0.493-3.08-1.479-4.017c-0.986-0.937-2.473-1.404-4.46-1.404H618.459z"/>
			<path fill="#FFFFFF" d="M667.764,410.634h-10.25v30.332h-7.195v-30.332h-10.103v-5.544h27.548V410.634z"/>
			<path fill="#FFFFFF" d="M679.395,440.966H672.2V405.09h7.194V440.966z"/>
			<path fill="#FFFFFF" d="M710.811,410.634h-10.25v30.332h-7.195v-30.332h-10.103v-5.544h27.548V410.634z"/>
			<path fill="#FFFFFF" d="M721.948,435.447h16.065v5.52h-23.261V405.09h7.195V435.447z"/>
			<path fill="#FFFFFF" d="M763.295,425.197H749.99v10.25h15.818v5.52h-23.014V405.09h22.965v5.544h-15.77v9.018h13.306V425.197z"/>
			<path fill="#FFFFFF" d="M789.562,431.603c0-1.38-0.48-2.489-1.441-3.327c-0.961-0.837-2.649-1.626-5.063-2.365
				c-4.14-1.248-7.281-2.719-9.425-4.411c-2.145-1.692-3.216-4-3.216-6.924c0-2.94,1.207-5.343,3.622-7.208
				c2.415-1.864,5.495-2.796,9.24-2.796c3.975,0,7.174,1.002,9.598,3.006c2.422,2.004,3.593,4.632,3.511,7.885l-0.049,0.147h-6.974
				c0-1.79-0.542-3.166-1.626-4.127s-2.604-1.441-4.559-1.441c-1.774,0-3.146,0.427-4.115,1.281
				c-0.97,0.854-1.453,1.946-1.453,3.277c0,1.216,0.525,2.214,1.576,2.994c1.052,0.78,2.866,1.605,5.446,2.476
				c3.942,1.117,6.948,2.575,9.018,4.374c2.07,1.799,3.104,4.168,3.104,7.109c0,3.072-1.199,5.495-3.597,7.269
				c-2.398,1.774-5.569,2.661-9.512,2.661c-3.86,0-7.174-0.961-9.942-2.883c-2.768-1.922-4.11-4.789-4.028-8.6l0.049-0.148h6.974
				c0,2.119,0.624,3.68,1.873,4.682c1.248,1.002,2.939,1.503,5.075,1.503c1.922,0,3.389-0.402,4.398-1.207
				C789.057,434.026,789.562,432.95,789.562,431.603z"/>
		</g>
	</g>
	<g>
		<rect x="200.094" y="528.252" fill="#70AF9D" width="520.227" height="109.84"/>
		<g>
			<path fill="#FFFFFF" d="M304.568,593.989c0-1.38-0.48-2.488-1.441-3.326s-2.649-1.627-5.063-2.366
				c-4.14-1.248-7.281-2.718-9.425-4.41c-2.145-1.691-3.216-4-3.216-6.924c0-2.94,1.207-5.343,3.622-7.208
				c2.415-1.864,5.495-2.796,9.24-2.796c3.975,0,7.174,1.002,9.598,3.006c2.422,2.004,3.593,4.632,3.511,7.885l-0.049,0.147h-6.974
				c0-1.79-0.542-3.166-1.626-4.127s-2.604-1.441-4.559-1.441c-1.774,0-3.146,0.427-4.115,1.281
				c-0.97,0.854-1.453,1.946-1.453,3.277c0,1.216,0.525,2.214,1.576,2.994c1.052,0.78,2.866,1.605,5.446,2.477
				c3.942,1.117,6.948,2.574,9.018,4.373c2.07,1.799,3.104,4.169,3.104,7.109c0,3.071-1.199,5.494-3.597,7.269
				c-2.398,1.774-5.569,2.661-9.512,2.661c-3.86,0-7.174-0.961-9.942-2.883c-2.768-1.922-4.11-4.788-4.028-8.6l0.049-0.147h6.974
				c0,2.118,0.624,3.68,1.873,4.682c1.248,1.002,2.939,1.503,5.075,1.503c1.922,0,3.389-0.402,4.398-1.208
				C304.063,596.412,304.568,595.336,304.568,593.989z"/>
			<path fill="#FFFFFF" d="M324.255,590.343v13.01h-7.195v-35.876h13.725c4.123,0,7.367,1.052,9.733,3.154
				c2.365,2.103,3.548,4.871,3.548,8.304s-1.183,6.193-3.548,8.279c-2.366,2.087-5.61,3.13-9.733,3.13H324.255z M324.255,584.799
				h6.529c2.004,0,3.523-0.546,4.559-1.639s1.553-2.485,1.553-4.177c0-1.725-0.514-3.15-1.54-4.275
				c-1.027-1.125-2.551-1.688-4.571-1.688h-6.529V584.799z"/>
			<path fill="#FFFFFF" d="M378.242,588.642c0,4.419-1.389,8.062-4.164,10.928c-2.776,2.866-6.391,4.3-10.842,4.3
				c-4.436,0-8.033-1.438-10.793-4.313c-2.76-2.874-4.14-6.513-4.14-10.915v-6.456c0-4.386,1.376-8.021,4.128-10.903
				c2.751-2.883,6.336-4.324,10.755-4.324c4.452,0,8.074,1.441,10.867,4.324c2.792,2.883,4.188,6.518,4.188,10.903V588.642z
				 M371.072,582.137c0-2.793-0.698-5.084-2.094-6.875c-1.396-1.791-3.326-2.686-5.791-2.686c-2.431,0-4.324,0.896-5.68,2.686
				c-1.354,1.791-2.032,4.082-2.032,6.875v6.505c0,2.842,0.682,5.158,2.045,6.948c1.363,1.791,3.269,2.686,5.717,2.686
				c2.464,0,4.386-0.895,5.766-2.686c1.38-1.79,2.069-4.106,2.069-6.948V582.137z"/>
			<path fill="#FFFFFF" d="M408.279,573.02h-10.25v30.332h-7.195V573.02h-10.103v-5.544h27.548V573.02z"/>
			<path fill="#FFFFFF" d="M437.625,573.02h-10.25v30.332h-7.195V573.02h-10.103v-5.544h27.548V573.02z"/>
			<path fill="#FFFFFF" d="M449.255,603.352h-7.194v-35.876h7.194V603.352z"/>
			<path fill="#FFFFFF" d="M485.378,603.352h-7.195l-14.464-24.197l-0.147,0.025v24.172h-7.195v-35.876h7.195l14.464,24.172
				l0.147-0.024v-24.148h7.195V603.352z"/>
			<path fill="#FFFFFF" d="M519.481,598.449c-1.118,1.462-2.785,2.731-5.002,3.807c-2.218,1.076-5.076,1.614-8.575,1.614
				c-4.337,0-7.885-1.363-10.645-4.091c-2.76-2.727-4.14-6.267-4.14-10.619v-7.491c0-4.336,1.339-7.873,4.017-10.607
				c2.677-2.735,6.118-4.103,10.324-4.103c4.386,0,7.745,1.039,10.077,3.117c2.333,2.079,3.458,4.851,3.376,8.316l-0.049,0.147
				h-6.776c0-1.905-0.551-3.388-1.65-4.447c-1.102-1.06-2.703-1.589-4.806-1.589c-2.201,0-3.976,0.85-5.322,2.55
				s-2.021,3.889-2.021,6.567v7.54c0,2.71,0.69,4.92,2.07,6.628c1.38,1.709,3.228,2.563,5.544,2.563c1.708,0,3.06-0.173,4.054-0.518
				c0.993-0.345,1.762-0.78,2.304-1.306v-6.948h-6.899v-4.978h14.119V598.449z"/>
			<path fill="#FFFFFF" d="M545.353,597.833h16.065v5.52h-23.261v-35.876h7.195V597.833z"/>
			<path fill="#FFFFFF" d="M573.885,603.352h-7.194v-35.876h7.194V603.352z"/>
			<path fill="#FFFFFF" d="M599.708,593.989c0-1.38-0.48-2.488-1.441-3.326s-2.649-1.627-5.063-2.366
				c-4.14-1.248-7.281-2.718-9.425-4.41c-2.145-1.691-3.216-4-3.216-6.924c0-2.94,1.207-5.343,3.622-7.208
				c2.415-1.864,5.495-2.796,9.24-2.796c3.975,0,7.174,1.002,9.598,3.006c2.422,2.004,3.593,4.632,3.511,7.885l-0.049,0.147h-6.974
				c0-1.79-0.542-3.166-1.626-4.127s-2.604-1.441-4.559-1.441c-1.774,0-3.146,0.427-4.115,1.281
				c-0.97,0.854-1.453,1.946-1.453,3.277c0,1.216,0.525,2.214,1.576,2.994c1.052,0.78,2.866,1.605,5.446,2.477
				c3.942,1.117,6.948,2.574,9.018,4.373c2.07,1.799,3.104,4.169,3.104,7.109c0,3.071-1.199,5.494-3.597,7.269
				c-2.398,1.774-5.569,2.661-9.512,2.661c-3.86,0-7.174-0.961-9.942-2.883c-2.768-1.922-4.11-4.788-4.028-8.6l0.049-0.147h6.974
				c0,2.118,0.624,3.68,1.873,4.682c1.248,1.002,2.939,1.503,5.075,1.503c1.922,0,3.389-0.402,4.398-1.208
				C599.203,596.412,599.708,595.336,599.708,593.989z"/>
			<path fill="#FFFFFF" d="M637.211,573.02h-10.25v30.332h-7.195V573.02h-10.103v-5.544h27.548V573.02z"/>
		</g>
	</g>
	<g>
		<rect x="253.241" y="691.813" fill="#E6BD53" width="413.933" height="109.842"/>
		<g>
			<path fill="#FFFFFF" d="M389.195,751.712h-13.306v10.25h15.818v5.52h-23.014v-35.876h22.965v5.544h-15.77v9.019h13.306V751.712z"
				/>
			<path fill="#FFFFFF" d="M396.759,767.481v-35.876h12.518c4.386,0,7.999,1.4,10.842,4.201c2.842,2.801,4.263,6.394,4.263,10.78
				v5.938c0,4.403-1.421,7.996-4.263,10.78c-2.843,2.784-6.456,4.177-10.842,4.177H396.759z M403.954,737.149v24.813h5.322
				c2.365,0,4.271-0.883,5.716-2.648s2.169-4.029,2.169-6.789v-5.987c0-2.743-0.724-4.993-2.169-6.751s-3.351-2.637-5.716-2.637
				H403.954z"/>
			<path fill="#FFFFFF" d="M437.834,767.481h-7.194v-35.876h7.194V767.481z"/>
			<path fill="#FFFFFF" d="M469.25,737.149H459v30.332h-7.195v-30.332h-10.103v-5.544h27.548V737.149z"/>
			<path fill="#FFFFFF" d="M480.88,767.481h-7.194v-35.876h7.194V767.481z"/>
			<path fill="#FFFFFF" d="M517.029,752.771c0,4.419-1.389,8.062-4.164,10.928c-2.776,2.866-6.391,4.3-10.842,4.3
				c-4.436,0-8.033-1.438-10.793-4.313c-2.76-2.874-4.14-6.513-4.14-10.915v-6.456c0-4.386,1.376-8.021,4.128-10.903
				c2.751-2.883,6.336-4.324,10.755-4.324c4.452,0,8.074,1.441,10.867,4.324c2.792,2.883,4.188,6.518,4.188,10.903V752.771z
				 M509.858,746.266c0-2.793-0.698-5.084-2.094-6.875c-1.396-1.79-3.326-2.686-5.791-2.686c-2.431,0-4.324,0.896-5.68,2.686
				c-1.354,1.791-2.032,4.082-2.032,6.875v6.505c0,2.842,0.682,5.158,2.045,6.948c1.363,1.791,3.269,2.686,5.717,2.686
				c2.464,0,4.386-0.895,5.766-2.686c1.38-1.79,2.069-4.106,2.069-6.948V746.266z"/>
			<path fill="#FFFFFF" d="M551.722,767.481h-7.195l-14.464-24.196l-0.147,0.024v24.172h-7.195v-35.876h7.195l14.464,24.172
				l0.147-0.024v-24.147h7.195V767.481z"/>
		</g>
	</g>
	<g>
		<rect x="227.995" y="855.378" fill="#C55194" width="464.425" height="109.842"/>
		<g>
			<path fill="#FFFFFF" d="M357.876,915.654v14.341h-7.195v-35.876H363.1c4.09,0,7.289,0.933,9.598,2.797
				c2.308,1.864,3.462,4.464,3.462,7.798c0,1.84-0.489,3.43-1.467,4.769s-2.402,2.419-4.274,3.24
				c2.118,0.624,3.643,1.667,4.57,3.129s1.393,3.27,1.393,5.421v2.637c0,1.002,0.135,2.049,0.406,3.142s0.735,1.901,1.393,2.427
				v0.518h-7.417c-0.657-0.525-1.08-1.396-1.27-2.612c-0.188-1.215-0.283-2.39-0.283-3.523v-2.538c0-1.79-0.488-3.182-1.466-4.176
				s-2.361-1.491-4.152-1.491H357.876z M357.876,910.11h5.101c2.021,0,3.523-0.427,4.509-1.281c0.985-0.854,1.479-2.119,1.479-3.795
				c0-1.642-0.497-2.948-1.491-3.917c-0.994-0.97-2.451-1.454-4.373-1.454h-5.224V910.11z"/>
			<path fill="#FFFFFF" d="M403.337,914.225h-13.306v10.25h15.818v5.52h-23.014v-35.876h22.965v5.544h-15.77v9.019h13.306V914.225z"
				/>
			<path fill="#FFFFFF" d="M423.123,920.262l0.443,1.971h0.147l0.419-1.897l7.812-26.217h7.589l-12.196,35.876h-7.393
				l-12.172-35.876h7.589L423.123,920.262z"/>
			<path fill="#FFFFFF" d="M450.696,929.995h-7.194v-35.876h7.194V929.995z"/>
			<path fill="#FFFFFF" d="M476.519,920.632c0-1.38-0.48-2.488-1.441-3.326s-2.649-1.627-5.063-2.366
				c-4.14-1.248-7.281-2.718-9.425-4.41c-2.145-1.691-3.216-4-3.216-6.924c0-2.94,1.207-5.343,3.622-7.207s5.495-2.797,9.24-2.797
				c3.975,0,7.174,1.002,9.598,3.006c2.422,2.005,3.593,4.633,3.511,7.885l-0.049,0.148h-6.974c0-1.791-0.542-3.167-1.626-4.128
				s-2.604-1.441-4.559-1.441c-1.774,0-3.146,0.428-4.115,1.281c-0.97,0.854-1.453,1.947-1.453,3.277
				c0,1.216,0.525,2.214,1.576,2.994c1.052,0.78,2.866,1.605,5.446,2.477c3.942,1.117,6.948,2.574,9.018,4.373
				c2.07,1.799,3.104,4.169,3.104,7.109c0,3.071-1.199,5.494-3.597,7.269c-2.398,1.774-5.569,2.661-9.512,2.661
				c-3.86,0-7.174-0.961-9.942-2.883c-2.768-1.922-4.11-4.788-4.028-8.6l0.049-0.147h6.974c0,2.118,0.624,3.68,1.873,4.682
				c1.248,1.002,2.939,1.503,5.075,1.503c1.922,0,3.389-0.402,4.398-1.208C476.014,923.054,476.519,921.978,476.519,920.632z"/>
			<path fill="#FFFFFF" d="M496.698,929.995h-7.194v-35.876h7.194V929.995z"/>
			<path fill="#FFFFFF" d="M524.322,914.225h-13.306v10.25h15.818v5.52h-23.014v-35.876h22.965v5.544h-15.77v9.019h13.306V914.225z"
				/>
			<path fill="#FFFFFF" d="M560.197,918.464h0.148l4.755-24.345h7.417l-8.378,35.876h-6.678l-6.604-23.63h-0.147l-6.579,23.63
				h-6.678l-8.377-35.876h7.416l4.78,24.319h0.148l6.455-24.319h5.815L560.197,918.464z"/>
		</g>
	</g>
	<g>
		<rect x="227.995" y="1018.76" fill="#D7D8DC" width="464.425" height="109.843"/>
		<g>
			<g>
				<path fill="#262C31" d="M349.733,1093.378v-35.876h12.518c4.386,0,7.999,1.4,10.842,4.201c2.842,2.801,4.263,6.394,4.263,10.78
					v5.938c0,4.403-1.421,7.996-4.263,10.78c-2.843,2.784-6.456,4.177-10.842,4.177H349.733z M356.928,1063.046v24.813h5.322
					c2.365,0,4.271-0.883,5.716-2.648s2.169-4.029,2.169-6.789v-5.987c0-2.743-0.724-4.993-2.169-6.751s-3.351-2.637-5.716-2.637
					H356.928z"/>
				<path fill="#262C31" d="M403.621,1077.608h-13.306v10.25h15.818v5.52H383.12v-35.876h22.965v5.544h-15.77v9.019h13.306V1077.608
					z"/>
				<path fill="#262C31" d="M418.381,1087.858h16.065v5.52h-23.261v-35.876h7.195V1087.858z"/>
				<path fill="#262C31" d="M446.913,1093.378h-7.194v-35.876h7.194V1093.378z"/>
				<path fill="#262C31" d="M466.256,1083.645l0.443,1.971h0.147l0.419-1.897l7.812-26.217h7.589l-12.196,35.876h-7.393
					l-12.172-35.876h7.589L466.256,1083.645z"/>
				<path fill="#262C31" d="M506.642,1077.608h-13.306v10.25h15.818v5.52h-23.014v-35.876h22.965v5.544h-15.77v9.019h13.306
					V1077.608z"/>
				<path fill="#262C31" d="M521.402,1079.037v14.341h-7.195v-35.876h12.419c4.09,0,7.289,0.933,9.598,2.797
					c2.308,1.864,3.462,4.464,3.462,7.798c0,1.84-0.489,3.43-1.467,4.769s-2.402,2.419-4.274,3.24
					c2.118,0.624,3.643,1.667,4.57,3.129s1.393,3.27,1.393,5.421v2.637c0,1.002,0.135,2.049,0.406,3.142s0.735,1.901,1.393,2.427
					v0.518h-7.417c-0.657-0.525-1.08-1.396-1.27-2.612c-0.188-1.215-0.283-2.39-0.283-3.523v-2.538c0-1.79-0.488-3.182-1.466-4.176
					s-2.361-1.491-4.152-1.491H521.402z M521.402,1073.493h5.101c2.021,0,3.523-0.427,4.509-1.281
					c0.985-0.854,1.479-2.119,1.479-3.795c0-1.642-0.497-2.948-1.491-3.917c-0.994-0.97-2.451-1.454-4.373-1.454h-5.224V1073.493z"
					/>
				<path fill="#262C31" d="M557.844,1074.035h0.147l7.836-16.533h7.885l-12.295,23.26v12.616h-7.195v-12.985l-12.099-22.891h7.885
					L557.844,1074.035z"/>
			</g>
		</g>
	</g>
	<g>
		<path fill="none" stroke="#70AF9D" stroke-width="10" stroke-miterlimit="10" d="M263.745,92.485H55.998c-2.75,0-5,2.25-5,5
			v158.417c0,2.75,2.25,5,5,5h39.838"/>
	</g>
	<g>
		<path fill="none" stroke="#C55194" stroke-width="10" stroke-miterlimit="10" d="M61.134,424.464H23.14c-2.75,0-5,2.25-5,5
			v148.708c0,2.75,2.25,5,5,5h176.954"/>
	</g>
	<g>
		<path fill="none" stroke="#E6BD53" stroke-width="10" stroke-miterlimit="10" d="M253.241,746.469h-61.986c-2.75,0-5,2.25-5,5
			v153.829c0,2.75,2.25,5,5,5h36.74"/>
	</g>
	<g>
		<path fill="none" stroke="#C55194" stroke-width="10" stroke-miterlimit="10" d="M667.174,754.153h72.754c2.75,0,5,2.25,5,5
			v146.145c0,2.75-2.25,5-5,5H692.42"/>
	</g>
	<g>
		<path fill="none" stroke="#E6BD53" stroke-width="10" stroke-miterlimit="10" d="M824.576,256.047h88.847c2.75,0,5,2.25,5,5
			v158.417c0,2.75-2.25,5-5,5h-54.142"/>
	</g>
	<g>
		<path fill="none" stroke="#70AF9D" stroke-width="10" stroke-miterlimit="10" d="M720.321,583.172h47.217c2.75,0,5,2.25,5,5
			v149.426c0,2.75-2.25,5-5,5H667.174"/>
	</g>
	<g>
		<circle fill="#C55194" cx="744.929" cy="828.517" r="31.146"/>
		<g>
			<path fill="#FFFFFF" d="M758.602,829.693c0.332,0,0.551,0.164,0.662,0.497c0.108,0.332-0.058,0.775-0.499,1.326
				c-1.328,1.991-3.319,4.29-5.971,6.889c-2.654,2.599-4.925,4.508-6.805,5.724c-0.995,0.664-2.379,1.107-4.15,1.328h-2.321
				c-1.66,0.109-3.044-0.389-4.148-1.494c-1.106-1.105-1.823-2.324-2.158-3.65c-0.224-0.773-0.33-2.045-0.33-3.816l0.166-1.325
				c0-0.444,0.25-1.552,0.744-3.32c0.499-1.77,1.191-3.371,2.074-4.813c1.328-2.213,2.711-3.984,4.15-5.31
				c0.552-0.552,1.163-0.72,1.823-0.498c0.112,0.112,0.336,0.112,0.668,0c0.331-0.108,0.605-0.166,0.827-0.166
				c0.221-0.108,0.608-0.168,1.162-0.168c0.773,0,1.661,0.392,2.656,1.164c1.104,1.107,1.659,1.991,1.659,2.656
				c0,0.443-0.279,1.218-0.831,2.321c-0.556,1.105-1.135,2.157-1.741,3.152c-0.609,0.998-1.193,1.991-1.743,2.989
				c-0.777,1.547-1.438,3.208-1.989,4.974c-0.224,1.441-0.28,2.549-0.168,3.321c0.108,0.663,0.499,0.829,1.163,0.497
				c0.772-0.441,1.464-0.854,2.071-1.245c0.608-0.386,1.134-0.688,1.579-0.912c1.104-0.773,3.535-3.04,7.298-6.803
				c1.439-1.436,2.379-2.323,2.822-2.655C757.717,829.915,758.156,829.693,758.602,829.693z M753.458,816.916
				c0,0.224-0.113,0.444-0.334,0.664c-0.222,0.224-0.497,0.332-0.829,0.332h-0.332l-4.479-0.996
				c-0.224-0.108-0.747-0.414-1.579-0.911c-0.827-0.498-1.52-0.858-2.071-1.08c-0.556-0.441-0.775-0.995-0.666-1.661
				c0.666-1.434,1.548-2.595,2.657-3.482c0.549-0.332,1.104-0.386,1.659-0.166l3.482,1.991c0.885,0.556,1.492,1.385,1.827,2.489
				c0.221,0.556,0.437,1.383,0.664,2.488V816.916z"/>
		</g>
	</g>
	
		<line fill="none" stroke="#C55194" stroke-width="10" stroke-miterlimit="10" x1="460.207" y1="801.655" x2="460.207" y2="855.378"/>
	
		<line fill="none" stroke="#C55194" stroke-width="10" stroke-miterlimit="10" x1="460.207" y1="964.999" x2="460.207" y2="1018.76"/>
</g>
</svg>
