<?xml version="1.0" encoding="utf-8"?>
<!-- Generator: Adobe Illustrator 16.0.0, SVG Export Plug-In . SVG Version: 6.00 Build 0)  -->
<!DOCTYPE svg PUBLIC "-//W3C//DTD SVG 1.1//EN" "http://www.w3.org/Graphics/SVG/1.1/DTD/svg11.dtd">
<svg version="1.1" id="Capa_1" xmlns="http://www.w3.org/2000/svg" xmlns:xlink="http://www.w3.org/1999/xlink" x="0px" y="0px"
	 width="936.563px" height="1481.703px" viewBox="0 0 936.563 1481.703" enable-background="new 0 0 936.563 1481.703"
	 xml:space="preserve">
<g>
	<g>
		<rect x="205.932" y="48.961" fill="#70AF9D" width="498.349" height="139.313"/>
		<g>
			<path fill="#FFFFFF" d="M336.944,130.458h-14.75l-3.063,9.813h-9.532l15.345-45.502h9.344l15.282,45.502h-9.531L336.944,130.458z
				 M324.444,123.302h10.281l-5.031-16.032h-0.188L324.444,123.302z"/>
			<path fill="#FFFFFF" d="M390.728,140.271h-9.125l-18.345-30.689l-0.188,0.031v30.658h-9.126V94.769h9.126l18.345,30.658
				l0.188-0.031V94.769h9.125V140.271z"/>
			<path fill="#FFFFFF" d="M423.385,130.458h-14.75l-3.063,9.813h-9.532l15.345-45.502h9.344l15.282,45.502h-9.531L423.385,130.458z
				 M410.885,123.302h10.281l-5.031-16.032h-0.188L410.885,123.302z"/>
			<path fill="#FFFFFF" d="M449.513,133.271h20.376v7h-29.502V94.769h9.126V133.271z"/>
			<path fill="#FFFFFF" d="M483.295,115.739h0.188l9.938-20.97h10l-15.595,29.501v16.001h-9.125v-16.47l-15.345-29.033h10.001
				L483.295,115.739z"/>
			<path fill="#FFFFFF" d="M531.172,128.396c0-1.75-0.609-3.157-1.828-4.219s-3.359-2.063-6.422-3
				c-5.25-1.583-9.234-3.448-11.954-5.594c-2.719-2.146-4.078-5.073-4.078-8.781c0-3.729,1.531-6.776,4.594-9.141
				c3.063-2.365,6.97-3.547,11.72-3.547c5.042,0,9.099,1.271,12.173,3.813c3.072,2.542,4.557,5.875,4.453,10l-0.063,0.188h-8.845
				c0-2.271-0.688-4.016-2.063-5.235s-3.302-1.828-5.781-1.828c-2.25,0-3.99,0.542-5.219,1.625
				c-1.229,1.083-1.844,2.469-1.844,4.157c0,1.542,0.666,2.808,2,3.797c1.333,0.99,3.635,2.037,6.906,3.141
				c5,1.417,8.813,3.266,11.438,5.547s3.938,5.287,3.938,9.016c0,3.896-1.521,6.969-4.563,9.219
				c-3.042,2.25-7.063,3.375-12.063,3.375c-4.896,0-9.1-1.219-12.61-3.656c-3.511-2.438-5.214-6.073-5.109-10.907l0.063-0.188h8.845
				c0,2.688,0.791,4.667,2.375,5.938c1.583,1.271,3.729,1.906,6.438,1.906c2.438,0,4.297-0.51,5.578-1.531
				C530.531,131.469,531.172,130.104,531.172,128.396z"/>
			<path fill="#FFFFFF" d="M556.768,140.271h-9.126V94.769h9.126V140.271z"/>
			<path fill="#FFFFFF" d="M589.519,128.396c0-1.75-0.609-3.157-1.828-4.219s-3.359-2.063-6.422-3
				c-5.25-1.583-9.234-3.448-11.954-5.594c-2.719-2.146-4.078-5.073-4.078-8.781c0-3.729,1.531-6.776,4.594-9.141
				c3.063-2.365,6.97-3.547,11.72-3.547c5.042,0,9.099,1.271,12.173,3.813c3.072,2.542,4.557,5.875,4.453,10l-0.063,0.188h-8.845
				c0-2.271-0.688-4.016-2.063-5.235s-3.302-1.828-5.781-1.828c-2.25,0-3.99,0.542-5.219,1.625
				c-1.229,1.083-1.844,2.469-1.844,4.157c0,1.542,0.666,2.808,2,3.797c1.333,0.99,3.635,2.037,6.906,3.141
				c5,1.417,8.813,3.266,11.438,5.547s3.938,5.287,3.938,9.016c0,3.896-1.521,6.969-4.563,9.219
				c-3.042,2.25-7.063,3.375-12.063,3.375c-4.896,0-9.1-1.219-12.61-3.656c-3.511-2.438-5.214-6.073-5.109-10.907l0.063-0.188h8.845
				c0,2.688,0.791,4.667,2.375,5.938c1.583,1.271,3.729,1.906,6.438,1.906c2.438,0,4.297-0.51,5.578-1.531
				C588.878,131.469,589.519,130.104,589.519,128.396z"/>
		</g>
	</g>
	<g>
		<rect x="87.2" y="256.411" fill="#E6BD53" width="735.813" height="139.314"/>
		<g>
			<path fill="#FFFFFF" d="M216.5,338.562c0-1.75-0.609-3.157-1.828-4.219s-3.359-2.063-6.422-3
				c-5.25-1.583-9.234-3.448-11.954-5.594c-2.719-2.146-4.078-5.073-4.078-8.781c0-3.729,1.531-6.776,4.594-9.141
				c3.063-2.365,6.97-3.547,11.72-3.547c5.042,0,9.099,1.271,12.173,3.813c3.072,2.542,4.557,5.875,4.453,10l-0.063,0.188h-8.845
				c0-2.271-0.688-4.016-2.063-5.235s-3.302-1.828-5.781-1.828c-2.25,0-3.99,0.542-5.219,1.625
				c-1.229,1.083-1.844,2.469-1.844,4.157c0,1.542,0.666,2.808,2,3.797c1.333,0.99,3.635,2.037,6.906,3.141
				c5,1.417,8.813,3.266,11.438,5.547s3.938,5.287,3.938,9.016c0,3.896-1.521,6.969-4.563,9.219
				c-3.042,2.25-7.063,3.375-12.063,3.375c-4.896,0-9.1-1.219-12.61-3.656c-3.511-2.438-5.214-6.073-5.109-10.907l0.063-0.188h8.845
				c0,2.688,0.791,4.667,2.375,5.938c1.583,1.271,3.729,1.906,6.438,1.906c2.438,0,4.297-0.51,5.578-1.531
				C215.86,341.635,216.5,340.27,216.5,338.562z"/>
			<path fill="#FFFFFF" d="M266.472,335.374l0.063,0.188c0.083,4.855-1.396,8.657-4.438,11.407c-3.042,2.75-7.24,4.125-12.595,4.125
				c-5.459,0-9.865-1.755-13.22-5.266s-5.031-8.047-5.031-13.61v-9.032c0-5.542,1.636-10.079,4.906-13.61
				c3.271-3.532,7.563-5.297,12.876-5.297c5.542,0,9.876,1.354,13.001,4.063s4.646,6.521,4.563,11.438l-0.063,0.188h-8.875
				c0-2.917-0.704-5.089-2.11-6.516c-1.406-1.427-3.578-2.141-6.516-2.141c-2.729,0-4.859,1.099-6.391,3.297
				c-1.531,2.199-2.297,5.037-2.297,8.516v9.094c0,3.5,0.807,6.355,2.422,8.563c1.614,2.208,3.859,3.313,6.734,3.313
				c2.729,0,4.766-0.713,6.109-2.141c1.344-1.427,2.017-3.62,2.017-6.579H266.472z"/>
			<path fill="#FFFFFF" d="M282.192,332.249v18.188h-9.126v-45.502h15.751c5.188,0,9.245,1.183,12.173,3.547
				c2.927,2.365,4.391,5.662,4.391,9.891c0,2.333-0.62,4.349-1.859,6.047c-1.24,1.698-3.047,3.068-5.422,4.11
				c2.688,0.792,4.619,2.115,5.797,3.969c1.177,1.854,1.766,4.146,1.766,6.875v3.344c0,1.271,0.172,2.599,0.516,3.985
				s0.932,2.412,1.766,3.078v0.656h-9.406c-0.834-0.667-1.371-1.771-1.61-3.313s-0.359-3.032-0.359-4.469v-3.219
				c0-2.271-0.62-4.037-1.859-5.297c-1.239-1.26-2.995-1.891-5.266-1.891H282.192z M282.192,325.217h6.469
				c2.563,0,4.469-0.542,5.719-1.625c1.25-1.083,1.875-2.688,1.875-4.813c0-2.083-0.63-3.74-1.891-4.969
				c-1.261-1.229-3.109-1.844-5.547-1.844h-6.625V325.217z"/>
			<path fill="#FFFFFF" d="M323.6,350.437h-9.126v-45.502h9.126V350.437z"/>
			<path fill="#FFFFFF" d="M341.757,333.936v16.501h-9.126v-45.502h17.407c5.229,0,9.345,1.333,12.345,4s4.5,6.177,4.5,10.532
				s-1.5,7.855-4.5,10.5c-3,2.646-7.115,3.969-12.345,3.969H341.757z M341.757,326.905h8.281c2.542,0,4.469-0.692,5.781-2.079
				c1.313-1.385,1.97-3.151,1.97-5.297c0-2.188-0.652-3.995-1.954-5.422c-1.302-1.427-3.234-2.141-5.797-2.141h-8.281V326.905z"/>
			<path fill="#FFFFFF" d="M405.135,311.967h-13.001v38.471h-9.125v-38.471h-12.813v-7.032h34.939V311.967z"/>
			<path fill="#FFFFFF" d="M460.2,335.374l0.063,0.188c0.083,4.855-1.396,8.657-4.438,11.407c-3.042,2.75-7.24,4.125-12.595,4.125
				c-5.459,0-9.865-1.755-13.22-5.266s-5.031-8.047-5.031-13.61v-9.032c0-5.542,1.636-10.079,4.906-13.61
				c3.271-3.532,7.563-5.297,12.876-5.297c5.542,0,9.876,1.354,13.001,4.063s4.646,6.521,4.563,11.438l-0.063,0.188h-8.875
				c0-2.917-0.704-5.089-2.11-6.516c-1.406-1.427-3.578-2.141-6.516-2.141c-2.729,0-4.859,1.099-6.391,3.297
				c-1.531,2.199-2.297,5.037-2.297,8.516v9.094c0,3.5,0.807,6.355,2.422,8.563c1.614,2.208,3.859,3.313,6.734,3.313
				c2.729,0,4.766-0.713,6.109-2.141c1.344-1.427,2.017-3.62,2.017-6.579H460.2z"/>
			<path fill="#FFFFFF" d="M475.92,332.249v18.188h-9.126v-45.502h15.751c5.188,0,9.245,1.183,12.173,3.547
				c2.927,2.365,4.391,5.662,4.391,9.891c0,2.333-0.62,4.349-1.859,6.047c-1.24,1.698-3.047,3.068-5.422,4.11
				c2.688,0.792,4.619,2.115,5.797,3.969c1.177,1.854,1.766,4.146,1.766,6.875v3.344c0,1.271,0.172,2.599,0.516,3.985
				s0.932,2.412,1.766,3.078v0.656h-9.406c-0.834-0.667-1.371-1.771-1.61-3.313s-0.359-3.032-0.359-4.469v-3.219
				c0-2.271-0.62-4.037-1.859-5.297c-1.239-1.26-2.995-1.891-5.266-1.891H475.92z M475.92,325.217h6.469
				c2.563,0,4.469-0.542,5.719-1.625c1.25-1.083,1.875-2.688,1.875-4.813c0-2.083-0.63-3.74-1.891-4.969
				c-1.261-1.229-3.109-1.844-5.547-1.844h-6.625V325.217z"/>
			<path fill="#FFFFFF" d="M533.579,330.436h-16.876v13h20.063v7h-29.189v-45.502h29.127v7.032h-20.001v11.438h16.876V330.436z"/>
			<path fill="#FFFFFF" d="M566.893,340.624h-14.75l-3.063,9.813h-9.532l15.345-45.502h9.344l15.282,45.502h-9.531L566.893,340.624z
				 M554.393,333.468h10.281l-5.031-16.032h-0.188L554.393,333.468z"/>
			<path fill="#FFFFFF" d="M612.833,311.967h-13.001v38.471h-9.125v-38.471h-12.813v-7.032h34.939V311.967z"/>
			<path fill="#FFFFFF" d="M627.584,350.437h-9.126v-45.502h9.126V350.437z"/>
			<path fill="#FFFFFF" d="M673.43,331.78c0,5.605-1.761,10.225-5.281,13.86c-3.521,3.636-8.105,5.453-13.751,5.453
				c-5.625,0-10.188-1.823-13.688-5.469c-3.5-3.646-5.25-8.261-5.25-13.845v-8.188c0-5.563,1.745-10.172,5.234-13.829
				c3.49-3.657,8.037-5.485,13.642-5.485c5.646,0,10.24,1.828,13.782,5.485c3.542,3.656,5.313,8.266,5.313,13.829V331.78z
				 M664.336,323.53c0-3.542-0.886-6.448-2.656-8.719c-1.771-2.271-4.22-3.406-7.345-3.406c-3.084,0-5.484,1.136-7.203,3.406
				c-1.719,2.271-2.578,5.178-2.578,8.719v8.25c0,3.604,0.864,6.542,2.594,8.813c1.729,2.271,4.146,3.406,7.25,3.406
				c3.125,0,5.563-1.135,7.313-3.406c1.75-2.271,2.625-5.208,2.625-8.813V323.53z"/>
			<path fill="#FFFFFF" d="M717.432,350.437h-9.125l-18.345-30.689l-0.188,0.031v30.658h-9.126v-45.502h9.126l18.345,30.658
				l0.188-0.031v-30.626h9.125V350.437z"/>
		</g>
	</g>
	<g>
		<rect x="46.196" y="463.861" fill="#C55194" width="817.821" height="139.314"/>
		<g>
			<path fill="#FFFFFF" d="M215.813,548.728c0-1.75-0.609-3.157-1.828-4.219s-3.359-2.063-6.422-3
				c-5.25-1.583-9.234-3.448-11.954-5.594c-2.719-2.146-4.078-5.073-4.078-8.781c0-3.729,1.531-6.776,4.594-9.141
				c3.063-2.365,6.97-3.547,11.72-3.547c5.042,0,9.099,1.271,12.173,3.813c3.072,2.542,4.557,5.875,4.453,10l-0.063,0.188h-8.845
				c0-2.271-0.688-4.016-2.063-5.235s-3.302-1.828-5.781-1.828c-2.25,0-3.99,0.542-5.219,1.625
				c-1.229,1.083-1.844,2.469-1.844,4.157c0,1.542,0.666,2.808,2,3.797c1.333,0.99,3.635,2.037,6.906,3.141
				c5,1.417,8.813,3.266,11.438,5.547s3.938,5.287,3.938,9.016c0,3.896-1.521,6.969-4.563,9.219
				c-3.042,2.25-7.063,3.375-12.063,3.375c-4.896,0-9.1-1.219-12.61-3.656c-3.511-2.438-5.214-6.073-5.109-10.907l0.063-0.188h8.845
				c0,2.688,0.791,4.667,2.375,5.938c1.583,1.271,3.729,1.906,6.438,1.906c2.438,0,4.297-0.51,5.578-1.531
				C215.172,551.801,215.813,550.436,215.813,548.728z"/>
			<path fill="#FFFFFF" d="M240.783,544.102v16.501h-9.126v-45.502h17.407c5.229,0,9.345,1.333,12.345,4s4.5,6.177,4.5,10.532
				s-1.5,7.855-4.5,10.5c-3,2.646-7.115,3.969-12.345,3.969H240.783z M240.783,537.071h8.281c2.542,0,4.469-0.692,5.781-2.079
				c1.313-1.385,1.97-3.151,1.97-5.297c0-2.188-0.652-3.995-1.954-5.422c-1.302-1.427-3.234-2.141-5.797-2.141h-8.281V537.071z"/>
			<path fill="#FFFFFF" d="M298.443,540.602h-16.876v13h20.063v7h-29.189v-45.502h29.127v7.032h-20.001v11.438h16.876V540.602z"/>
			<path fill="#FFFFFF" d="M334.038,540.602h-16.876v13h20.063v7h-29.189v-45.502h29.127v7.032h-20.001v11.438h16.876V540.602z"/>
			<path fill="#FFFFFF" d="M377.759,545.54l0.063,0.188c0.083,4.855-1.396,8.657-4.438,11.407c-3.042,2.75-7.24,4.125-12.595,4.125
				c-5.459,0-9.865-1.755-13.22-5.266s-5.031-8.047-5.031-13.61v-9.032c0-5.542,1.636-10.079,4.906-13.61
				c3.271-3.532,7.563-5.297,12.876-5.297c5.542,0,9.876,1.354,13.001,4.063s4.646,6.521,4.563,11.438l-0.063,0.188h-8.875
				c0-2.917-0.704-5.089-2.11-6.516c-1.406-1.427-3.578-2.141-6.516-2.141c-2.729,0-4.859,1.099-6.391,3.297
				c-1.531,2.199-2.297,5.037-2.297,8.516v9.094c0,3.5,0.807,6.355,2.422,8.563c1.614,2.208,3.859,3.313,6.734,3.313
				c2.729,0,4.766-0.713,6.109-2.141c1.344-1.427,2.017-3.62,2.017-6.579H377.759z"/>
			<path fill="#FFFFFF" d="M421.136,560.603h-9.125v-18.907h-18.532v18.907h-9.126v-45.502h9.126v19.563h18.532v-19.563h9.125
				V560.603z"/>
			<path fill="#FFFFFF" d="M454.575,544.102v16.501h-9.126v-45.502h17.407c5.229,0,9.345,1.333,12.345,4s4.5,6.177,4.5,10.532
				s-1.5,7.855-4.5,10.5c-3,2.646-7.115,3.969-12.345,3.969H454.575z M454.575,537.071h8.281c2.542,0,4.469-0.692,5.781-2.079
				c1.313-1.385,1.97-3.151,1.97-5.297c0-2.188-0.652-3.995-1.954-5.422c-1.302-1.427-3.234-2.141-5.797-2.141h-8.281V537.071z"/>
			<path fill="#FFFFFF" d="M495.359,542.415v18.188h-9.126v-45.502h15.751c5.188,0,9.245,1.183,12.173,3.547
				c2.927,2.365,4.391,5.662,4.391,9.891c0,2.333-0.62,4.349-1.859,6.047c-1.24,1.698-3.047,3.068-5.422,4.11
				c2.688,0.792,4.619,2.115,5.797,3.969c1.177,1.854,1.766,4.146,1.766,6.875v3.344c0,1.271,0.172,2.599,0.516,3.985
				s0.932,2.412,1.766,3.078v0.656h-9.406c-0.834-0.667-1.371-1.771-1.61-3.313s-0.359-3.032-0.359-4.469v-3.219
				c0-2.271-0.62-4.037-1.859-5.297c-1.239-1.26-2.995-1.891-5.266-1.891H495.359z M495.359,535.383h6.469
				c2.563,0,4.469-0.542,5.719-1.625c1.25-1.083,1.875-2.688,1.875-4.813c0-2.083-0.63-3.74-1.891-4.969
				c-1.261-1.229-3.109-1.844-5.547-1.844h-6.625V535.383z"/>
			<path fill="#FFFFFF" d="M563.83,541.946c0,5.605-1.761,10.225-5.281,13.86c-3.521,3.636-8.105,5.453-13.751,5.453
				c-5.625,0-10.188-1.823-13.688-5.469c-3.5-3.646-5.25-8.261-5.25-13.845v-8.188c0-5.563,1.745-10.172,5.234-13.829
				c3.49-3.657,8.037-5.485,13.642-5.485c5.646,0,10.24,1.828,13.782,5.485c3.542,3.656,5.313,8.266,5.313,13.829V541.946z
				 M554.737,533.696c0-3.542-0.886-6.448-2.656-8.719c-1.771-2.271-4.22-3.406-7.345-3.406c-3.084,0-5.484,1.136-7.203,3.406
				c-1.719,2.271-2.578,5.178-2.578,8.719v8.25c0,3.604,0.864,6.542,2.594,8.813c1.729,2.271,4.146,3.406,7.25,3.406
				c3.125,0,5.563-1.135,7.313-3.406c1.75-2.271,2.625-5.208,2.625-8.813V533.696z"/>
			<path fill="#FFFFFF" d="M605.176,545.54l0.063,0.188c0.083,4.855-1.396,8.657-4.438,11.407c-3.042,2.75-7.24,4.125-12.595,4.125
				c-5.459,0-9.865-1.755-13.22-5.266s-5.031-8.047-5.031-13.61v-9.032c0-5.542,1.636-10.079,4.906-13.61
				c3.271-3.532,7.563-5.297,12.876-5.297c5.542,0,9.876,1.354,13.001,4.063s4.646,6.521,4.563,11.438l-0.063,0.188h-8.875
				c0-2.917-0.704-5.089-2.11-6.516c-1.406-1.427-3.578-2.141-6.516-2.141c-2.729,0-4.859,1.099-6.391,3.297
				c-1.531,2.199-2.297,5.037-2.297,8.516v9.094c0,3.5,0.807,6.355,2.422,8.563c1.614,2.208,3.859,3.313,6.734,3.313
				c2.729,0,4.766-0.713,6.109-2.141c1.344-1.427,2.017-3.62,2.017-6.579H605.176z"/>
			<path fill="#FFFFFF" d="M637.773,540.602h-16.876v13h20.063v7h-29.189v-45.502h29.127v7.032h-20.001v11.438h16.876V540.602z"/>
			<path fill="#FFFFFF" d="M671.085,548.728c0-1.75-0.609-3.157-1.828-4.219s-3.359-2.063-6.422-3
				c-5.25-1.583-9.234-3.448-11.954-5.594c-2.719-2.146-4.078-5.073-4.078-8.781c0-3.729,1.531-6.776,4.594-9.141
				c3.063-2.365,6.97-3.547,11.72-3.547c5.042,0,9.099,1.271,12.173,3.813c3.072,2.542,4.557,5.875,4.453,10l-0.063,0.188h-8.845
				c0-2.271-0.688-4.016-2.063-5.235s-3.302-1.828-5.781-1.828c-2.25,0-3.99,0.542-5.219,1.625
				c-1.229,1.083-1.844,2.469-1.844,4.157c0,1.542,0.666,2.808,2,3.797c1.333,0.99,3.635,2.037,6.906,3.141
				c5,1.417,8.813,3.266,11.438,5.547s3.938,5.287,3.938,9.016c0,3.896-1.521,6.969-4.563,9.219
				c-3.042,2.25-7.063,3.375-12.063,3.375c-4.896,0-9.1-1.219-12.61-3.656c-3.511-2.438-5.214-6.073-5.109-10.907l0.063-0.188h8.845
				c0,2.688,0.791,4.667,2.375,5.938c1.583,1.271,3.729,1.906,6.438,1.906c2.438,0,4.297-0.51,5.578-1.531
				C670.445,551.801,671.085,550.436,671.085,548.728z"/>
			<path fill="#FFFFFF" d="M710.65,548.728c0-1.75-0.609-3.157-1.828-4.219s-3.359-2.063-6.422-3
				c-5.25-1.583-9.234-3.448-11.954-5.594c-2.719-2.146-4.078-5.073-4.078-8.781c0-3.729,1.531-6.776,4.594-9.141
				c3.063-2.365,6.97-3.547,11.72-3.547c5.042,0,9.099,1.271,12.173,3.813c3.072,2.542,4.557,5.875,4.453,10l-0.063,0.188H710.4
				c0-2.271-0.688-4.016-2.063-5.235s-3.302-1.828-5.781-1.828c-2.25,0-3.99,0.542-5.219,1.625
				c-1.229,1.083-1.844,2.469-1.844,4.157c0,1.542,0.666,2.808,2,3.797c1.333,0.99,3.635,2.037,6.906,3.141
				c5,1.417,8.813,3.266,11.438,5.547s3.938,5.287,3.938,9.016c0,3.896-1.521,6.969-4.563,9.219
				c-3.042,2.25-7.063,3.375-12.063,3.375c-4.896,0-9.1-1.219-12.61-3.656c-3.511-2.438-5.214-6.073-5.109-10.907l0.063-0.188h8.845
				c0,2.688,0.791,4.667,2.375,5.938c1.583,1.271,3.729,1.906,6.438,1.906c2.438,0,4.297-0.51,5.578-1.531
				C710.009,551.801,710.65,550.436,710.65,548.728z"/>
		</g>
	</g>
	<g>
		<rect x="125.202" y="671.308" fill="#70AF9D" width="659.811" height="139.313"/>
		<g>
			<path fill="#FFFFFF" d="M322.522,756.747h-14.75l-3.063,9.813h-9.532l15.345-45.502h9.344l15.282,45.502h-9.531L322.522,756.747z
				 M310.022,749.591h10.281l-5.031-16.032h-0.188L310.022,749.591z"/>
			<path fill="#FFFFFF" d="M375.056,721.058v29.783c0,5.125-1.698,9.137-5.094,12.032c-3.396,2.896-7.803,4.344-13.22,4.344
				c-5.396,0-9.776-1.448-13.142-4.344c-3.364-2.896-5.047-6.907-5.047-12.032v-29.783h9.157v29.783c0,3.042,0.813,5.365,2.438,6.97
				s3.822,2.406,6.594,2.406c2.813,0,5.042-0.802,6.688-2.406c1.646-1.604,2.47-3.928,2.47-6.97v-29.783H375.056z"/>
			<path fill="#FFFFFF" d="M382.962,766.56v-45.502h15.876c5.563,0,10.146,1.776,13.751,5.329c3.604,3.552,5.406,8.11,5.406,13.672
				v7.532c0,5.584-1.803,10.142-5.406,13.673c-3.604,3.531-8.188,5.297-13.751,5.297H382.962z M392.088,728.09v31.471h6.75
				c3,0,5.417-1.12,7.25-3.36c1.834-2.239,2.751-5.109,2.751-8.609v-7.594c0-3.479-0.917-6.333-2.751-8.563
				c-1.833-2.229-4.25-3.344-7.25-3.344H392.088z"/>
			<path fill="#FFFFFF" d="M435.06,766.56h-9.126v-45.502h9.126V766.56z"/>
			<path fill="#FFFFFF" d="M480.905,747.903c0,5.604-1.761,10.225-5.281,13.86c-3.521,3.636-8.105,5.453-13.751,5.453
				c-5.625,0-10.188-1.823-13.688-5.469c-3.5-3.646-5.25-8.261-5.25-13.845v-8.188c0-5.563,1.745-10.172,5.234-13.829
				c3.49-3.657,8.037-5.485,13.642-5.485c5.646,0,10.24,1.828,13.782,5.485c3.542,3.656,5.313,8.266,5.313,13.829V747.903z
				 M471.811,739.653c0-3.542-0.886-6.448-2.656-8.719c-1.771-2.271-4.22-3.406-7.345-3.406c-3.084,0-5.484,1.136-7.203,3.406
				c-1.719,2.271-2.578,5.178-2.578,8.719v8.25c0,3.604,0.864,6.542,2.594,8.813c1.729,2.271,4.146,3.407,7.25,3.407
				c3.125,0,5.563-1.136,7.313-3.407c1.75-2.271,2.625-5.208,2.625-8.813V739.653z"/>
			<path fill="#FFFFFF" d="M527.595,754.591h0.188l11.688-33.533h11.907v45.502h-9.126v-31.064l-0.188-0.031l-11.25,31.095h-6.188
				l-11.25-31.158l-0.188,0.031v31.126h-9.126v-45.502h11.97L527.595,754.591z"/>
			<path fill="#FFFFFF" d="M569.503,766.56h-9.126v-45.502h9.126V766.56z"/>
			<path fill="#FFFFFF" d="M595.16,737.184l8.531-16.126h10.626l-13.501,22.564l14.282,22.938h-11.031l-8.782-16.407l-8.781,16.407
				h-10.657l13.845-22.938l-13.501-22.564h10.563L595.16,737.184z"/>
		</g>
	</g>
	<g>
		<rect x="192.61" y="878.756" fill="#E6BD53" width="524.995" height="139.314"/>
		<g>
			<path fill="#FFFFFF" d="M365.04,954.723h-16.876v13.001h20.063v7h-29.189v-45.502h29.127v7.031h-20.001v11.438h16.876V954.723z"
				/>
			<path fill="#FFFFFF" d="M374.634,974.724v-45.502h15.876c5.563,0,10.146,1.776,13.751,5.328
				c3.604,3.553,5.406,8.109,5.406,13.673v7.531c0,5.584-1.803,10.142-5.406,13.673c-3.604,3.531-8.188,5.297-13.751,5.297H374.634z
				 M383.76,936.254v31.471h6.75c3,0,5.417-1.12,7.25-3.36c1.834-2.239,2.751-5.109,2.751-8.609v-7.594
				c0-3.479-0.917-6.334-2.751-8.563c-1.833-2.229-4.25-3.344-7.25-3.344H383.76z"/>
			<path fill="#FFFFFF" d="M426.731,974.724h-9.126v-45.502h9.126V974.724z"/>
			<path fill="#FFFFFF" d="M466.576,936.254h-13.001v38.471h-9.125v-38.471h-12.813v-7.031h34.939V936.254z"/>
			<path fill="#FFFFFF" d="M481.327,974.724h-9.126v-45.502h9.126V974.724z"/>
			<path fill="#FFFFFF" d="M527.173,956.067c0,5.604-1.761,10.225-5.281,13.86c-3.521,3.636-8.105,5.453-13.751,5.453
				c-5.625,0-10.188-1.823-13.688-5.469c-3.5-3.646-5.25-8.261-5.25-13.845v-8.188c0-5.563,1.745-10.173,5.234-13.829
				c3.49-3.656,8.037-5.484,13.642-5.484c5.646,0,10.24,1.828,13.782,5.484s5.313,8.266,5.313,13.829V956.067z M518.079,947.817
				c0-3.542-0.886-6.448-2.656-8.72c-1.771-2.271-4.22-3.406-7.345-3.406c-3.084,0-5.484,1.136-7.203,3.406
				c-1.719,2.271-2.578,5.178-2.578,8.72v8.25c0,3.604,0.864,6.542,2.594,8.813c1.729,2.271,4.146,3.407,7.25,3.407
				c3.125,0,5.563-1.136,7.313-3.407c1.75-2.271,2.625-5.208,2.625-8.813V947.817z"/>
			<path fill="#FFFFFF" d="M571.175,974.724h-9.125l-18.345-30.689l-0.188,0.031v30.658h-9.126v-45.502h9.126l18.345,30.657
				l0.188-0.031v-30.626h9.125V974.724z"/>
		</g>
	</g>
	<g>
		<rect x="160.589" y="1086.207" fill="#C55194" width="589.036" height="139.313"/>
		<g>
			<path fill="#FFFFFF" d="M354.492,1162.655v18.188h-9.126v-45.502h15.751c5.188,0,9.245,1.183,12.173,3.547
				c2.927,2.364,4.391,5.662,4.391,9.891c0,2.334-0.62,4.35-1.859,6.048c-1.24,1.698-3.047,3.067-5.422,4.109
				c2.688,0.792,4.619,2.114,5.797,3.969c1.177,1.854,1.766,4.146,1.766,6.875v3.345c0,1.271,0.172,2.599,0.516,3.984
				s0.932,2.411,1.766,3.078v0.656h-9.406c-0.834-0.667-1.371-1.771-1.61-3.313s-0.359-3.031-0.359-4.469v-3.22
				c0-2.271-0.62-4.036-1.859-5.297c-1.239-1.26-2.995-1.891-5.266-1.891H354.492z M354.492,1155.624h6.469
				c2.563,0,4.469-0.542,5.719-1.625s1.875-2.688,1.875-4.813c0-2.083-0.63-3.739-1.891-4.969c-1.261-1.229-3.109-1.844-5.547-1.844
				h-6.625V1155.624z"/>
			<path fill="#FFFFFF" d="M412.152,1160.843h-16.876v13.001h20.063v7H386.15v-45.502h29.127v7.031h-20.001v11.438h16.876V1160.843z
				"/>
			<path fill="#FFFFFF" d="M437.246,1168.499l0.563,2.5h0.188l0.531-2.406l9.907-33.251h9.625l-15.47,45.502h-9.375l-15.438-45.502
				h9.626L437.246,1168.499z"/>
			<path fill="#FFFFFF" d="M472.217,1180.844h-9.126v-45.502h9.126V1180.844z"/>
			<path fill="#FFFFFF" d="M507.25,1160.843h-16.876v13.001h20.063v7h-29.189v-45.502h29.127v7.031h-20.001v11.438h16.876V1160.843z
				"/>
			<path fill="#FFFFFF" d="M552.752,1166.218h0.188l6.031-30.876h9.407l-10.626,45.502h-8.469l-8.376-29.971h-0.188l-8.344,29.971
				h-8.469l-10.626-45.502h9.407l6.063,30.845h0.188l8.188-30.845h7.376L552.752,1166.218z"/>
		</g>
	</g>
	<g>
		<rect x="160.589" y="1293.427" fill="#262C31" width="589.036" height="139.314"/>
		<g>
			<path fill="#FFFFFF" d="M314.99,1388.066v-45.502h15.876c5.563,0,10.146,1.776,13.751,5.328
				c3.604,3.553,5.406,8.109,5.406,13.673v7.531c0,5.584-1.803,10.142-5.406,13.673c-3.604,3.531-8.188,5.297-13.751,5.297H314.99z
				 M324.116,1349.595v31.471h6.75c3,0,5.417-1.12,7.25-3.36c1.834-2.239,2.751-5.109,2.751-8.609v-7.594
				c0-3.479-0.917-6.334-2.751-8.563c-1.833-2.229-4.25-3.344-7.25-3.344H324.116z"/>
			<path fill="#FFFFFF" d="M383.338,1368.065h-16.876v13.001h20.063v7h-29.189v-45.502h29.127v7.031h-20.001v11.438h16.876V1368.065
				z"/>
			<path fill="#FFFFFF" d="M402.058,1381.066h20.376v7h-29.502v-45.502h9.126V1381.066z"/>
			<path fill="#FFFFFF" d="M438.247,1388.066h-9.126v-45.502h9.126V1388.066z"/>
			<path fill="#FFFFFF" d="M462.78,1375.721l0.563,2.5h0.188l0.531-2.406l9.907-33.251h9.625l-15.47,45.502h-9.375l-15.438-45.502
				h9.626L462.78,1375.721z"/>
			<path fill="#FFFFFF" d="M514.001,1368.065h-16.876v13.001h20.063v7h-29.189v-45.502h29.127v7.031h-20.001v11.438h16.876V1368.065
				z"/>
			<path fill="#FFFFFF" d="M532.721,1369.878v18.188h-9.126v-45.502h15.751c5.188,0,9.245,1.183,12.173,3.547
				c2.927,2.364,4.391,5.662,4.391,9.891c0,2.334-0.62,4.35-1.859,6.048c-1.24,1.698-3.047,3.067-5.422,4.109
				c2.688,0.792,4.619,2.114,5.797,3.969c1.177,1.854,1.766,4.146,1.766,6.875v3.345c0,1.271,0.172,2.599,0.516,3.984
				s0.932,2.411,1.766,3.078v0.656h-9.406c-0.834-0.667-1.371-1.771-1.61-3.313s-0.359-3.031-0.359-4.469v-3.22
				c0-2.271-0.62-4.036-1.859-5.297c-1.239-1.26-2.995-1.891-5.266-1.891H532.721z M532.721,1362.846h6.469
				c2.563,0,4.469-0.542,5.719-1.625s1.875-2.688,1.875-4.813c0-2.083-0.63-3.739-1.891-4.969c-1.261-1.229-3.109-1.844-5.547-1.844
				h-6.625V1362.846z"/>
			<path fill="#FFFFFF" d="M578.942,1363.534h0.188l9.938-20.97h10l-15.595,29.501v16.001h-9.125v-16.47l-15.345-29.032h10.001
				L578.942,1363.534z"/>
		</g>
	</g>
	<g>
		<path fill="none" stroke="#70AF9D" stroke-width="10" stroke-miterlimit="10" d="M205.932,118.619H24.322c-2.75,0-5,2.25-5,5
			v203.606c0,2.75,2.25,5,5,5H87.2"/>
	</g>
	<g>
		<path fill="none" stroke="#C55194" stroke-width="10" stroke-miterlimit="10" d="M46.196,539.673H24.322c-2.75,0-5,2.25-5,5
			v191.291c0,2.75,2.25,5,5,5h100.881"/>
	</g>
	<g>
		<path fill="none" stroke="#E6BD53" stroke-width="10" stroke-miterlimit="10" d="M192.61,948.076h-79.96c-2.75,0-5,2.25-5,5
			v197.785c0,2.75,2.25,5,5,5h47.939"/>
	</g>
	<g>
		<path fill="none" stroke="#C55194" stroke-width="10" stroke-miterlimit="10" d="M717.605,957.822h93.617c2.75,0,5,2.25,5,5
			v188.039c0,2.75-2.25,5-5,5h-61.597"/>
	</g>
	<g>
		<path fill="none" stroke="#E6BD53" stroke-width="10" stroke-miterlimit="10" d="M823.014,326.067h89.228c2.75,0,5,2.25,5,5
			v203.606c0,2.75-2.25,5-5,5h-48.225"/>
	</g>
	<g>
		<path fill="none" stroke="#70AF9D" stroke-width="10" stroke-miterlimit="10" d="M785.013,740.964h61.226c2.75,0,5,2.25,5,5
			v192.201c0,2.75-2.25,5-5,5H717.605"/>
	</g>
	<g>
		<circle fill="#C55194" cx="816.222" cy="1052.138" r="39.502"/>
		<g>
			<path fill="#FFFFFF" d="M833.566,1053.631c0.42,0,0.697,0.207,0.839,0.631c0.138,0.42-0.073,0.984-0.634,1.682
				c-1.684,2.525-4.209,5.441-7.571,8.736c-3.367,3.297-6.247,5.719-8.631,7.26c-1.263,0.842-3.018,1.404-5.264,1.684h-2.944
				c-2.106,0.141-3.861-0.492-5.262-1.895c-1.404-1.402-2.313-2.947-2.737-4.629c-0.284-0.982-0.419-2.594-0.419-4.84l0.211-1.682
				c0-0.563,0.316-1.969,0.943-4.213c0.634-2.242,1.511-4.275,2.632-6.102c1.684-2.807,3.438-5.055,5.264-6.734
				c0.7-0.701,1.476-0.914,2.313-0.633c0.142,0.143,0.425,0.143,0.847,0c0.42-0.137,0.769-0.209,1.05-0.209
				c0.279-0.139,0.771-0.213,1.473-0.213c0.981,0,2.107,0.496,3.37,1.475c1.399,1.404,2.104,2.525,2.104,3.369
				c0,0.563-0.354,1.545-1.055,2.945c-0.704,1.402-1.44,2.734-2.209,3.998c-0.772,1.266-1.513,2.525-2.211,3.791
				c-0.985,1.963-1.823,4.068-2.522,6.309c-0.284,1.828-0.355,3.232-0.213,4.211c0.137,0.842,0.633,1.053,1.475,0.631
				c0.979-0.561,1.857-1.082,2.628-1.578c0.771-0.49,1.438-0.873,2.003-1.156c1.399-0.982,4.483-3.857,9.255-8.629
				c1.825-1.822,3.018-2.947,3.58-3.367C832.443,1053.912,833,1053.631,833.566,1053.631z M827.041,1037.426
				c0,0.283-0.144,0.563-0.423,0.842c-0.281,0.283-0.632,0.42-1.053,0.42h-0.421l-5.68-1.262c-0.284-0.139-0.948-0.525-2.003-1.156
				c-1.05-0.633-1.928-1.088-2.627-1.369c-0.705-0.561-0.984-1.264-0.845-2.107c0.845-1.818,1.963-3.291,3.37-4.418
				c0.695-0.42,1.399-0.488,2.104-0.209l4.417,2.525c1.121,0.703,1.892,1.756,2.317,3.156c0.279,0.705,0.554,1.754,0.842,3.156
				V1037.426z"/>
		</g>
	</g>
	
		<line fill="none" stroke="#C55194" stroke-width="10" stroke-miterlimit="10" x1="455.107" y1="1018.07" x2="455.107" y2="1086.207"/>
	
		<line fill="none" stroke="#C55194" stroke-width="10" stroke-miterlimit="10" x1="455.107" y1="1225.24" x2="455.107" y2="1293.427"/>
</g>
</svg>
