<?xml version="1.0" encoding="utf-8"?>
<!-- Generator: Adobe Illustrator 16.0.0, SVG Export Plug-In . SVG Version: 6.00 Build 0)  -->
<!DOCTYPE svg PUBLIC "-//W3C//DTD SVG 1.1//EN" "http://www.w3.org/Graphics/SVG/1.1/DTD/svg11.dtd">
<svg version="1.1" id="Capa_1" xmlns="http://www.w3.org/2000/svg" xmlns:xlink="http://www.w3.org/1999/xlink" x="0px" y="0px"
	 width="283.465px" height="283.465px" viewBox="290.354 -24.235 283.465 283.465"
	 enable-background="new 290.354 -24.235 283.465 283.465" xml:space="preserve">
<g>
	<path fill="#73CBAF" d="M405.188,117.497c0,40.098-14.707,76.786-39.013,104.961h-14.781
		c19.428-29.49,30.883-65.717,30.883-104.961c0-39.244-11.455-75.47-30.883-104.96h14.782
		C390.56,40.71,405.188,77.4,405.188,117.497z"/>
	<path fill="#EFC351" d="M458.985,117.497c0,40.098-14.708,76.786-39.013,104.961h-14.785
		c19.429-29.492,30.886-65.717,30.886-104.961c0-39.244-11.457-75.47-30.886-104.96h14.786
		C444.355,40.71,458.985,77.4,458.985,117.497z"/>
	<path fill="#DD51A4" d="M512.78,117.497c0,40.098-14.705,76.786-39.012,104.961h-14.783c19.429-29.49,30.884-65.717,30.884-104.961
		c0-39.244-11.455-75.47-30.884-104.96h14.783C498.15,40.71,512.78,77.4,512.78,117.497z"/>
</g>
</svg>
