<?xml version="1.0" encoding="utf-8"?>
<!-- Generator: Adobe Illustrator 16.0.0, SVG Export Plug-In . SVG Version: 6.00 Build 0)  -->
<!DOCTYPE svg PUBLIC "-//W3C//DTD SVG 1.1//EN" "http://www.w3.org/Graphics/SVG/1.1/DTD/svg11.dtd">
<svg version="1.1" id="Capa_1" xmlns="http://www.w3.org/2000/svg" xmlns:xlink="http://www.w3.org/1999/xlink" x="0px" y="0px"
	 width="310px" height="87.23px" viewBox="273.587 0 310 87.23" enable-background="new 273.587 0 310 87.23" xml:space="preserve">
<g>
	<path fill="#73CBAF" d="M297.728,43.615c0,14.267-5.233,27.321-13.881,37.347h-5.26c6.913-10.494,10.989-23.383,10.989-37.347
		S285.5,16.762,278.587,6.269h5.26C292.523,16.293,297.728,29.348,297.728,43.615z"/>
	<path fill="#EFC351" d="M316.87,43.615c0,14.267-5.233,27.321-13.881,37.347h-5.261c6.913-10.494,10.99-23.383,10.99-37.347
		c0-13.964-4.077-26.854-10.99-37.347h5.261C311.665,16.293,316.87,29.348,316.87,43.615z"/>
	<path fill="#DD51A4" d="M336.011,43.615c0,14.267-5.232,27.321-13.881,37.347h-5.26c6.913-10.494,10.989-23.383,10.989-37.347
		s-4.076-26.854-10.989-37.347h5.26C330.806,16.293,336.011,29.348,336.011,43.615z"/>
	<g>
		<path fill="#FFFFFF" d="M374.98,40.056c1.313-0.17,2.192-0.719,2.637-1.653c0.254-0.507,0.38-1.238,0.38-2.191
			c0-1.948-0.693-3.363-2.081-4.242c-1.387-0.879-3.374-1.319-5.958-1.319c-2.987,0-5.106,0.805-6.355,2.414
			c-0.698,0.89-1.155,2.215-1.367,3.974H356.9c0.106-4.194,1.467-7.114,4.083-8.756c2.616-1.64,5.65-2.462,9.103-2.462
			c4.004,0,7.256,0.763,9.754,2.29c2.479,1.524,3.718,3.897,3.718,7.116V54.83c0,0.595,0.121,1.071,0.365,1.43
			c0.244,0.361,0.758,0.54,1.542,0.54c0.254,0,0.54-0.015,0.856-0.045c0.319-0.033,0.657-0.081,1.017-0.145v4.227
			c-0.89,0.254-1.568,0.414-2.034,0.477s-1.102,0.094-1.906,0.094c-1.97,0-3.4-0.698-4.291-2.097
			c-0.466-0.742-0.793-1.789-0.984-3.145c-1.165,1.524-2.839,2.85-5.021,3.972c-2.183,1.122-4.587,1.683-7.212,1.683
			c-3.157,0-5.735-0.958-7.737-2.875c-2.001-1.916-3.002-4.317-3.002-7.197c0-3.155,0.985-5.603,2.956-7.338
			c1.969-1.738,4.554-2.808,7.751-3.21L374.98,40.056z M362.938,55.529c1.208,0.953,2.638,1.43,4.29,1.43
			c2.011,0,3.96-0.466,5.846-1.397c3.177-1.545,4.766-4.078,4.766-7.595V43.36c-0.698,0.444-1.6,0.815-2.7,1.113
			c-1.103,0.295-2.183,0.507-3.241,0.634l-3.463,0.446c-2.076,0.276-3.634,0.708-4.671,1.301c-1.759,0.998-2.638,2.584-2.638,4.767
			C361.126,53.272,361.73,54.575,362.938,55.529z"/>
		<path fill="#FFFFFF" d="M397.816,26.87V49.46c0,1.739,0.275,3.158,0.826,4.258c1.017,2.033,2.912,3.05,5.688,3.05
			c3.981,0,6.693-1.78,8.135-5.337c0.782-1.907,1.175-4.522,1.175-7.848V26.87h5.719V60.9h-5.403l0.065-5.021
			c-0.743,1.292-1.665,2.384-2.765,3.274c-2.181,1.78-4.83,2.668-7.943,2.668c-4.851,0-8.155-1.621-9.914-4.861
			c-0.952-1.736-1.429-4.057-1.429-6.958V26.87H397.816z"/>
		<path fill="#FFFFFF" d="M426.831,26.87h5.434v6.638c0.444-1.144,1.535-2.536,3.272-4.177c1.736-1.643,3.738-2.465,6.005-2.465
			c0.106,0,0.287,0.012,0.54,0.034c0.256,0.022,0.689,0.063,1.304,0.126v6.037c-0.339-0.063-0.651-0.107-0.938-0.127
			c-0.285-0.022-0.598-0.032-0.937-0.032c-2.882,0-5.095,0.927-6.641,2.781c-1.547,1.852-2.32,3.986-2.32,6.401v19.573h-5.719V26.87
			L426.831,26.87z"/>
		<path fill="#FFFFFF" d="M465.801,39.895c1.313-0.171,2.191-0.72,2.637-1.653c0.254-0.507,0.38-1.238,0.38-2.191
			c0-1.948-0.692-3.363-2.081-4.242c-1.387-0.879-3.373-1.319-5.958-1.319c-2.986,0-5.104,0.805-6.354,2.415
			c-0.699,0.89-1.155,2.215-1.367,3.973h-5.337c0.105-4.195,1.467-7.114,4.083-8.756c2.615-1.64,5.649-2.462,9.103-2.462
			c4.004,0,7.255,0.763,9.755,2.29c2.479,1.524,3.718,3.896,3.718,7.116v19.604c0,0.595,0.121,1.071,0.365,1.43
			c0.244,0.361,0.757,0.541,1.541,0.541c0.253,0,0.54-0.016,0.857-0.046c0.317-0.033,0.656-0.081,1.017-0.145v4.227
			c-0.89,0.253-1.568,0.413-2.034,0.477c-0.466,0.063-1.101,0.094-1.905,0.094c-1.97,0-3.4-0.697-4.29-2.097
			c-0.466-0.741-0.794-1.789-0.984-3.144c-1.166,1.524-2.839,2.849-5.021,3.971c-2.182,1.122-4.587,1.684-7.212,1.684
			c-3.156,0-5.735-0.957-7.736-2.875c-2.002-1.916-3.003-4.316-3.003-7.197c0-3.155,0.985-5.602,2.955-7.338
			c1.969-1.739,4.555-2.808,7.753-3.21L465.801,39.895z M453.758,55.368c1.207,0.953,2.637,1.43,4.289,1.43
			c2.012,0,3.961-0.466,5.847-1.397c3.177-1.546,4.767-4.078,4.767-7.595v-4.607c-0.699,0.444-1.601,0.816-2.701,1.113
			c-1.103,0.295-2.183,0.508-3.241,0.634l-3.463,0.446c-2.077,0.275-3.633,0.709-4.671,1.301c-1.758,0.998-2.638,2.585-2.638,4.767
			C451.946,53.111,452.55,54.415,453.758,55.368z"/>
		<path fill="#FFFFFF" d="M484.065,17.59h5.783v9.203h5.433v4.671h-5.433v22.506c0,1.185,0.401,1.981,1.207,2.381
			c0.444,0.234,1.187,0.35,2.225,0.35c0.274,0,0.571-0.004,0.89-0.016c0.317-0.011,0.688-0.037,1.111-0.079v4.512
			c-0.656,0.19-1.34,0.328-2.049,0.413c-0.71,0.083-1.477,0.127-2.304,0.127c-2.67,0-4.479-0.682-5.434-2.048
			c-0.953-1.367-1.431-3.141-1.431-5.322V31.465h-4.606v-4.671h4.606L484.065,17.59L484.065,17.59z"/>
		<rect x="503.154" y="14.984" fill="#FFFFFF" width="5.814" height="6.481"/>
		<rect x="503.154" y="26.794" fill="#FFFFFF" width="5.814" height="34.865"/>
		<path fill="#FFFFFF" d="M517.162,14.984h5.496v27.102l15.463-15.24h7.309l-13.811,13.525l13.758,21.288h-7.309l-10.611-17.157
			l-4.798,4.384v12.772h-5.496L517.162,14.984L517.162,14.984z"/>
		<path fill="#FFFFFF" d="M566.229,39.895c1.313-0.171,2.191-0.72,2.637-1.653c0.253-0.507,0.38-1.238,0.38-2.191
			c0-1.948-0.692-3.363-2.081-4.242c-1.387-0.879-3.373-1.319-5.958-1.319c-2.986,0-5.104,0.805-6.354,2.415
			c-0.699,0.89-1.154,2.215-1.367,3.973h-5.338c0.106-4.195,1.468-7.114,4.084-8.756c2.615-1.64,5.649-2.462,9.103-2.462
			c4.004,0,7.255,0.763,9.755,2.29c2.479,1.524,3.717,3.896,3.717,7.116v19.604c0,0.595,0.122,1.071,0.365,1.43
			c0.244,0.361,0.758,0.541,1.542,0.541c0.253,0,0.54-0.016,0.856-0.046c0.318-0.033,0.656-0.081,1.017-0.145v4.227
			c-0.89,0.253-1.567,0.413-2.034,0.477c-0.465,0.063-1.101,0.094-1.904,0.094c-1.971,0-3.4-0.697-4.291-2.097
			c-0.466-0.741-0.794-1.789-0.984-3.144c-1.165,1.524-2.839,2.849-5.021,3.971c-2.182,1.122-4.587,1.684-7.213,1.684
			c-3.156,0-5.734-0.957-7.736-2.875c-2.002-1.916-3.002-4.316-3.002-7.197c0-3.155,0.985-5.602,2.955-7.338
			c1.97-1.739,4.554-2.808,7.753-3.21L566.229,39.895z M554.187,55.368c1.207,0.953,2.637,1.43,4.289,1.43
			c2.012,0,3.961-0.466,5.846-1.397c3.179-1.546,4.767-4.078,4.767-7.595v-4.607c-0.699,0.444-1.6,0.816-2.7,1.113
			c-1.103,0.295-2.183,0.508-3.241,0.634l-3.464,0.446c-2.076,0.275-3.634,0.709-4.67,1.301c-1.759,0.998-2.638,2.585-2.638,4.767
			C552.375,53.111,552.979,54.415,554.187,55.368z"/>
	</g>
</g>
</svg>
