<?xml version="1.0" encoding="utf-8"?>
<!-- Generator: Adobe Illustrator 16.0.0, SVG Export Plug-In . SVG Version: 6.00 Build 0)  -->
<!DOCTYPE svg PUBLIC "-//W3C//DTD SVG 1.1//EN" "http://www.w3.org/Graphics/SVG/1.1/DTD/svg11.dtd">
<svg version="1.1" id="Capa_1" xmlns="http://www.w3.org/2000/svg" xmlns:xlink="http://www.w3.org/1999/xlink" x="0px" y="0px"
	 width="16px" height="16px" viewBox="0 0 16 16" enable-background="new 0 0 16 16" xml:space="preserve">
<path fill="#211915" d="M8,15c-3.866,0-7-3.135-7-7c0-3.866,3.134-7,7-7s7,3.134,7,7C15,11.865,11.866,15,8,15z M8,16
	c4.418,0,8-3.582,8-8c0-4.418-3.582-8-8-8C3.582,0,0,3.582,0,8C0,12.418,3.582,16,8,16z"/>
<path fill="#211915" d="M6.271,5.055c0.167-0.086,0.368-0.071,0.52,0.038l3.5,2.5c0.225,0.16,0.277,0.473,0.117,0.697
	c-0.033,0.045-0.072,0.084-0.117,0.116l-3.5,2.5c-0.225,0.162-0.537,0.109-0.698-0.115C6.033,10.707,6,10.604,6,10.5v-5
	C6,5.313,6.104,5.141,6.271,5.055z"/>
</svg>
