<?xml version="1.0" encoding="utf-8"?>
<!-- Generator: Adobe Illustrator 16.0.0, SVG Export Plug-In . SVG Version: 6.00 Build 0)  -->
<!DOCTYPE svg PUBLIC "-//W3C//DTD SVG 1.1//EN" "http://www.w3.org/Graphics/SVG/1.1/DTD/svg11.dtd">
<svg version="1.1" id="Capa_1" xmlns="http://www.w3.org/2000/svg" fill="#f10f0f" xmlns:xlink="http://www.w3.org/1999/xlink" x="0px" y="0px"
	 width="32px" height="32px" viewBox="584 584 32 32" enable-background="new 584 584 32 32" xml:space="preserve">
<g>
	<path d="M600,586c7.72,0,14,6.28,14,14s-6.28,14-14,14s-14-6.28-14-14S592.28,586,600,586 M600,584c-8.837,0-16,7.163-16,16
		c0,8.837,7.163,16,16,16c8.838,0,16-7.163,16-16C616,591.163,608.838,584,600,584L600,584z"/>
</g>
<g>
	<path d="M600,597.467c0.832,0,1.5,0.669,1.5,1.5v7c0,0.832-0.668,1.5-1.5,1.5c-0.832,0-1.5-0.668-1.5-1.5v-7
		C598.5,598.136,599.168,597.467,600,597.467z"/>
	<circle cx="600" cy="594.533" r="2"/>
</g>
</svg>
