<?xml version="1.0" encoding="utf-8"?>
<!-- Generator: Adobe Illustrator 16.0.0, SVG Export Plug-In . SVG Version: 6.00 Build 0)  -->
<!DOCTYPE svg PUBLIC "-//W3C//DTD SVG 1.1//EN" "http://www.w3.org/Graphics/SVG/1.1/DTD/svg11.dtd">
<svg version="1.1" id="Capa_1" xmlns="http://www.w3.org/2000/svg" xmlns:xlink="http://www.w3.org/1999/xlink" x="0px" y="0px"
	 width="936.563px" height="1569.174px" viewBox="0 0 936.563 1569.174" enable-background="new 0 0 936.563 1569.174"
	 xml:space="preserve">
<g>
	<g>
		<rect x="207.534" y="45.768" fill="#70AF9D" width="500.648" height="139.957"/>
		<g>
			<path fill="#FFFFFF" d="M345.543,127.639h-14.818l-3.077,9.857h-9.575l15.415-45.713h9.39l15.353,45.713h-9.576L345.543,127.639z
				 M332.985,120.449h10.329l-5.055-16.104h-0.188L332.985,120.449z"/>
			<path fill="#FFFFFF" d="M399.576,137.498h-9.168l-18.431-30.832l-0.188,0.031v30.801h-9.168V91.785h9.168l18.429,30.799
				l0.188-0.029v-30.77h9.169L399.576,137.498L399.576,137.498z"/>
			<path fill="#FFFFFF" d="M432.384,127.639h-14.818l-3.077,9.857h-9.573l15.415-45.713h9.388l15.353,45.713h-9.576L432.384,127.639
				z M419.826,120.449h10.327l-5.055-16.104h-0.188L419.826,120.449z"/>
			<path fill="#FFFFFF" d="M458.632,130.465h20.47v7.033h-29.638V91.785h9.168V130.465z"/>
			<path fill="#FFFFFF" d="M494.988,137.498h-9.168V91.785h9.168V137.498z"/>
			<path fill="#FFFFFF" d="M527.89,125.566c0-1.758-0.612-3.17-1.836-4.238c-1.227-1.064-3.375-2.072-6.452-3.014
				c-5.274-1.59-9.277-3.463-12.009-5.619c-2.732-2.156-4.1-5.098-4.1-8.822c0-3.746,1.539-6.809,4.615-9.184
				c3.077-2.375,7.002-3.564,11.773-3.564c5.063,0,9.142,1.277,12.229,3.832c3.088,2.555,4.579,5.902,4.477,10.045l-0.063,0.189
				h-8.885c0-2.281-0.69-4.035-2.072-5.26c-1.381-1.227-3.317-1.836-5.808-1.836c-2.263,0-4.011,0.545-5.243,1.633
				c-1.235,1.088-1.854,2.479-1.854,4.176c0,1.549,0.67,2.82,2.011,3.814c1.34,0.992,3.65,2.047,6.938,3.152
				c5.023,1.424,8.854,3.281,11.491,5.574c2.638,2.291,3.956,5.311,3.956,9.057c0,3.914-1.528,7.002-4.584,9.264
				c-3.058,2.262-7.097,3.391-12.118,3.391c-4.919,0-9.142-1.225-12.669-3.672c-3.527-2.449-5.238-6.104-5.133-10.957l0.063-0.189
				h8.887c0,2.699,0.796,4.689,2.387,5.967c1.59,1.275,3.746,1.916,6.468,1.916c2.448,0,4.316-0.516,5.604-1.539
				C527.246,128.655,527.89,127.283,527.89,125.566z"/>
			<path fill="#FFFFFF" d="M553.604,137.498h-9.168V91.785h9.168V137.498z"/>
			<path fill="#FFFFFF" d="M586.506,125.566c0-1.758-0.612-3.17-1.836-4.238c-1.227-1.064-3.375-2.072-6.452-3.014
				c-5.274-1.59-9.277-3.463-12.011-5.619c-2.73-2.156-4.098-5.098-4.098-8.822c0-3.746,1.539-6.809,4.615-9.184
				c3.077-2.375,7.002-3.564,11.771-3.564c5.065,0,9.144,1.277,12.229,3.832c3.088,2.555,4.579,5.902,4.475,10.045l-0.063,0.189
				h-8.886c0-2.281-0.689-4.035-2.071-5.26c-1.381-1.227-3.317-1.836-5.81-1.836c-2.261,0-4.009,0.545-5.242,1.633
				c-1.234,1.088-1.854,2.479-1.854,4.176c0,1.549,0.67,2.82,2.009,3.814c1.341,0.992,3.652,2.047,6.938,3.152
				c5.021,1.424,8.854,3.281,11.49,5.574c2.639,2.291,3.956,5.311,3.956,9.057c0,3.914-1.527,7.002-4.584,9.264
				s-7.097,3.391-12.117,3.391c-4.92,0-9.144-1.225-12.67-3.672c-3.526-2.449-5.237-6.104-5.133-10.957l0.063-0.189h8.885
				c0,2.699,0.796,4.689,2.388,5.967c1.591,1.275,3.745,1.916,6.469,1.916c2.447,0,4.314-0.516,5.604-1.539
				C585.864,128.655,586.506,127.283,586.506,125.566z"/>
		</g>
	</g>
	<g>
		<rect x="88.257" y="254.176" fill="#E6BD53" width="739.209" height="139.959"/>
		<g>
			<path fill="#FFFFFF" d="M171.799,333.504l0.063,0.188c0.084,4.877-1.4,8.697-4.458,11.459c-3.056,2.764-7.271,4.146-12.65,4.146
				c-5.484,0-9.911-1.764-13.28-5.289c-3.37-3.527-5.055-8.084-5.055-13.676v-9.07c0-5.568,1.643-10.125,4.929-13.674
				s7.598-5.322,12.938-5.322c5.565,0,9.921,1.359,13.061,4.082c3.14,2.721,4.667,6.551,4.584,11.49l-0.063,0.188h-8.916
				c0-2.93-0.705-5.111-2.118-6.547s-3.597-2.15-6.546-2.15c-2.742,0-4.884,1.105-6.423,3.313c-1.536,2.209-2.308,5.061-2.308,8.555
				v9.137c0,3.52,0.813,6.387,2.435,8.604c1.621,2.219,3.877,3.328,6.767,3.328c2.742,0,4.788-0.717,6.138-2.152
				c1.353-1.432,2.025-3.635,2.025-6.605h8.882v-0.004H171.799z"/>
			<path fill="#FFFFFF" d="M187.592,330.361v18.273h-9.168v-45.713h15.823c5.212,0,9.288,1.188,12.229,3.563
				s4.411,5.688,4.411,9.938c0,2.344-0.623,4.367-1.867,6.074c-1.246,1.705-3.062,3.082-5.447,4.127
				c2.699,0.799,4.643,2.125,5.823,3.988c1.184,1.863,1.774,4.166,1.774,6.906v3.359c0,1.275,0.173,2.609,0.518,4.004
				c0.348,1.393,0.938,2.422,1.774,3.092v0.66h-9.45c-0.838-0.67-1.377-1.779-1.617-3.328c-0.241-1.549-0.359-3.045-0.359-4.49
				v-3.234c0-2.277-0.623-4.055-1.868-5.318c-1.245-1.267-3.009-1.9-5.29-1.9H187.592L187.592,330.361z M187.592,323.299h6.499
				c2.574,0,4.489-0.543,5.745-1.633c1.256-1.088,1.884-2.699,1.884-4.836c0-2.092-0.634-3.756-1.899-4.99
				c-1.267-1.234-3.124-1.854-5.571-1.854h-6.655L187.592,323.299L187.592,323.299z"/>
			<path fill="#FFFFFF" d="M245.517,328.541h-16.953v13.063h20.156v7.033h-29.324v-45.713h29.263v7.063h-20.095v11.49h16.953
				V328.541z"/>
			<path fill="#FFFFFF" d="M278.984,338.775h-14.816l-3.077,9.859h-9.575l15.415-45.713h9.388l15.354,45.713h-9.576L278.984,338.775
				z M266.427,331.588h10.329l-5.055-16.105h-0.188L266.427,331.588z"/>
			<path fill="#FFFFFF" d="M330.003,333.504l0.063,0.188c0.084,4.877-1.4,8.697-4.458,11.459c-3.056,2.764-7.271,4.146-12.65,4.146
				c-5.484,0-9.911-1.764-13.28-5.289c-3.37-3.527-5.055-8.084-5.055-13.676v-9.07c0-5.568,1.643-10.125,4.929-13.674
				s7.598-5.322,12.936-5.322c5.567,0,9.921,1.359,13.063,4.082c3.14,2.721,4.667,6.551,4.584,11.49l-0.063,0.188h-8.916
				c0-2.93-0.706-5.111-2.117-6.547c-1.413-1.436-3.597-2.15-6.548-2.15c-2.74,0-4.882,1.105-6.421,3.313
				c-1.538,2.209-2.308,5.061-2.308,8.555v9.137c0,3.52,0.812,6.387,2.434,8.604s3.877,3.328,6.768,3.328
				c2.742,0,4.788-0.717,6.138-2.152c1.352-1.432,2.025-3.635,2.025-6.605h8.882v-0.004H330.003z"/>
			<path fill="#FFFFFF" d="M346.423,348.635h-9.168v-45.713h9.168V348.635z"/>
			<path fill="#FFFFFF" d="M392.48,329.891c0,5.631-1.769,10.271-5.306,13.924c-3.538,3.652-8.145,5.479-13.814,5.479
				c-5.649,0-10.233-1.83-13.751-5.494c-3.517-3.662-5.273-8.299-5.273-13.908v-8.225c0-5.592,1.753-10.223,5.26-13.895
				c3.505-3.674,8.073-5.512,13.704-5.512c5.672,0,10.287,1.838,13.846,5.512c3.56,3.672,5.337,8.303,5.337,13.895L392.48,329.891
				L392.48,329.891z M383.344,321.602c0-3.557-0.89-6.479-2.668-8.758c-1.779-2.281-4.238-3.424-7.378-3.424
				c-3.099,0-5.511,1.143-7.237,3.424c-1.726,2.279-2.59,5.201-2.59,8.758v8.289c0,3.621,0.868,6.572,2.605,8.854
				c1.735,2.282,4.165,3.424,7.282,3.424c3.142,0,5.591-1.143,7.349-3.424c1.758-2.279,2.637-5.23,2.637-8.854V321.602
				L383.344,321.602z M375.244,289.391h10.201l0.063,0.188l-8.697,8.164h-7.815L375.244,289.391z"/>
			<path fill="#FFFFFF" d="M436.686,348.635h-9.168l-18.429-30.832l-0.188,0.031v30.801h-9.168v-45.713h9.168l18.429,30.799
				l0.188-0.031v-30.768h9.168V348.635z"/>
			<path fill="#FFFFFF" d="M461.111,348.635v-45.713h15.949c5.588,0,10.192,1.783,13.813,5.354c3.62,3.568,5.433,8.146,5.433,13.734
				v7.564c0,5.611-1.813,10.189-5.433,13.736c-3.62,3.549-8.227,5.322-13.813,5.322L461.111,348.635L461.111,348.635z
				 M470.279,309.986v31.615h6.781c3.014,0,5.441-1.125,7.284-3.375c1.841-2.25,2.763-5.133,2.763-8.65v-7.629
				c0-3.494-0.922-6.359-2.763-8.602c-1.843-2.24-4.271-3.359-7.284-3.359H470.279z"/>
			<path fill="#FFFFFF" d="M529.774,328.541h-16.953v13.063h20.156v7.033h-29.324v-45.713h29.261v7.063h-20.093v11.49h16.953
				V328.541z"/>
			<path fill="#FFFFFF" d="M548.579,341.602h20.472v7.033h-29.64v-45.713h9.168V341.602L548.579,341.602z"/>
			<path fill="#FFFFFF" d="M626.191,342.387c-1.424,1.861-3.548,3.479-6.374,4.85c-2.825,1.371-6.467,2.059-10.926,2.059
				c-5.525,0-10.046-1.736-13.563-5.211c-3.517-3.477-5.272-7.984-5.272-13.531v-9.545c0-5.525,1.705-10.031,5.117-13.518
				c3.409-3.482,7.797-5.229,13.153-5.229c5.588,0,9.868,1.324,12.842,3.973c2.973,2.648,4.404,6.18,4.302,10.596l-0.063,0.189
				h-8.634c0-2.428-0.701-4.318-2.104-5.668c-1.402-1.35-3.442-2.025-6.121-2.025c-2.808,0-5.065,1.084-6.782,3.25
				c-1.716,2.166-2.574,4.955-2.574,8.367v9.607c0,3.453,0.879,6.268,2.638,8.443c1.76,2.18,4.112,3.268,7.063,3.268
				c2.177,0,3.897-0.223,5.165-0.66c1.266-0.439,2.245-0.994,2.936-1.664v-8.854H608.2v-6.342h17.99V342.387L626.191,342.387z"/>
			<path fill="#FFFFFF" d="M670.208,302.924v29.92c0,5.146-1.706,9.18-5.117,12.088c-3.412,2.91-7.839,4.363-13.28,4.363
				c-5.421,0-9.822-1.453-13.202-4.363c-3.381-2.908-5.07-6.939-5.07-12.088v-29.92h9.199v29.92c0,3.057,0.816,5.391,2.448,7.002
				c1.633,1.609,3.841,2.418,6.625,2.418c2.825,0,5.063-0.809,6.719-2.418c1.653-1.611,2.48-3.945,2.48-7.002v-29.92H670.208z"/>
			<path fill="#FFFFFF" d="M687.947,348.635h-9.168v-45.713h9.168V348.635z"/>
			<path fill="#FFFFFF" d="M734.005,329.891c0,5.631-1.771,10.271-5.308,13.924c-3.538,3.652-8.143,5.479-13.813,5.479
				c-5.651,0-10.235-1.83-13.751-5.494c-3.519-3.662-5.275-8.299-5.275-13.908v-8.225c0-5.592,1.753-10.223,5.26-13.895
				c3.506-3.674,8.073-5.512,13.704-5.512c5.672,0,10.287,1.838,13.848,5.512c3.558,3.672,5.337,8.303,5.337,13.895L734.005,329.891
				L734.005,329.891z M724.866,321.602c0-3.557-0.89-6.479-2.668-8.758c-1.777-2.281-4.236-3.424-7.378-3.424
				c-3.099,0-5.511,1.143-7.235,3.424c-1.728,2.279-2.592,5.201-2.592,8.758v8.289c0,3.621,0.868,6.572,2.605,8.854
				c1.736,2.282,4.165,3.424,7.284,3.424c3.14,0,5.589-1.143,7.347-3.424c1.758-2.279,2.637-5.23,2.637-8.854V321.602
				L724.866,321.602z M716.769,289.391h10.203l0.063,0.188l-8.695,8.164h-7.817L716.769,289.391z"/>
			<path fill="#FFFFFF" d="M778.21,348.635h-9.168l-18.431-30.832l-0.188,0.031v30.801h-9.168v-45.713h9.168l18.429,30.799
				l0.188-0.031v-30.768h9.169L778.21,348.635L778.21,348.635z"/>
		</g>
	</g>
	<g>
		<rect x="47.062" y="462.582" fill="#C55194" width="821.596" height="139.957"/>
		<g>
			<path fill="#FFFFFF" d="M115.836,543.191v16.578h-9.168v-45.713h17.485c5.256,0,9.39,1.34,12.401,4.02
				c3.015,2.68,4.521,6.205,4.521,10.58s-1.509,7.893-4.521,10.549c-3.014,2.658-7.146,3.986-12.401,3.986H115.836L115.836,543.191z
				 M115.836,536.131h8.317c2.556,0,4.49-0.697,5.811-2.09c1.318-1.393,1.978-3.166,1.978-5.32c0-2.197-0.652-4.016-1.962-5.447
				c-1.309-1.434-3.25-2.15-5.824-2.15h-8.317L115.836,536.131L115.836,536.131z"/>
			<path fill="#FFFFFF" d="M156.808,541.496v18.273h-9.168v-45.713h15.823c5.212,0,9.288,1.188,12.229,3.563
				s4.411,5.688,4.411,9.938c0,2.344-0.623,4.369-1.867,6.076c-1.246,1.705-3.062,3.082-5.445,4.127
				c2.697,0.797,4.641,2.125,5.821,3.986c1.184,1.863,1.774,4.166,1.774,6.906v3.359c0,1.275,0.173,2.609,0.518,4.004
				c0.348,1.393,0.938,2.422,1.774,3.092v0.66h-9.45c-0.838-0.67-1.377-1.779-1.617-3.328c-0.239-1.549-0.359-3.045-0.359-4.49
				v-3.232c0-2.279-0.623-4.057-1.868-5.32s-3.009-1.9-5.29-1.9H156.808L156.808,541.496z M156.808,534.432h6.499
				c2.574,0,4.489-0.543,5.745-1.631s1.884-2.701,1.884-4.836c0-2.094-0.634-3.756-1.897-4.992
				c-1.269-1.234-3.124-1.854-5.573-1.854h-6.655L156.808,534.432L156.808,534.432z"/>
			<path fill="#FFFFFF" d="M225.596,541.025c0,5.631-1.769,10.271-5.306,13.924c-3.538,3.652-8.145,5.479-13.814,5.479
				c-5.649,0-10.233-1.83-13.751-5.494c-3.517-3.662-5.273-8.299-5.273-13.908v-8.225c0-5.59,1.753-10.223,5.26-13.895
				c3.505-3.674,8.073-5.512,13.704-5.512c5.672,0,10.287,1.838,13.846,5.512c3.558,3.672,5.337,8.305,5.337,13.895L225.596,541.025
				L225.596,541.025z M216.459,532.736c0-3.557-0.892-6.477-2.668-8.758c-1.779-2.281-4.238-3.424-7.378-3.424
				c-3.101,0-5.513,1.143-7.237,3.424s-2.59,5.201-2.59,8.758v8.289c0,3.621,0.868,6.572,2.604,8.854
				c1.737,2.28,4.165,3.422,7.284,3.422c3.14,0,5.589-1.143,7.347-3.422c1.76-2.281,2.639-5.232,2.639-8.854V532.736
				L216.459,532.736z"/>
			<path fill="#FFFFFF" d="M267.132,544.637l0.063,0.188c0.084,4.877-1.4,8.697-4.458,11.459c-3.056,2.766-7.271,4.146-12.65,4.146
				c-5.484,0-9.911-1.763-13.28-5.289c-3.37-3.527-5.055-8.084-5.055-13.674v-9.072c0-5.568,1.643-10.125,4.929-13.674
				c3.286-3.547,7.598-5.322,12.937-5.322c5.566,0,9.922,1.361,13.062,4.082s4.667,6.551,4.584,11.49l-0.063,0.188h-8.916
				c0-2.93-0.705-5.109-2.118-6.547c-1.413-1.434-3.597-2.149-6.546-2.149c-2.742,0-4.884,1.104-6.423,3.313
				c-1.536,2.209-2.308,5.061-2.308,8.555v9.139c0,3.518,0.813,6.385,2.435,8.604s3.878,3.328,6.767,3.328
				c2.742,0,4.788-0.717,6.138-2.152c1.353-1.432,2.025-3.635,2.025-6.605h8.882v-0.006H267.132z"/>
			<path fill="#FFFFFF" d="M299.878,539.677h-16.953v13.061h20.156v7.033h-29.324v-45.713h29.261v7.063h-20.093v11.49h16.953
				V539.677z"/>
			<path fill="#FFFFFF" d="M333.346,547.84c0-1.76-0.612-3.17-1.836-4.238c-1.225-1.066-3.375-2.072-6.452-3.014
				c-5.272-1.592-9.277-3.465-12.009-5.619c-2.732-2.156-4.098-5.1-4.098-8.822c0-3.746,1.539-6.809,4.613-9.184
				c3.077-2.375,7.002-3.564,11.773-3.564c5.063,0,9.142,1.277,12.229,3.832c3.09,2.553,4.579,5.902,4.477,10.045l-0.063,0.189
				h-8.885c0-2.281-0.689-4.035-2.072-5.262c-1.381-1.225-3.315-1.836-5.808-1.836c-2.261,0-4.009,0.545-5.243,1.633
				c-1.235,1.09-1.853,2.48-1.853,4.178c0,1.549,0.67,2.818,2.009,3.813c1.34,0.994,3.65,2.047,6.938,3.154
				c5.023,1.424,8.854,3.281,11.491,5.574c2.638,2.291,3.956,5.311,3.956,9.057c0,3.914-1.528,7.002-4.584,9.262
				c-3.056,2.264-7.096,3.393-12.118,3.393c-4.919,0-9.142-1.227-12.669-3.672c-3.527-2.449-5.238-6.104-5.133-10.957l0.063-0.189
				h8.887c0,2.699,0.796,4.689,2.387,5.965c1.59,1.277,3.746,1.916,6.468,1.916c2.448,0,4.316-0.514,5.604-1.539
				C332.704,550.927,333.346,549.555,333.346,547.84z"/>
			<path fill="#FFFFFF" d="M386.248,541.025c0,5.631-1.771,10.271-5.308,13.924c-3.538,3.652-8.143,5.479-13.813,5.479
				c-5.651,0-10.235-1.83-13.751-5.494c-3.519-3.662-5.275-8.299-5.275-13.908v-8.225c0-5.59,1.753-10.223,5.26-13.895
				c3.507-3.674,8.073-5.512,13.704-5.512c5.672,0,10.287,1.838,13.848,5.512c3.558,3.672,5.337,8.305,5.337,13.895L386.248,541.025
				L386.248,541.025z M377.111,532.736c0-3.557-0.89-6.477-2.668-8.758c-1.777-2.281-4.236-3.424-7.378-3.424
				c-3.099,0-5.511,1.143-7.235,3.424c-1.728,2.281-2.592,5.201-2.592,8.758v8.289c0,3.621,0.868,6.572,2.605,8.854
				c1.737,2.28,4.165,3.422,7.284,3.422c3.14,0,5.589-1.143,7.347-3.422c1.758-2.281,2.637-5.232,2.637-8.854V532.736z"/>
			<path fill="#FFFFFF" d="M409.513,559.77v-45.713h15.949c5.588,0,10.19,1.785,13.813,5.354c3.62,3.568,5.431,8.146,5.431,13.734
				v7.566c0,5.609-1.811,10.188-5.431,13.734c-3.622,3.549-8.227,5.322-13.813,5.322L409.513,559.77L409.513,559.77z
				 M418.681,521.121v31.615h6.781c3.014,0,5.439-1.125,7.282-3.375s2.765-5.133,2.765-8.65v-7.629c0-3.494-0.922-6.359-2.765-8.602
				c-1.843-2.24-4.271-3.359-7.282-3.359H418.681L418.681,521.121z"/>
			<path fill="#FFFFFF" d="M478.175,539.677h-16.953v13.061h20.156v7.033h-29.324v-45.713h29.261v7.063h-20.093v11.49h16.953
				V539.677z"/>
			<path fill="#FFFFFF" d="M512.991,552.736h20.472v7.033h-29.64v-45.713h9.168V552.736z"/>
			<path fill="#FFFFFF" d="M575.754,541.025c0,5.631-1.771,10.271-5.308,13.924c-3.538,3.652-8.143,5.479-13.813,5.479
				c-5.651,0-10.235-1.83-13.751-5.494c-3.519-3.662-5.275-8.299-5.275-13.908v-8.225c0-5.59,1.753-10.223,5.26-13.895
				c3.505-3.674,8.073-5.512,13.704-5.512c5.672,0,10.287,1.838,13.847,5.512c3.559,3.672,5.338,8.305,5.338,13.895L575.754,541.025
				L575.754,541.025z M566.615,532.736c0-3.557-0.89-6.477-2.668-8.758c-1.777-2.281-4.236-3.424-7.378-3.424
				c-3.099,0-5.511,1.143-7.236,3.424c-1.727,2.281-2.591,5.201-2.591,8.758v8.289c0,3.621,0.868,6.572,2.605,8.854
				c1.735,2.28,4.165,3.422,7.284,3.422c3.14,0,5.589-1.143,7.347-3.422c1.758-2.281,2.637-5.232,2.637-8.854V532.736
				L566.615,532.736z"/>
			<path fill="#FFFFFF" d="M617.288,544.637l0.063,0.188c0.084,4.877-1.402,8.697-4.458,11.459
				c-3.056,2.766-7.273,4.146-12.652,4.146c-5.482,0-9.911-1.763-13.278-5.289c-3.37-3.527-5.057-8.084-5.057-13.674v-9.072
				c0-5.568,1.645-10.125,4.931-13.674c3.284-3.547,7.598-5.322,12.936-5.322c5.567,0,9.921,1.361,13.061,4.082
				c3.142,2.721,4.667,6.551,4.584,11.49l-0.063,0.188h-8.916c0-2.93-0.706-5.109-2.119-6.547c-1.413-1.434-3.595-2.149-6.546-2.149
				c-2.742,0-4.882,1.104-6.421,3.313c-1.538,2.209-2.31,5.061-2.31,8.555v9.139c0,3.518,0.813,6.385,2.436,8.604
				s3.877,3.328,6.766,3.328c2.742,0,4.788-0.717,6.14-2.152c1.351-1.432,2.023-3.635,2.023-6.605h8.882L617.288,544.637
				L617.288,544.637z"/>
			<path fill="#FFFFFF" d="M660.146,514.057v29.92c0,5.146-1.706,9.18-5.117,12.088c-3.412,2.91-7.839,4.363-13.28,4.363
				c-5.421,0-9.82-1.453-13.2-4.363c-3.383-2.908-5.07-6.938-5.07-12.088v-29.92h9.199v29.92c0,3.057,0.814,5.391,2.446,7.002
				c1.635,1.611,3.843,2.418,6.625,2.418c2.825,0,5.064-0.807,6.721-2.418c1.651-1.611,2.479-3.945,2.479-7.002v-29.92H660.146z"/>
			<path fill="#FFFFFF" d="M702.371,544.637l0.063,0.188c0.084,4.877-1.402,8.697-4.458,11.459
				c-3.056,2.766-7.273,4.146-12.652,4.146c-5.482,0-9.911-1.763-13.278-5.289c-3.37-3.527-5.057-8.084-5.057-13.674v-9.072
				c0-5.568,1.645-10.125,4.931-13.674c3.284-3.547,7.598-5.322,12.936-5.322c5.567,0,9.921,1.361,13.061,4.082
				c3.142,2.721,4.667,6.551,4.584,11.49l-0.063,0.188h-8.916c0-2.93-0.706-5.109-2.119-6.547c-1.413-1.434-3.595-2.149-6.546-2.149
				c-2.742,0-4.882,1.104-6.421,3.313c-1.538,2.209-2.31,5.061-2.31,8.555v9.139c0,3.518,0.813,6.385,2.436,8.604
				s3.877,3.328,6.766,3.328c2.742,0,4.788-0.717,6.139-2.152c1.352-1.432,2.024-3.635,2.024-6.605h8.882L702.371,544.637
				L702.371,544.637z"/>
			<path fill="#FFFFFF" d="M718.793,559.77h-9.169v-45.713h9.169V559.77z"/>
			<path fill="#FFFFFF" d="M764.851,541.025c0,5.631-1.771,10.271-5.306,13.924c-3.538,3.652-8.145,5.479-13.814,5.479
				c-5.651,0-10.235-1.83-13.751-5.494c-3.517-3.662-5.275-8.299-5.275-13.908v-8.225c0-5.59,1.753-10.223,5.262-13.895
				c3.505-3.674,8.071-5.512,13.703-5.512c5.673,0,10.286,1.838,13.847,5.512c3.558,3.672,5.337,8.305,5.337,13.895L764.851,541.025
				L764.851,541.025z M755.714,532.736c0-3.557-0.892-6.477-2.668-8.758c-1.779-2.281-4.238-3.424-7.38-3.424
				c-3.099,0-5.511,1.143-7.235,3.424c-1.728,2.281-2.59,5.201-2.59,8.758v8.289c0,3.621,0.866,6.572,2.604,8.854
				c1.737,2.28,4.165,3.422,7.284,3.422c3.14,0,5.589-1.143,7.347-3.422c1.758-2.281,2.639-5.232,2.639-8.854V532.736
				L755.714,532.736z M747.614,500.525h10.203l0.063,0.188l-8.697,8.164h-7.817L747.614,500.525z"/>
			<path fill="#FFFFFF" d="M809.056,559.77h-9.168l-18.43-30.832l-0.188,0.031v30.801h-9.168v-45.713h9.168l18.429,30.799
				l0.188-0.031v-30.768h9.168L809.056,559.77L809.056,559.77z"/>
		</g>
	</g>
	<g>
		<rect x="126.433" y="670.988" fill="#70AF9D" width="662.855" height="139.955"/>
		<g>
			<path fill="#FFFFFF" d="M212.676,754.652h0.188l11.742-33.688h11.962v45.713h-9.167V735.47l-0.188-0.033l-11.303,31.24h-6.219
				l-11.302-31.305l-0.188,0.031v31.271h-9.168v-45.713h12.022L212.676,754.652z"/>
			<path fill="#FFFFFF" d="M271.104,746.584H254.15v13.063h20.156v7.033h-29.324v-45.713h29.263v7.063H254.15v11.49h16.953
				L271.104,746.584L271.104,746.584z"/>
			<path fill="#FFFFFF" d="M289.753,759.645h20.973v7.033h-31.771v-4.773l20.344-33.875h-20.313v-7.063h31.207v4.584
				L289.753,759.645z"/>
			<path fill="#FFFFFF" d="M350.724,751.547l0.063,0.188c0.084,4.877-1.402,8.697-4.458,11.459
				c-3.058,2.764-7.273,4.146-12.652,4.146c-5.484,0-9.911-1.764-13.28-5.289c-3.37-3.527-5.055-8.084-5.055-13.676v-9.07
				c0-5.568,1.643-10.125,4.929-13.674s7.6-5.322,12.938-5.322c5.565,0,9.921,1.359,13.061,4.082
				c3.142,2.721,4.667,6.551,4.584,11.489l-0.063,0.188h-8.916c0-2.93-0.706-5.111-2.119-6.547c-1.413-1.435-3.595-2.15-6.546-2.15
				c-2.742,0-4.882,1.105-6.421,3.313c-1.538,2.209-2.31,5.061-2.31,8.555v9.138c0,3.519,0.813,6.386,2.436,8.604
				s3.877,3.328,6.766,3.328c2.742,0,4.788-0.717,6.138-2.152c1.353-1.432,2.025-3.635,2.025-6.605h8.882L350.724,751.547
				L350.724,751.547z"/>
			<path fill="#FFFFFF" d="M366.517,759.645h20.47v7.033h-29.638v-45.713h9.168V759.645z"/>
			<path fill="#FFFFFF" d="M417.502,756.818h-14.818l-3.077,9.859h-9.573l15.413-45.713h9.39l15.353,45.713h-9.576L417.502,756.818z
				 M404.944,749.631h10.329l-5.055-16.105h-0.188L404.944,749.631z"/>
			<path fill="#FFFFFF" d="M450.594,766.678v-45.713h15.949c5.588,0,10.19,1.783,13.813,5.354c3.62,3.568,5.431,8.146,5.431,13.734
				v7.564c0,5.611-1.811,10.189-5.431,13.736c-3.622,3.549-8.227,5.322-13.813,5.322L450.594,766.678L450.594,766.678z
				 M459.762,728.029v31.615h6.781c3.014,0,5.439-1.125,7.282-3.375s2.765-5.133,2.765-8.65v-7.629c0-3.494-0.922-6.361-2.765-8.602
				s-4.271-3.359-7.282-3.359H459.762L459.762,728.029z"/>
			<path fill="#FFFFFF" d="M519.257,746.584h-16.953v13.063h20.156v7.033h-29.324v-45.713h29.261v7.063h-20.093v11.49h16.953
				V746.584z"/>
			<path fill="#FFFFFF" d="M568.736,756.818h-14.816l-3.077,9.859h-9.575l15.415-45.713h9.388l15.354,45.713h-9.576L568.736,756.818
				z M556.179,749.631h10.329l-5.057-16.105h-0.188L556.179,749.631z"/>
			<path fill="#FFFFFF" d="M621.513,720.967v29.92c0,5.146-1.706,9.18-5.117,12.088c-3.412,2.91-7.839,4.363-13.28,4.363
				c-5.421,0-9.82-1.453-13.202-4.363c-3.381-2.908-5.068-6.939-5.068-12.088v-29.92h9.197v29.92c0,3.057,0.816,5.391,2.448,7.002
				c1.633,1.609,3.841,2.418,6.625,2.418c2.825,0,5.064-0.809,6.72-2.418c1.652-1.611,2.479-3.945,2.479-7.002v-29.92H621.513z"/>
			<path fill="#FFFFFF" d="M629.454,766.678v-45.713h15.949c5.588,0,10.192,1.783,13.814,5.354c3.62,3.568,5.431,8.146,5.431,13.734
				v7.564c0,5.611-1.811,10.189-5.431,13.736c-3.622,3.549-8.229,5.322-13.814,5.322L629.454,766.678L629.454,766.678z
				 M638.624,728.029v31.615h6.779c3.016,0,5.441-1.125,7.284-3.375c1.841-2.25,2.763-5.133,2.763-8.65v-7.629
				c0-3.494-0.922-6.361-2.763-8.602c-1.843-2.24-4.271-3.359-7.284-3.359H638.624L638.624,728.029z"/>
			<path fill="#FFFFFF" d="M681.793,766.678h-9.169v-45.713h9.169V766.678z"/>
			<path fill="#FFFFFF" d="M727.851,747.934c0,5.631-1.771,10.271-5.306,13.924c-3.538,3.652-8.145,5.479-13.814,5.479
				c-5.651,0-10.235-1.83-13.751-5.494c-3.517-3.662-5.275-8.299-5.275-13.908v-8.225c0-5.592,1.753-10.223,5.262-13.895
				c3.505-3.674,8.071-5.512,13.703-5.512c5.673,0,10.286,1.838,13.847,5.512c3.558,3.672,5.337,8.303,5.337,13.895L727.851,747.934
				L727.851,747.934z M718.714,739.645c0-3.557-0.892-6.477-2.668-8.758c-1.779-2.281-4.238-3.424-7.38-3.424
				c-3.099,0-5.511,1.143-7.235,3.424c-1.728,2.281-2.59,5.201-2.59,8.758v8.289c0,3.621,0.866,6.572,2.604,8.854
				c1.737,2.282,4.165,3.424,7.284,3.424c3.14,0,5.589-1.143,7.347-3.424c1.758-2.279,2.639-5.23,2.639-8.854V739.645
				L718.714,739.645z"/>
		</g>
	</g>
	<g>
		<rect x="194.151" y="879.395" fill="#E6BD53" width="527.419" height="139.955"/>
		<g>
			<path fill="#FFFFFF" d="M364.915,955.713h-16.953v13.061h20.156v7.033h-29.324v-45.713h29.261v7.063h-20.093v11.49h16.953
				V955.713z"/>
			<path fill="#FFFFFF" d="M374.554,975.805v-45.713h15.949c5.588,0,10.19,1.784,13.813,5.354c3.62,3.568,5.433,8.146,5.433,13.734
				v7.564c0,5.611-1.813,10.189-5.433,13.736c-3.622,3.549-8.227,5.322-13.813,5.322L374.554,975.805L374.554,975.805z
				 M383.722,937.156v31.615h6.781c3.014,0,5.439-1.125,7.284-3.375c1.841-2.25,2.763-5.133,2.763-8.65v-7.629
				c0-3.494-0.922-6.359-2.763-8.602c-1.845-2.24-4.271-3.359-7.284-3.359H383.722L383.722,937.156z"/>
			<path fill="#FFFFFF" d="M426.891,975.805h-9.168v-45.713h9.168V975.805z"/>
			<path fill="#FFFFFF" d="M470.246,960.674l0.063,0.188c0.084,4.877-1.402,8.697-4.458,11.459
				c-3.056,2.764-7.273,4.146-12.652,4.146c-5.482,0-9.911-1.764-13.278-5.289c-3.37-3.527-5.057-8.084-5.057-13.674v-9.072
				c0-5.568,1.645-10.125,4.931-13.674c3.284-3.549,7.598-5.322,12.936-5.322c5.567,0,9.921,1.361,13.062,4.082
				s4.666,6.551,4.585,11.49l-0.063,0.188h-8.916c0-2.93-0.706-5.111-2.119-6.547s-3.595-2.15-6.546-2.15
				c-2.742,0-4.882,1.105-6.421,3.313c-1.538,2.209-2.308,5.061-2.308,8.555v9.137c0,3.52,0.812,6.387,2.434,8.604
				s3.877,3.328,6.766,3.328c2.742,0,4.788-0.717,6.14-2.152c1.351-1.432,2.023-3.635,2.023-6.605h8.882v-0.004H470.246z"/>
			<path fill="#FFFFFF" d="M486.669,975.805h-9.168v-45.713h9.168V975.805z"/>
			<path fill="#FFFFFF" d="M532.727,957.061c0,5.631-1.769,10.271-5.306,13.924c-3.538,3.652-8.145,5.479-13.814,5.479
				c-5.651,0-10.235-1.83-13.751-5.494c-3.517-3.662-5.275-8.299-5.275-13.908v-8.225c0-5.592,1.753-10.223,5.262-13.895
				c3.505-3.674,8.071-5.512,13.702-5.512c5.674,0,10.287,1.838,13.848,5.512c3.558,3.672,5.337,8.303,5.337,13.895L532.727,957.061
				L532.727,957.061z M523.59,948.771c0-3.557-0.892-6.477-2.668-8.758c-1.779-2.281-4.238-3.424-7.378-3.424
				c-3.101,0-5.513,1.143-7.237,3.424c-1.728,2.281-2.59,5.201-2.59,8.758v8.289c0,3.621,0.868,6.572,2.604,8.854
				c1.737,2.282,4.165,3.424,7.284,3.424c3.14,0,5.589-1.143,7.347-3.424c1.76-2.279,2.639-5.23,2.639-8.854V948.771z
				 M515.49,916.561h10.203l0.063,0.188l-8.697,8.164h-7.817L515.49,916.561z"/>
			<path fill="#FFFFFF" d="M576.932,975.805h-9.168l-18.429-30.832l-0.188,0.031v30.801h-9.168v-45.713h9.168l18.429,30.799
				l0.188-0.031v-30.768h9.168V975.805z"/>
		</g>
	</g>
	<g>
		<rect x="161.983" y="1087.802" fill="#C55194" width="591.755" height="139.957"/>
		<g>
			<path fill="#FFFFFF" d="M328.873,1164.6v18.271h-9.168v-45.713h15.821c5.212,0,9.288,1.188,12.229,3.564
				c2.938,2.375,4.411,5.688,4.411,9.936c0,2.345-0.623,4.369-1.867,6.076c-1.246,1.705-3.063,3.082-5.447,4.127
				c2.699,0.797,4.643,2.125,5.823,3.988s1.774,4.166,1.774,6.906v3.357c0,1.277,0.173,2.611,0.518,4.004
				c0.346,1.395,0.937,2.423,1.774,3.094v0.659h-9.45c-0.838-0.671-1.377-1.778-1.617-3.327c-0.241-1.55-0.361-3.046-0.361-4.49
				v-3.234c0-2.278-0.623-4.055-1.868-5.318c-1.243-1.267-3.009-1.9-5.29-1.9H328.873L328.873,1164.6z M328.873,1157.535h6.499
				c2.572,0,4.487-0.543,5.745-1.631c1.256-1.088,1.884-2.701,1.884-4.836c0-2.092-0.634-3.756-1.899-4.992
				c-1.267-1.232-3.124-1.852-5.573-1.852h-6.653L328.873,1157.535L328.873,1157.535z"/>
			<path fill="#FFFFFF" d="M386.798,1162.779h-16.953v13.063h20.156v7.031h-29.324v-45.713h29.261v7.064h-20.093v11.49h16.953
				V1162.779z"/>
			<path fill="#FFFFFF" d="M412.009,1170.471l0.565,2.512h0.188l0.533-2.418l9.951-33.404h9.671l-15.54,45.713h-9.419
				l-15.512-45.713h9.672L412.009,1170.471z"/>
			<path fill="#FFFFFF" d="M447.142,1182.873h-9.168v-45.713h9.168V1182.873z"/>
			<path fill="#FFFFFF" d="M480.043,1170.941c0-1.758-0.612-3.17-1.838-4.238c-1.225-1.064-3.375-2.07-6.45-3.014
				c-5.274-1.59-9.277-3.463-12.011-5.619c-2.73-2.156-4.098-5.098-4.098-8.822c0-3.746,1.539-6.809,4.615-9.184
				c3.077-2.375,7.002-3.564,11.771-3.564c5.065,0,9.144,1.277,12.229,3.832c3.088,2.555,4.579,5.902,4.475,10.047l-0.063,0.188
				h-8.886c0-2.281-0.689-4.035-2.071-5.26c-1.381-1.225-3.317-1.836-5.81-1.836c-2.261,0-4.009,0.545-5.241,1.633
				c-1.235,1.088-1.854,2.48-1.854,4.176c0,1.549,0.67,2.82,2.009,3.814c1.34,0.994,3.652,2.047,6.938,3.154
				c5.021,1.424,8.854,3.279,11.491,5.572c2.638,2.291,3.955,5.313,3.955,9.059c0,3.914-1.527,7.002-4.584,9.262
				c-3.057,2.262-7.097,3.391-12.117,3.391c-4.919,0-9.144-1.225-12.669-3.672c-3.527-2.449-5.238-6.102-5.135-10.957l0.063-0.188
				h8.885c0,2.697,0.796,4.688,2.387,5.965c1.592,1.276,3.746,1.916,6.47,1.916c2.446,0,4.314-0.516,5.604-1.539
				C479.401,1174.03,480.043,1172.658,480.043,1170.941z"/>
			<path fill="#FFFFFF" d="M505.757,1182.873h-9.168v-45.713h9.168V1182.873z"/>
			<path fill="#FFFFFF" d="M551.814,1164.131c0,5.631-1.769,10.271-5.306,13.924c-3.538,3.65-8.145,5.479-13.814,5.479
				c-5.651,0-10.235-1.83-13.751-5.494c-3.517-3.66-5.275-8.299-5.275-13.906v-8.227c0-5.59,1.755-10.221,5.262-13.893
				c3.505-3.674,8.072-5.512,13.704-5.512c5.672,0,10.286,1.838,13.846,5.512c3.558,3.672,5.337,8.303,5.337,13.893
				L551.814,1164.131L551.814,1164.131z M542.678,1155.842c0-3.559-0.892-6.479-2.668-8.76c-1.779-2.279-4.238-3.424-7.378-3.424
				c-3.101,0-5.513,1.145-7.237,3.424c-1.726,2.281-2.59,5.201-2.59,8.76v8.287c0,3.621,0.868,6.572,2.604,8.854
				c1.737,2.282,4.165,3.422,7.284,3.422c3.14,0,5.589-1.141,7.347-3.422c1.76-2.281,2.639-5.232,2.639-8.854V1155.842
				L542.678,1155.842z M534.576,1123.631h10.203l0.063,0.188l-8.697,8.164h-7.817L534.576,1123.631z"/>
			<path fill="#FFFFFF" d="M596.021,1182.873h-9.168l-18.429-30.832l-0.188,0.031v30.801h-9.168v-45.713h9.168l18.429,30.799
				l0.188-0.029v-30.77h9.168V1182.873z"/>
		</g>
	</g>
	<g>
		<rect x="161.983" y="1295.979" fill="#262C31" width="591.755" height="139.957"/>
		<g>
			<path fill="#FFFFFF" d="M349.405,1370.959h-16.951v13.063h20.154v7.033h-29.322v-45.713h29.261v7.063h-20.093v11.49h16.951
				V1370.959z"/>
			<path fill="#FFFFFF" d="M395.997,1391.053h-9.168l-18.431-30.832l-0.188,0.03v30.802h-9.168v-45.713h9.168l18.429,30.799
				l0.188-0.031v-30.768h9.168L395.997,1391.053L395.997,1391.053z"/>
			<path fill="#FFFFFF" d="M435.366,1352.404h-13.062v38.648h-9.167v-38.648h-12.872v-7.063h35.101V1352.404z"/>
			<path fill="#FFFFFF" d="M449.559,1372.779v18.273h-9.168v-45.713h15.823c5.212,0,9.288,1.188,12.229,3.563
				s4.411,5.688,4.411,9.938c0,2.344-0.623,4.369-1.867,6.076c-1.246,1.703-3.062,3.082-5.447,4.127
				c2.699,0.797,4.643,2.125,5.823,3.986c1.184,1.863,1.774,4.166,1.774,6.906v3.359c0,1.275,0.173,2.609,0.518,4.004
				c0.348,1.393,0.938,2.422,1.774,3.092v0.66h-9.45c-0.838-0.67-1.377-1.779-1.617-3.328c-0.241-1.549-0.359-3.045-0.359-4.49V1380
				c0-2.277-0.623-4.055-1.868-5.318s-3.011-1.9-5.29-1.9L449.559,1372.779L449.559,1372.779z M449.559,1365.717h6.499
				c2.574,0,4.489-0.543,5.745-1.633c1.256-1.088,1.884-2.699,1.884-4.836c0-2.092-0.634-3.756-1.899-4.99
				c-1.267-1.234-3.124-1.854-5.571-1.854h-6.655L449.559,1365.717L449.559,1365.717z"/>
			<path fill="#FFFFFF" d="M507.483,1370.959H490.53v13.063h20.156v7.033h-29.324v-45.713h29.261v7.063H490.53v11.49h16.953
				V1370.959z"/>
			<path fill="#FFFFFF" d="M552.158,1384.805c-1.424,1.863-3.548,3.479-6.374,4.85c-2.824,1.371-6.467,2.059-10.926,2.059
				c-5.525,0-10.046-1.736-13.563-5.212c-3.519-3.476-5.274-7.983-5.274-13.53v-9.545c0-5.525,1.705-10.031,5.117-13.518
				c3.411-3.482,7.797-5.229,13.155-5.229c5.588,0,9.866,1.323,12.841,3.973c2.972,2.648,4.403,6.181,4.301,10.596l-0.063,0.189
				h-8.635c0-2.428-0.701-4.318-2.104-5.668c-1.403-1.351-3.443-2.025-6.122-2.025c-2.807,0-5.065,1.084-6.782,3.25
				c-1.716,2.166-2.574,4.955-2.574,8.367v9.607c0,3.452,0.879,6.268,2.64,8.443c1.758,2.179,4.11,3.268,7.063,3.268
				c2.177,0,3.898-0.223,5.165-0.66c1.268-0.439,2.245-0.994,2.938-1.664v-8.854h-8.791v-6.342h17.988L552.158,1384.805
				L552.158,1384.805z"/>
			<path fill="#FFFFFF" d="M583.775,1381.193h-14.818l-3.075,9.859h-9.575l15.415-45.713h9.388l15.354,45.713h-9.576
				L583.775,1381.193z M571.218,1374.006h10.329l-5.057-16.105h-0.188L571.218,1374.006z"/>
		</g>
	</g>
	<g>
		<path fill="none" stroke="#70AF9D" stroke-width="10" stroke-miterlimit="10" d="M207.534,115.746H25.063c-2.75,0-5,2.25-5,5
			V325.34c0,2.75,2.25,5,5,5h63.193"/>
	</g>
	<g>
		<path fill="none" stroke="#C55194" stroke-width="10" stroke-miterlimit="10" d="M47.062,538.744H25.063c-2.75,0-5,2.25-5,5
			v192.223c0,2.75,2.25,5,5,5h101.369"/>
	</g>
	<g>
		<path fill="none" stroke="#E6BD53" stroke-width="10" stroke-miterlimit="10" d="M194.151,949.031H113.8c-2.75,0-5,2.25-5,5
			v198.746c0,2.75,2.25,5,5,5h48.184"/>
	</g>
	<g>
		<path fill="none" stroke="#C55194" stroke-width="10" stroke-miterlimit="10" d="M721.57,958.824h94.071c2.75,0,5,2.25,5,5
			v188.953c0,2.75-2.25,5-5,5h-61.903"/>
	</g>
	<g>
		<path fill="none" stroke="#E6BD53" stroke-width="10" stroke-miterlimit="10" d="M827.466,324.152h89.663c2.75,0,5,2.25,5,5
			v204.592c0,2.75-2.25,5-5,5h-48.474"/>
	</g>
	<g>
		<path fill="none" stroke="#70AF9D" stroke-width="10" stroke-miterlimit="10" d="M789.288,740.967h61.529c2.75,0,5,2.25,5,5V939.1
			c0,2.75-2.25,5-5,5H721.57"/>
	</g>
	<g>
		<circle fill="#C55194" cx="820.644" cy="1053.576" r="39.685"/>
		<g>
			<path fill="#FFFFFF" d="M838.065,1055.074c0.423,0,0.701,0.209,0.844,0.635c0.14,0.426-0.07,0.988-0.637,1.689
				c-1.691,2.535-4.229,5.465-7.606,8.777c-3.383,3.311-6.274,5.744-8.671,7.291c-1.27,0.846-3.029,1.412-5.287,1.689h-2.959
				c-2.113,0.145-3.879-0.494-5.282-1.9c-1.411-1.408-2.324-2.962-2.751-4.65c-0.285-0.986-0.423-2.607-0.423-4.863l0.214-1.688
				c0-0.564,0.316-1.979,0.945-4.229c0.639-2.256,1.521-4.297,2.646-6.133c1.689-2.82,3.455-5.076,5.288-6.767
				c0.703-0.702,1.48-0.916,2.323-0.636c0.144,0.145,0.428,0.145,0.851,0c0.422-0.137,0.771-0.211,1.055-0.211
				c0.281-0.139,0.774-0.213,1.48-0.213c0.983,0,2.116,0.498,3.385,1.479c1.406,1.411,2.115,2.536,2.115,3.388
				c0,0.563-0.356,1.551-1.063,2.957c-0.706,1.407-1.442,2.748-2.218,4.018c-0.777,1.271-1.521,2.537-2.221,3.811
				c-0.99,1.971-1.833,4.088-2.535,6.338c-0.285,1.834-0.355,3.246-0.215,4.229c0.139,0.847,0.637,1.061,1.481,0.638
				c0.983-0.563,1.864-1.091,2.643-1.589c0.771-0.49,1.441-0.877,2.011-1.161c1.406-0.983,4.505-3.873,9.297-8.668
				c1.834-1.829,3.032-2.962,3.598-3.384C836.938,1055.357,837.496,1055.074,838.065,1055.074z M831.512,1038.797
				c0,0.283-0.146,0.563-0.425,0.846c-0.283,0.285-0.637,0.422-1.061,0.422h-0.422l-5.705-1.268
				c-0.287-0.141-0.953-0.527-2.012-1.162c-1.059-0.637-1.938-1.094-2.643-1.375c-0.707-0.563-0.987-1.271-0.848-2.117
				c0.848-1.826,1.971-3.309,3.385-4.438c0.699-0.423,1.406-0.491,2.115-0.212l4.438,2.537c1.127,0.707,1.9,1.766,2.327,3.172
				c0.28,0.707,0.559,1.764,0.848,3.171L831.512,1038.797L831.512,1038.797z"/>
		</g>
	</g>
	
		<line fill="none" stroke="#C55194" stroke-width="10" stroke-miterlimit="10" x1="457.861" y1="1019.35" x2="457.861" y2="1087.802"/>
	
		<line fill="none" stroke="#C55194" stroke-width="10" stroke-miterlimit="10" x1="457.861" y1="1227.477" x2="457.861" y2="1295.979"/>
</g>
<g>
	<path fill="#FFFFFF" d="M427.942,77.75h11.108l0.067,0.205l-9.468,8.887h-8.511L427.942,77.75z"/>
</g>
<g>
	<g>
		<path fill="#C55194" d="M716.764,1515.801c0,17.706-14.354,32.058-32.062,32.058c-17.702,0-32.056-14.352-32.056-32.058
			s14.354-32.058,32.056-32.058C702.41,1483.743,716.764,1498.094,716.764,1515.801z"/>
		<g>
			<path fill="#FFFFFF" d="M698.781,1517.011c0.341,0,0.563,0.168,0.681,0.512c0.11,0.341-0.06,0.798-0.511,1.365
				c-1.367,2.05-3.421,4.414-6.152,7.091c-2.73,2.675-5.067,4.64-7,5.892c-1.026,0.683-2.449,1.14-4.272,1.367h-2.389
				c-1.709,0.112-3.132-0.399-4.268-1.539c-1.143-1.138-1.879-2.393-2.224-3.757c-0.231-0.796-0.342-2.105-0.342-3.928l0.172-1.366
				c0-0.457,0.257-1.597,0.768-3.417c0.515-1.82,1.223-3.471,2.133-4.952c1.367-2.277,2.792-4.1,4.271-5.466
				c0.569-0.568,1.197-0.742,1.878-0.513c0.114,0.115,0.342,0.115,0.688,0c0.339-0.111,0.624-0.17,0.854-0.17
				c0.221-0.113,0.623-0.174,1.194-0.174c0.796,0,1.708,0.403,2.734,1.196c1.136,1.142,1.707,2.05,1.707,2.734
				c0,0.457-0.286,1.254-0.856,2.392c-0.571,1.138-1.169,2.22-1.792,3.244c-0.63,1.025-1.227,2.05-1.793,3.075
				c-0.799,1.593-1.481,3.304-2.048,5.122c-0.231,1.481-0.286,2.621-0.172,3.418c0.109,0.683,0.511,0.853,1.193,0.511
				c0.799-0.453,1.508-0.88,2.135-1.28c0.625-0.397,1.165-0.71,1.626-0.939c1.136-0.797,3.644-3.13,7.512-7.002
				c1.481-1.479,2.447-2.392,2.906-2.735C697.866,1517.239,698.32,1517.011,698.781,1517.011z M693.487,1503.859
				c0,0.229-0.119,0.457-0.345,0.683c-0.228,0.231-0.512,0.344-0.854,0.344h-0.34l-4.614-1.026
				c-0.228-0.109-0.766-0.426-1.622-0.939c-0.854-0.511-1.568-0.881-2.133-1.11c-0.571-0.455-0.799-1.024-0.685-1.709
				c0.685-1.478,1.593-2.673,2.734-3.585c0.567-0.341,1.136-0.397,1.705-0.172l3.587,2.051c0.912,0.572,1.537,1.427,1.878,2.561
				c0.228,0.573,0.453,1.425,0.688,2.563V1503.859z"/>
		</g>
	</g>
	<g>
		<g>
			<path fill="#C55194" d="M747.71,1514.497h-18.498v-4.728h18.498V1514.497z M747.71,1523.395h-18.498v-4.729h18.498V1523.395z"/>
			<path fill="#C55194" d="M767.428,1502.564H761.4v-4.521h6.028V1502.564z M767.428,1530.249H761.4v-22.338h6.028V1530.249z"/>
			<path fill="#C55194" d="M778.34,1502.44v5.471h3.777v4.232h-3.777v11.375c0,0.867,0.182,1.486,0.547,1.858
				c0.364,0.371,0.843,0.558,1.435,0.558c0.316,0,0.592-0.018,0.826-0.052c0.233-0.034,0.502-0.093,0.805-0.176l0.496,4.356
				c-0.606,0.206-1.194,0.361-1.766,0.464c-0.571,0.104-1.194,0.155-1.868,0.155c-2.078,0-3.679-0.571-4.8-1.714
				c-1.122-1.142-1.683-2.952-1.683-5.43v-11.396h-3.262v-4.232h3.262v-5.471H778.34z"/>
			<path fill="#C55194" d="M794.247,1530.682c-3.33,0-5.932-1.021-7.804-3.065c-1.871-2.044-2.808-4.677-2.808-7.896v-0.826
				c0-3.345,0.909-6.083,2.726-8.217c1.816-2.133,4.314-3.192,7.494-3.179c3,0,5.302,0.918,6.905,2.756
				c1.604,1.837,2.405,4.312,2.405,7.422v3.117h-13.315l-0.063,0.124c0.097,1.527,0.561,2.766,1.394,3.716
				c0.833,0.949,2.067,1.425,3.706,1.425c1.349,0,2.494-0.138,3.438-0.413c0.942-0.275,1.916-0.695,2.921-1.26l1.631,3.716
				c-0.895,0.73-2.105,1.343-3.634,1.838C797.716,1530.434,796.05,1530.682,794.247,1530.682z M793.856,1512.143
				c-1.212,0-2.145,0.417-2.798,1.249c-0.653,0.833-1.05,1.938-1.187,3.313l0.041,0.104h7.35v-0.454
				c0-1.308-0.269-2.336-0.806-3.087C795.92,1512.518,795.053,1512.143,793.856,1512.143z"/>
			<path fill="#C55194" d="M817.154,1513.094l-2.209-0.063c-0.895,0-1.631,0.186-2.209,0.558c-0.578,0.371-1.019,0.895-1.321,1.569
				v15.091h-6.007v-22.338h5.595l0.268,3.304c0.523-1.17,1.201-2.082,2.034-2.735c0.832-0.653,1.792-0.98,2.88-0.98
				c0.303,0,0.581,0.023,0.836,0.072c0.255,0.048,0.513,0.106,0.774,0.175L817.154,1513.094z"/>
			<path fill="#C55194" d="M832.195,1530.249c-0.221-0.509-0.409-1.046-0.567-1.61s-0.272-1.143-0.341-1.734
				c-0.619,1.088-1.438,1.989-2.457,2.705c-1.019,0.715-2.229,1.073-3.633,1.073c-2.341,0-4.144-0.602-5.409-1.807
				c-1.267-1.204-1.899-2.846-1.899-4.924c0-2.188,0.843-3.884,2.529-5.089c1.686-1.204,4.146-1.806,7.38-1.806h3.386v-1.776
				c0-1.073-0.282-1.905-0.847-2.497s-1.403-0.889-2.519-0.889c-0.977,0-1.73,0.238-2.26,0.713c-0.53,0.475-0.795,1.125-0.795,1.951
				h-5.802l-0.041-0.124c-0.097-1.886,0.726-3.513,2.467-4.883c1.741-1.369,4.016-2.054,6.823-2.054
				c2.684,0,4.854,0.674,6.514,2.022c1.658,1.35,2.487,3.283,2.487,5.802v9.228c0,1.047,0.079,2.03,0.237,2.952
				c0.158,0.923,0.409,1.838,0.754,2.746H832.195z M826.683,1526.223c1.046,0,1.981-0.262,2.808-0.785
				c0.825-0.522,1.39-1.128,1.692-1.816v-3.158h-3.386c-1.279,0-2.247,0.316-2.9,0.949c-0.654,0.633-0.98,1.411-0.98,2.333
				c0,0.757,0.244,1.359,0.732,1.807S825.816,1526.223,826.683,1526.223z"/>
			<path fill="#C55194" d="M849.795,1526.058c1.046,0,1.879-0.313,2.498-0.939s0.929-1.463,0.929-2.509h5.491l0.042,0.124
				c0.055,2.258-0.785,4.146-2.519,5.667c-1.734,1.521-3.882,2.281-6.441,2.281c-3.303,0-5.856-1.057-7.659-3.169
				s-2.704-4.813-2.704-8.104v-0.619c0-3.275,0.897-5.977,2.693-8.103c1.797-2.127,4.339-3.189,7.629-3.189
				c2.725,0,4.92,0.784,6.585,2.354c1.665,1.568,2.471,3.633,2.416,6.193l-0.042,0.123h-5.491c0-1.155-0.307-2.115-0.918-2.88
				c-0.613-0.764-1.463-1.146-2.55-1.146c-1.556,0-2.66,0.623-3.313,1.868c-0.654,1.246-0.98,2.839-0.98,4.779v0.619
				c0,1.982,0.326,3.586,0.98,4.811C847.094,1525.446,848.212,1526.058,849.795,1526.058z"/>
			<path fill="#C55194" d="M867.334,1502.564h-6.028v-4.521h6.028V1502.564z M867.334,1530.249h-6.028v-22.338h6.028V1530.249z"/>
			<path fill="#C55194" d="M870.091,1518.874c0-3.331,0.93-6.06,2.787-8.186c1.858-2.127,4.432-3.189,7.722-3.189
				c3.303,0,5.891,1.06,7.762,3.179c1.872,2.12,2.808,4.852,2.808,8.196v0.434c0,3.358-0.933,6.094-2.797,8.206
				c-1.865,2.112-4.442,3.169-7.731,3.169c-3.303,0-5.888-1.057-7.752-3.169c-1.865-2.112-2.798-4.848-2.798-8.206V1518.874z
				 M876.099,1519.307c0,2.037,0.357,3.671,1.073,4.903c0.716,1.231,1.872,1.848,3.469,1.848c1.555,0,2.694-0.62,3.417-1.858
				s1.083-2.87,1.083-4.893v-0.434c0-1.982-0.364-3.599-1.094-4.852c-0.729-1.252-1.879-1.879-3.447-1.879
				c-1.556,0-2.694,0.63-3.417,1.889c-0.723,1.26-1.084,2.874-1.084,4.842V1519.307z M881.818,1498.374h6.709l0.042,0.124
				l-5.719,5.367h-5.141L881.818,1498.374z"/>
			<path fill="#C55194" d="M899.129,1507.911l0.269,3.2c0.743-1.142,1.658-2.029,2.746-2.663c1.087-0.633,2.305-0.949,3.653-0.949
				c2.258,0,4.019,0.726,5.285,2.178s1.899,3.747,1.899,6.885v13.688h-6.049v-13.667c0-1.596-0.278-2.729-0.836-3.396
				c-0.558-0.668-1.394-1.002-2.509-1.002c-0.895,0-1.683,0.169-2.363,0.506c-0.682,0.338-1.242,0.803-1.683,1.394v16.165h-6.028
				v-22.338H899.129z"/>
		</g>
	</g>
</g>
</svg>
