<?xml version="1.0" encoding="utf-8"?>
<!-- Generator: Adobe Illustrator 16.0.0, SVG Export Plug-In . SVG Version: 6.00 Build 0)  -->
<!DOCTYPE svg PUBLIC "-//W3C//DTD SVG 1.1//EN" "http://www.w3.org/Graphics/SVG/1.1/DTD/svg11.dtd">
<svg version="1.1" id="Capa_1" xmlns="http://www.w3.org/2000/svg" xmlns:xlink="http://www.w3.org/1999/xlink" x="0px" y="0px"
	 width="936.563px" height="1160.018px" viewBox="0 0 936.563 1160.018" enable-background="new 0 0 936.563 1160.018"
	 xml:space="preserve">
<g>
	<g>
		<rect x="261.688" y="30.212" fill="#70AF9D" width="396.876" height="110.947"/>
		<g enable-background="new    ">
			<path fill="#FFFFFF" d="M371.313,95.117h-11.747l-2.439,7.814h-7.591l12.22-36.237h7.442l12.17,36.237h-7.591L371.313,95.117z
				 M361.358,89.417h8.188l-4.007-12.768h-0.149L361.358,89.417z"/>
			<path fill="#FFFFFF" d="M414.145,102.932h-7.268l-14.609-24.44l-0.149,0.025v24.415h-7.268V66.695h7.268l14.609,24.415
				l0.149-0.024V66.695h7.268V102.932z"/>
			<path fill="#FFFFFF" d="M440.154,95.117h-11.747l-2.439,7.814h-7.591l12.22-36.237h7.442l12.17,36.237h-7.591L440.154,95.117z
				 M430.198,89.417h8.188L434.38,76.65h-0.149L430.198,89.417z M435.624,56.49h8.089l0.05,0.149l-6.894,6.471h-6.197L435.624,56.49
				z"/>
			<path fill="#FFFFFF" d="M460.96,97.357h16.228v5.575h-23.495V66.695h7.268V97.357z"/>
			<path fill="#FFFFFF" d="M489.781,102.932h-7.267V66.695h7.267V102.932z"/>
			<path fill="#FFFFFF" d="M515.864,93.475c0-1.395-0.485-2.515-1.456-3.36c-0.971-0.847-2.675-1.643-5.114-2.39
				c-4.182-1.261-7.354-2.745-9.52-4.455c-2.166-1.708-3.248-4.04-3.248-6.993c0-2.97,1.219-5.396,3.658-7.279
				c2.439-1.884,5.551-2.825,9.333-2.825c4.016,0,7.247,1.012,9.694,3.036s3.629,4.679,3.547,7.965l-0.051,0.148h-7.043
				c0-1.808-0.547-3.197-1.643-4.168c-1.095-0.971-2.63-1.456-4.604-1.456c-1.793,0-3.178,0.432-4.157,1.294
				c-0.979,0.863-1.468,1.966-1.468,3.311c0,1.228,0.53,2.235,1.592,3.023c1.063,0.788,2.896,1.622,5.501,2.501
				c3.981,1.129,7.019,2.602,9.108,4.418c2.092,1.816,3.137,4.21,3.137,7.181c0,3.103-1.211,5.55-3.634,7.342
				s-5.625,2.688-9.606,2.688c-3.9,0-7.247-0.971-10.043-2.912c-2.796-1.94-4.152-4.836-4.068-8.686l0.049-0.149h7.043
				c0,2.141,0.631,3.717,1.893,4.729c1.26,1.013,2.969,1.519,5.127,1.519c1.941,0,3.422-0.406,4.441-1.22
				C515.354,95.922,515.864,94.835,515.864,93.475z"/>
			<path fill="#FFFFFF" d="M536.246,102.932h-7.267V66.695h7.267V102.932z"/>
			<path fill="#FFFFFF" d="M562.329,93.475c0-1.395-0.485-2.515-1.456-3.36c-0.971-0.847-2.676-1.643-5.114-2.39
				c-4.181-1.261-7.354-2.745-9.521-4.455c-2.164-1.708-3.247-4.04-3.247-6.993c0-2.97,1.22-5.396,3.658-7.279
				c2.439-1.884,5.55-2.825,9.333-2.825c4.016,0,7.246,1.012,9.694,3.036c2.447,2.024,3.63,4.679,3.546,7.965l-0.049,0.148h-7.044
				c0-1.808-0.548-3.197-1.643-4.168s-2.63-1.456-4.604-1.456c-1.791,0-3.178,0.432-4.156,1.294
				c-0.979,0.863-1.469,1.966-1.469,3.311c0,1.228,0.531,2.235,1.594,3.023c1.062,0.788,2.895,1.622,5.5,2.501
				c3.982,1.129,7.019,2.602,9.109,4.418c2.09,1.816,3.136,4.21,3.136,7.181c0,3.103-1.212,5.55-3.634,7.342
				c-2.423,1.792-5.625,2.688-9.607,2.688c-3.898,0-7.246-0.971-10.042-2.912c-2.796-1.94-4.152-4.836-4.069-8.686l0.05-0.149h7.044
				c0,2.141,0.63,3.717,1.891,4.729c1.262,1.013,2.971,1.519,5.127,1.519c1.941,0,3.423-0.406,4.443-1.22
				C561.819,95.922,562.329,94.835,562.329,93.475z"/>
		</g>
	</g>
	<g>
		<rect x="92.089" y="195.421" fill="#E6BD53" width="736.071" height="110.947"/>
		<g enable-background="new    ">
			<path fill="#FFFFFF" d="M157.163,239.665H146.81v30.638h-7.268v-30.638h-10.204v-5.6h27.825V239.665z"/>
			<path fill="#FFFFFF" d="M168.413,255.818v14.485h-7.268v-36.237h12.543c4.132,0,7.363,0.942,9.694,2.825
				c2.331,1.883,3.497,4.509,3.497,7.877c0,1.858-0.494,3.464-1.481,4.815c-0.987,1.353-2.426,2.443-4.318,3.273
				c2.14,0.631,3.679,1.684,4.617,3.16c0.937,1.478,1.406,3.303,1.406,5.476v2.663c0,1.013,0.137,2.07,0.411,3.173
				c0.274,1.104,0.742,1.921,1.406,2.452v0.522h-7.492c-0.664-0.531-1.091-1.41-1.282-2.638c-0.191-1.229-0.286-2.415-0.286-3.56
				v-2.563c0-1.809-0.494-3.215-1.48-4.219c-0.988-1.003-2.386-1.506-4.194-1.506H168.413z M168.413,250.218h5.152
				c2.041,0,3.559-0.431,4.554-1.294c0.996-0.862,1.494-2.141,1.494-3.833c0-1.659-0.502-2.978-1.506-3.957
				c-1.004-0.979-2.477-1.469-4.418-1.469h-5.276V250.218z"/>
			<path fill="#FFFFFF" d="M212.514,262.489h-11.747l-2.439,7.814h-7.591l12.22-36.237h7.442l12.17,36.237h-7.591L212.514,262.489z
				 M202.559,256.788h8.188l-4.007-12.768h-0.149L202.559,256.788z"/>
			<path fill="#FFFFFF" d="M255.347,270.303h-7.268l-14.609-24.44l-0.149,0.025v24.415h-7.268v-36.237h7.268l14.609,24.415
				l0.149-0.024v-24.391h7.268V270.303z"/>
			<path fill="#FFFFFF" d="M280.907,260.846c0-1.395-0.485-2.515-1.456-3.36c-0.971-0.847-2.675-1.643-5.114-2.39
				c-4.181-1.261-7.354-2.745-9.52-4.455c-2.165-1.708-3.248-4.04-3.248-6.993c0-2.97,1.219-5.396,3.658-7.279
				c2.439-1.884,5.55-2.825,9.333-2.825c4.016,0,7.247,1.012,9.694,3.036c2.447,2.024,3.629,4.679,3.546,7.965l-0.05,0.148h-7.043
				c0-1.808-0.547-3.197-1.643-4.168c-1.095-0.971-2.63-1.456-4.604-1.456c-1.792,0-3.178,0.432-4.157,1.294
				c-0.979,0.863-1.468,1.966-1.468,3.311c0,1.228,0.531,2.235,1.593,3.023s2.896,1.622,5.5,2.501
				c3.982,1.129,7.019,2.602,9.109,4.418c2.091,1.816,3.136,4.21,3.136,7.181c0,3.103-1.211,5.55-3.634,7.342
				c-2.423,1.792-5.625,2.688-9.607,2.688c-3.899,0-7.247-0.971-10.042-2.912c-2.796-1.94-4.152-4.836-4.069-8.686l0.049-0.149
				h7.043c0,2.141,0.63,3.717,1.892,4.729c1.261,1.013,2.97,1.519,5.127,1.519c1.941,0,3.422-0.406,4.442-1.22
				C280.397,263.293,280.907,262.206,280.907,260.846z"/>
			<path fill="#FFFFFF" d="M320.703,258.307l0.05,0.149c0.066,3.866-1.112,6.894-3.534,9.084c-2.423,2.19-5.766,3.285-10.03,3.285
				c-4.347,0-7.856-1.397-10.528-4.193s-4.007-6.409-4.007-10.839v-7.192c0-4.414,1.302-8.026,3.908-10.839
				c2.604-2.813,6.023-4.219,10.254-4.219c4.413,0,7.864,1.079,10.354,3.235c2.489,2.157,3.7,5.193,3.633,9.109l-0.05,0.149h-7.068
				c0-2.323-0.56-4.053-1.68-5.189s-2.85-1.705-5.189-1.705c-2.174,0-3.87,0.876-5.09,2.626c-1.22,1.751-1.829,4.011-1.829,6.782
				v7.242c0,2.787,0.643,5.061,1.929,6.819c1.286,1.759,3.074,2.638,5.363,2.638c2.173,0,3.795-0.567,4.866-1.704
				s1.605-2.883,1.605-5.239H320.703z"/>
			<path fill="#FFFFFF" d="M333.222,255.818v14.485h-7.268v-36.237h12.543c4.132,0,7.363,0.942,9.694,2.825
				c2.331,1.883,3.497,4.509,3.497,7.877c0,1.858-0.494,3.464-1.481,4.815c-0.987,1.353-2.426,2.443-4.318,3.273
				c2.14,0.631,3.679,1.684,4.617,3.16c0.937,1.478,1.406,3.303,1.406,5.476v2.663c0,1.013,0.137,2.07,0.411,3.173
				c0.274,1.104,0.742,1.921,1.406,2.452v0.522h-7.492c-0.664-0.531-1.091-1.41-1.282-2.638c-0.191-1.229-0.286-2.415-0.286-3.56
				v-2.563c0-1.809-0.494-3.215-1.48-4.219c-0.988-1.003-2.386-1.506-4.194-1.506H333.222z M333.222,250.218h5.152
				c2.041,0,3.559-0.431,4.554-1.294c0.996-0.862,1.494-2.141,1.494-3.833c0-1.659-0.502-2.978-1.506-3.957
				c-1.004-0.979-2.477-1.469-4.418-1.469h-5.276V250.218z"/>
			<path fill="#FFFFFF" d="M366.199,270.303h-7.267v-36.237h7.267V270.303z"/>
			<path fill="#FFFFFF" d="M380.659,257.162v13.141h-7.268v-36.237h13.863c4.165,0,7.441,1.063,9.831,3.186
				c2.389,2.124,3.583,4.92,3.583,8.388s-1.194,6.255-3.583,8.362c-2.39,2.107-5.667,3.161-9.831,3.161H380.659z M380.659,251.562
				h6.595c2.024,0,3.559-0.551,4.604-1.654c1.045-1.104,1.568-2.51,1.568-4.219c0-1.742-0.519-3.182-1.556-4.318
				c-1.037-1.136-2.576-1.705-4.617-1.705h-6.595V251.562z"/>
			<path fill="#FFFFFF" d="M433.049,258.307l0.05,0.149c0.066,3.866-1.112,6.894-3.534,9.084c-2.423,2.19-5.766,3.285-10.03,3.285
				c-4.347,0-7.856-1.397-10.528-4.193S405,260.223,405,255.793v-7.192c0-4.414,1.302-8.026,3.908-10.839
				c2.604-2.813,6.023-4.219,10.254-4.219c4.413,0,7.864,1.079,10.354,3.235c2.489,2.157,3.7,5.193,3.633,9.109l-0.05,0.149h-7.068
				c0-2.323-0.56-4.053-1.68-5.189s-2.85-1.705-5.189-1.705c-2.174,0-3.87,0.876-5.09,2.626c-1.22,1.751-1.829,4.011-1.829,6.782
				v7.242c0,2.787,0.643,5.061,1.929,6.819c1.286,1.759,3.074,2.638,5.363,2.638c2.173,0,3.795-0.567,4.866-1.704
				s1.605-2.883,1.605-5.239H433.049z"/>
			<path fill="#FFFFFF" d="M446.065,270.303h-7.267v-36.237h7.267V270.303z"/>
			<path fill="#FFFFFF" d="M482.576,255.445c0,4.464-1.402,8.143-4.206,11.038s-6.454,4.343-10.951,4.343
				c-4.48,0-8.114-1.451-10.901-4.355c-2.787-2.903-4.181-6.578-4.181-11.025v-6.521c0-4.43,1.39-8.102,4.169-11.013
				c2.779-2.912,6.4-4.368,10.864-4.368c4.496,0,8.155,1.456,10.976,4.368c2.82,2.911,4.23,6.583,4.23,11.013V255.445z
				 M475.334,248.874c0-2.82-0.705-5.135-2.115-6.943c-1.411-1.809-3.36-2.713-5.849-2.713c-2.456,0-4.368,0.904-5.737,2.713
				c-1.369,1.809-2.053,4.123-2.053,6.943v6.57c0,2.871,0.688,5.21,2.065,7.019c1.377,1.809,3.302,2.713,5.774,2.713
				c2.489,0,4.43-0.904,5.824-2.713s2.091-4.147,2.091-7.019V248.874z M468.912,223.339h8.089l0.05,0.149l-6.895,6.471h-6.196
				L468.912,223.339z"/>
			<path fill="#FFFFFF" d="M517.619,270.303h-7.268l-14.609-24.44l-0.149,0.025v24.415h-7.268v-36.237h7.268l14.609,24.415
				l0.149-0.024v-24.391h7.268V270.303z"/>
			<path fill="#FFFFFF" d="M536.982,270.303v-36.237h12.644c4.43,0,8.08,1.415,10.95,4.243c2.871,2.829,4.306,6.459,4.306,10.889
				v5.998c0,4.447-1.435,8.076-4.306,10.889c-2.87,2.813-6.521,4.219-10.95,4.219H536.982z M544.249,239.665v25.063h5.376
				c2.389,0,4.313-0.892,5.773-2.675c1.46-1.784,2.19-4.069,2.19-6.857v-6.048c0-2.771-0.73-5.043-2.19-6.819
				c-1.46-1.775-3.385-2.663-5.773-2.663H544.249z"/>
			<path fill="#FFFFFF" d="M591.412,254.374h-13.439v10.354h15.979v5.575h-23.246v-36.237h23.196v5.6h-15.929v9.109h13.439V254.374z
				"/>
			<path fill="#FFFFFF" d="M606.321,264.728h16.227v5.575h-23.494v-36.237h7.268V264.728z"/>
			<path fill="#FFFFFF" d="M667.844,265.35c-1.129,1.478-2.813,2.759-5.053,3.846c-2.239,1.087-5.127,1.63-8.661,1.63
				c-4.38,0-7.964-1.377-10.751-4.131c-2.788-2.755-4.182-6.33-4.182-10.728v-7.565c0-4.381,1.353-7.952,4.057-10.715
				s6.181-4.144,10.429-4.144c4.43,0,7.822,1.05,10.179,3.148s3.493,4.898,3.41,8.399l-0.05,0.149h-6.845
				c0-1.925-0.556-3.422-1.667-4.492c-1.112-1.07-2.729-1.605-4.854-1.605c-2.224,0-4.016,0.858-5.376,2.576
				c-1.36,1.717-2.041,3.929-2.041,6.633v7.615c0,2.738,0.697,4.97,2.091,6.695s3.261,2.588,5.6,2.588
				c1.726,0,3.091-0.174,4.095-0.522s1.779-0.788,2.327-1.318v-7.019h-6.969v-5.027h14.261V265.35z"/>
			<path fill="#FFFFFF" d="M702.737,234.066v23.719c0,4.081-1.353,7.275-4.057,9.582s-6.214,3.459-10.527,3.459
				c-4.298,0-7.786-1.152-10.466-3.459s-4.02-5.501-4.02-9.582v-23.719h7.293v23.719c0,2.423,0.646,4.272,1.94,5.55
				c1.295,1.278,3.045,1.916,5.252,1.916c2.24,0,4.015-0.638,5.326-1.916c1.311-1.277,1.966-3.127,1.966-5.55v-23.719H702.737z"/>
			<path fill="#FFFFFF" d="M716.799,270.303h-7.268v-36.237h7.268V270.303z"/>
			<path fill="#FFFFFF" d="M753.31,255.445c0,4.464-1.402,8.143-4.206,11.038c-2.805,2.896-6.455,4.343-10.951,4.343
				c-4.479,0-8.113-1.451-10.9-4.355c-2.788-2.903-4.182-6.578-4.182-11.025v-6.521c0-4.43,1.39-8.102,4.169-11.013
				c2.779-2.912,6.4-4.368,10.863-4.368c4.496,0,8.155,1.456,10.976,4.368c2.821,2.911,4.231,6.583,4.231,11.013V255.445z
				 M746.068,248.874c0-2.82-0.706-5.135-2.116-6.943s-3.359-2.713-5.849-2.713c-2.455,0-4.367,0.904-5.736,2.713
				s-2.054,4.123-2.054,6.943v6.57c0,2.871,0.688,5.21,2.066,7.019c1.377,1.809,3.301,2.713,5.773,2.713
				c2.489,0,4.431-0.904,5.824-2.713s2.091-4.147,2.091-7.019V248.874z M739.646,223.339h8.089l0.05,0.149l-6.894,6.471h-6.197
				L739.646,223.339z"/>
			<path fill="#FFFFFF" d="M788.352,270.303h-7.267l-14.609-24.44l-0.149,0.025v24.415h-7.268v-36.237h7.268l14.609,24.415
				l0.149-0.024v-24.391h7.267V270.303z"/>
		</g>
	</g>
	<g>
		<rect x="57.036" y="360.631" fill="#C55194" width="806.18" height="110.946"/>
		<g enable-background="new    ">
			<path fill="#FFFFFF" d="M136.942,407.038h-10.354v30.638h-7.268v-30.638h-10.204v-5.6h27.825V407.038z"/>
			<path fill="#FFFFFF" d="M148.191,423.191v14.485h-7.268v-36.237h12.543c4.132,0,7.363,0.942,9.694,2.825
				c2.331,1.883,3.497,4.509,3.497,7.877c0,1.858-0.494,3.464-1.481,4.815c-0.987,1.353-2.426,2.443-4.318,3.273
				c2.14,0.631,3.679,1.684,4.617,3.16c0.937,1.478,1.406,3.303,1.406,5.476v2.663c0,1.013,0.137,2.07,0.411,3.173
				c0.274,1.104,0.742,1.921,1.406,2.452v0.522h-7.492c-0.664-0.531-1.091-1.41-1.282-2.638c-0.191-1.229-0.286-2.415-0.286-3.56
				v-2.563c0-1.809-0.494-3.215-1.48-4.219c-0.988-1.003-2.386-1.506-4.194-1.506H148.191z M148.191,417.591h5.152
				c2.041,0,3.559-0.431,4.554-1.294c0.996-0.862,1.494-2.141,1.494-3.833c0-1.659-0.502-2.978-1.506-3.957
				c-1.004-0.979-2.477-1.469-4.418-1.469h-5.276V417.591z"/>
			<path fill="#FFFFFF" d="M192.293,429.862h-11.747l-2.439,7.814h-7.591l12.22-36.237h7.442l12.17,36.237h-7.591L192.293,429.862z
				 M182.338,424.161h8.188l-4.007-12.768h-0.149L182.338,424.161z"/>
			<path fill="#FFFFFF" d="M205.832,437.676v-36.237h12.643c4.43,0,8.08,1.415,10.951,4.243c2.87,2.829,4.306,6.459,4.306,10.889
				v5.998c0,4.447-1.436,8.076-4.306,10.889c-2.871,2.813-6.521,4.219-10.951,4.219H205.832z M213.099,407.038v25.063h5.375
				c2.39,0,4.314-0.892,5.774-2.675c1.459-1.784,2.19-4.069,2.19-6.857v-6.048c0-2.771-0.73-5.043-2.19-6.819
				c-1.46-1.775-3.385-2.663-5.774-2.663H213.099z"/>
			<path fill="#FFFFFF" d="M268.277,401.439v23.719c0,4.081-1.353,7.275-4.057,9.582s-6.214,3.459-10.527,3.459
				c-4.298,0-7.786-1.152-10.466-3.459s-4.019-5.501-4.019-9.582v-23.719h7.292v23.719c0,2.423,0.647,4.272,1.941,5.55
				c1.294,1.278,3.044,1.916,5.251,1.916c2.24,0,4.015-0.638,5.326-1.916c1.311-1.277,1.966-3.127,1.966-5.55v-23.719H268.277z"/>
			<path fill="#FFFFFF" d="M301.751,425.68l0.05,0.149c0.066,3.866-1.112,6.894-3.534,9.084c-2.423,2.19-5.766,3.285-10.03,3.285
				c-4.347,0-7.856-1.397-10.528-4.193s-4.007-6.409-4.007-10.839v-7.192c0-4.414,1.302-8.026,3.908-10.839
				c2.604-2.813,6.023-4.219,10.254-4.219c4.413,0,7.864,1.079,10.354,3.235c2.489,2.157,3.7,5.193,3.633,9.109l-0.05,0.149h-7.068
				c0-2.323-0.56-4.053-1.68-5.189s-2.85-1.705-5.189-1.705c-2.174,0-3.87,0.876-5.09,2.626c-1.22,1.751-1.829,4.011-1.829,6.782
				v7.242c0,2.787,0.643,5.061,1.929,6.819c1.286,1.759,3.074,2.638,5.363,2.638c2.173,0,3.795-0.567,4.866-1.704
				s1.605-2.883,1.605-5.239H301.751z"/>
			<path fill="#FFFFFF" d="M334.18,425.68l0.05,0.149c0.066,3.866-1.112,6.894-3.534,9.084c-2.423,2.19-5.766,3.285-10.03,3.285
				c-4.347,0-7.856-1.397-10.528-4.193s-4.007-6.409-4.007-10.839v-7.192c0-4.414,1.302-8.026,3.908-10.839
				c2.604-2.813,6.023-4.219,10.254-4.219c4.413,0,7.864,1.079,10.354,3.235c2.489,2.157,3.7,5.193,3.633,9.109l-0.05,0.149h-7.068
				c0-2.323-0.56-4.053-1.68-5.189s-2.85-1.705-5.189-1.705c-2.174,0-3.87,0.876-5.09,2.626c-1.22,1.751-1.829,4.011-1.829,6.782
				v7.242c0,2.787,0.643,5.061,1.929,6.819c1.286,1.759,3.074,2.638,5.363,2.638c2.173,0,3.795-0.567,4.866-1.704
				s1.605-2.883,1.605-5.239H334.18z"/>
			<path fill="#FFFFFF" d="M347.197,437.676h-7.267v-36.237h7.267V437.676z"/>
			<path fill="#FFFFFF" d="M383.708,422.818c0,4.464-1.402,8.143-4.206,11.038c-2.804,2.896-6.455,4.343-10.951,4.343
				c-4.48,0-8.114-1.451-10.901-4.355c-2.787-2.903-4.181-6.578-4.181-11.025v-6.521c0-4.43,1.39-8.102,4.169-11.013
				c2.779-2.912,6.4-4.368,10.864-4.368c4.496,0,8.155,1.456,10.976,4.368c2.82,2.911,4.231,6.583,4.231,11.013V422.818z
				 M376.465,416.247c0-2.82-0.705-5.135-2.115-6.943c-1.411-1.809-3.36-2.713-5.849-2.713c-2.456,0-4.368,0.904-5.737,2.713
				c-1.369,1.809-2.053,4.123-2.053,6.943v6.57c0,2.871,0.688,5.21,2.065,7.019c1.377,1.809,3.302,2.713,5.774,2.713
				c2.489,0,4.43-0.904,5.824-2.713c1.394-1.809,2.09-4.147,2.09-7.019V416.247z M370.044,390.712h8.088l0.05,0.149l-6.894,6.471
				h-6.197L370.044,390.712z"/>
			<path fill="#FFFFFF" d="M418.75,437.676h-7.268l-14.609-24.44l-0.149,0.025v24.415h-7.268v-36.237h7.268l14.609,24.415
				l0.149-0.024v-24.391h7.268V437.676z"/>
			<path fill="#FFFFFF" d="M438.114,437.676v-36.237h12.643c4.43,0,8.08,1.415,10.951,4.243c2.87,2.829,4.306,6.459,4.306,10.889
				v5.998c0,4.447-1.436,8.076-4.306,10.889c-2.871,2.813-6.521,4.219-10.951,4.219H438.114z M445.381,407.038v25.063h5.375
				c2.39,0,4.314-0.892,5.774-2.675c1.459-1.784,2.19-4.069,2.19-6.857v-6.048c0-2.771-0.73-5.043-2.19-6.819
				c-1.46-1.775-3.385-2.663-5.774-2.663H445.381z"/>
			<path fill="#FFFFFF" d="M492.543,421.747h-13.439v10.354h15.979v5.575h-23.246v-36.237h23.196v5.6h-15.929v9.109h13.439V421.747z
				"/>
			<path fill="#FFFFFF" d="M531.768,428.219c0-1.395-0.485-2.515-1.456-3.36c-0.972-0.847-2.676-1.643-5.114-2.39
				c-4.182-1.261-7.355-2.745-9.521-4.455c-2.165-1.708-3.247-4.04-3.247-6.993c0-2.97,1.219-5.396,3.658-7.279
				c2.439-1.884,5.55-2.825,9.332-2.825c4.017,0,7.247,1.012,9.694,3.036s3.63,4.679,3.547,7.965l-0.05,0.148h-7.043
				c0-1.808-0.548-3.197-1.643-4.168c-1.096-0.971-2.631-1.456-4.604-1.456c-1.792,0-3.178,0.432-4.157,1.294
				c-0.979,0.863-1.468,1.966-1.468,3.311c0,1.228,0.53,2.235,1.593,3.023s2.896,1.622,5.5,2.501
				c3.982,1.129,7.019,2.602,9.109,4.418s3.136,4.21,3.136,7.181c0,3.103-1.211,5.55-3.634,7.342
				c-2.422,1.792-5.624,2.688-9.606,2.688c-3.899,0-7.247-0.971-10.042-2.912c-2.797-1.94-4.152-4.836-4.069-8.686l0.05-0.149h7.043
				c0,2.141,0.631,3.717,1.892,4.729c1.261,1.013,2.97,1.519,5.127,1.519c1.941,0,3.423-0.406,4.442-1.22
				C531.257,430.666,531.768,429.579,531.768,428.219z"/>
			<path fill="#FFFFFF" d="M573.107,401.439v23.719c0,4.081-1.353,7.275-4.057,9.582s-6.214,3.459-10.527,3.459
				c-4.298,0-7.786-1.152-10.466-3.459s-4.02-5.501-4.02-9.582v-23.719h7.293v23.719c0,2.423,0.646,4.272,1.94,5.55
				c1.295,1.278,3.045,1.916,5.252,1.916c2.24,0,4.015-0.638,5.326-1.916c1.311-1.277,1.966-3.127,1.966-5.55v-23.719H573.107z"/>
			<path fill="#FFFFFF" d="M579.404,437.676v-36.237h11.872c4.264,0,7.591,0.834,9.979,2.501c2.39,1.668,3.584,4.145,3.584,7.43
				c0,1.659-0.432,3.145-1.294,4.455c-0.863,1.311-2.124,2.298-3.783,2.962c2.257,0.414,3.957,1.394,5.103,2.937
				c1.145,1.543,1.717,3.344,1.717,5.4c0,3.468-1.145,6.094-3.435,7.877c-2.289,1.784-5.533,2.676-9.731,2.676H579.404z
				 M586.671,416.62h4.853c1.941,0,3.435-0.398,4.48-1.194c1.045-0.797,1.567-1.958,1.567-3.484c0-1.676-0.526-2.912-1.58-3.708
				c-1.054-0.797-2.626-1.195-4.716-1.195h-4.604V416.62z M586.671,421.648v10.453h6.744c1.925,0,3.394-0.419,4.405-1.257
				s1.519-2.078,1.519-3.721c0-1.759-0.498-3.111-1.493-4.057c-0.996-0.945-2.497-1.419-4.505-1.419H586.671z"/>
			<path fill="#FFFFFF" d="M636.472,407.038h-10.354v30.638h-7.268v-30.638h-10.204v-5.6h27.825V407.038z"/>
			<path fill="#FFFFFF" d="M648.22,437.676h-7.268v-36.237h7.268V437.676z"/>
			<path fill="#FFFFFF" d="M679.952,407.038h-10.354v30.638h-7.268v-30.638h-10.204v-5.6h27.825V407.038z"/>
			<path fill="#FFFFFF" d="M712.655,401.439v23.719c0,4.081-1.353,7.275-4.057,9.582s-6.214,3.459-10.527,3.459
				c-4.298,0-7.786-1.152-10.466-3.459s-4.02-5.501-4.02-9.582v-23.719h7.293v23.719c0,2.423,0.646,4.272,1.94,5.55
				c1.295,1.278,3.045,1.916,5.252,1.916c2.24,0,4.015-0.638,5.326-1.916c1.311-1.277,1.966-3.127,1.966-5.55v-23.719H712.655z"/>
			<path fill="#FFFFFF" d="M726.219,432.101h16.227v5.575h-23.494v-36.237h7.268V432.101z"/>
			<path fill="#FFFFFF" d="M775.97,422.818c0,4.464-1.402,8.143-4.206,11.038c-2.805,2.896-6.455,4.343-10.951,4.343
				c-4.479,0-8.113-1.451-10.9-4.355c-2.788-2.903-4.182-6.578-4.182-11.025v-6.521c0-4.43,1.39-8.102,4.169-11.013
				c2.779-2.912,6.4-4.368,10.863-4.368c4.496,0,8.155,1.456,10.976,4.368c2.821,2.911,4.231,6.583,4.231,11.013V422.818z
				 M768.728,416.247c0-2.82-0.706-5.135-2.116-6.943s-3.359-2.713-5.849-2.713c-2.455,0-4.367,0.904-5.736,2.713
				s-2.054,4.123-2.054,6.943v6.57c0,2.871,0.688,5.21,2.066,7.019c1.377,1.809,3.301,2.713,5.773,2.713
				c2.489,0,4.431-0.904,5.824-2.713s2.091-4.147,2.091-7.019V416.247z"/>
			<path fill="#FFFFFF" d="M800.61,428.219c0-1.395-0.485-2.515-1.456-3.36c-0.971-0.847-2.676-1.643-5.115-2.39
				c-4.181-1.261-7.354-2.745-9.52-4.455c-2.165-1.708-3.248-4.04-3.248-6.993c0-2.97,1.22-5.396,3.659-7.279
				c2.438-1.884,5.55-2.825,9.333-2.825c4.015,0,7.246,1.012,9.693,3.036s3.63,4.679,3.547,7.965l-0.05,0.148h-7.043
				c0-1.808-0.548-3.197-1.643-4.168c-1.096-0.971-2.63-1.456-4.604-1.456c-1.792,0-3.178,0.432-4.156,1.294
				c-0.979,0.863-1.469,1.966-1.469,3.311c0,1.228,0.531,2.235,1.593,3.023s2.896,1.622,5.5,2.501
				c3.982,1.129,7.019,2.602,9.109,4.418s3.136,4.21,3.136,7.181c0,3.103-1.211,5.55-3.634,7.342
				c-2.422,1.792-5.624,2.688-9.606,2.688c-3.899,0-7.247-0.971-10.042-2.912c-2.797-1.94-4.152-4.836-4.069-8.686l0.05-0.149h7.043
				c0,2.141,0.631,3.717,1.892,4.729c1.261,1.013,2.97,1.519,5.127,1.519c1.941,0,3.422-0.406,4.442-1.22
				C800.099,430.666,800.61,429.579,800.61,428.219z"/>
		</g>
	</g>
	<g>
		<rect x="197.396" y="525.839" fill="#70AF9D" width="525.461" height="110.945"/>
		<g enable-background="new    ">
			<path fill="#FFFFFF" d="M302.783,592.239c0-1.395-0.485-2.515-1.456-3.36c-0.971-0.847-2.675-1.643-5.114-2.39
				c-4.181-1.261-7.354-2.745-9.52-4.455c-2.165-1.708-3.248-4.04-3.248-6.993c0-2.97,1.219-5.396,3.658-7.279
				c2.439-1.884,5.55-2.825,9.333-2.825c4.016,0,7.247,1.012,9.694,3.036c2.447,2.024,3.629,4.679,3.546,7.965l-0.05,0.148h-7.043
				c0-1.808-0.547-3.197-1.643-4.168c-1.095-0.971-2.63-1.456-4.604-1.456c-1.792,0-3.178,0.432-4.157,1.294
				c-0.979,0.863-1.468,1.966-1.468,3.311c0,1.228,0.531,2.235,1.593,3.023s2.896,1.622,5.5,2.501
				c3.982,1.129,7.019,2.602,9.109,4.418c2.091,1.816,3.136,4.21,3.136,7.181c0,3.103-1.211,5.55-3.634,7.342
				c-2.423,1.792-5.625,2.688-9.607,2.688c-3.899,0-7.247-0.971-10.042-2.912c-2.796-1.94-4.152-4.836-4.069-8.686l0.049-0.149
				h7.043c0,2.141,0.63,3.717,1.892,4.729c1.261,1.013,2.97,1.519,5.127,1.519c1.941,0,3.422-0.406,4.442-1.22
				C302.273,594.686,302.783,593.599,302.783,592.239z"/>
			<path fill="#FFFFFF" d="M322.669,588.555v13.141h-7.268v-36.237h13.863c4.165,0,7.441,1.063,9.831,3.186
				c2.389,2.124,3.583,4.92,3.583,8.388s-1.194,6.255-3.583,8.362c-2.39,2.107-5.667,3.161-9.831,3.161H322.669z M322.669,582.954
				h6.595c2.024,0,3.559-0.551,4.604-1.654c1.045-1.104,1.568-2.51,1.568-4.219c0-1.742-0.519-3.182-1.556-4.318
				c-1.037-1.136-2.576-1.705-4.617-1.705h-6.595V582.954z"/>
			<path fill="#FFFFFF" d="M377.199,586.837c0,4.464-1.402,8.143-4.206,11.038c-2.804,2.896-6.455,4.343-10.951,4.343
				c-4.48,0-8.114-1.451-10.901-4.355c-2.787-2.903-4.181-6.578-4.181-11.025v-6.521c0-4.43,1.39-8.102,4.169-11.013
				c2.779-2.912,6.4-4.368,10.864-4.368c4.496,0,8.155,1.456,10.976,4.368c2.82,2.911,4.231,6.583,4.231,11.013V586.837z
				 M369.956,580.267c0-2.82-0.705-5.135-2.115-6.943c-1.411-1.809-3.36-2.713-5.849-2.713c-2.456,0-4.368,0.904-5.737,2.713
				c-1.369,1.809-2.053,4.123-2.053,6.943v6.57c0,2.871,0.688,5.21,2.065,7.019c1.377,1.809,3.302,2.713,5.774,2.713
				c2.489,0,4.43-0.904,5.824-2.713c1.394-1.809,2.09-4.147,2.09-7.019V580.267z"/>
			<path fill="#FFFFFF" d="M407.538,571.058h-10.354v30.638h-7.268v-30.638h-10.204v-5.6h27.825V571.058z"/>
			<path fill="#FFFFFF" d="M437.18,571.058h-10.354v30.638h-7.268v-30.638h-10.204v-5.6h27.825V571.058z"/>
			<path fill="#FFFFFF" d="M448.927,601.696h-7.267v-36.237h7.267V601.696z"/>
			<path fill="#FFFFFF" d="M485.412,601.696h-7.268l-14.609-24.44l-0.149,0.025v24.415h-7.268v-36.237h7.268l14.609,24.415
				l0.148-0.024v-24.391h7.268V601.696z"/>
			<path fill="#FFFFFF" d="M519.858,596.742c-1.128,1.478-2.813,2.759-5.052,3.846c-2.24,1.087-5.127,1.63-8.661,1.63
				c-4.381,0-7.965-1.377-10.752-4.131c-2.787-2.755-4.182-6.33-4.182-10.728v-7.565c0-4.381,1.353-7.952,4.057-10.715
				c2.705-2.763,6.182-4.144,10.429-4.144c4.431,0,7.823,1.05,10.179,3.148c2.356,2.099,3.493,4.898,3.41,8.399l-0.05,0.149h-6.845
				c0-1.925-0.555-3.422-1.667-4.492s-2.729-1.605-4.853-1.605c-2.225,0-4.016,0.858-5.377,2.576
				c-1.359,1.717-2.04,3.929-2.04,6.633v7.615c0,2.738,0.696,4.97,2.091,6.695c1.394,1.726,3.26,2.588,5.6,2.588
				c1.725,0,3.09-0.174,4.094-0.522s1.779-0.788,2.327-1.318v-7.019h-6.969v-5.027h14.261V596.742z"/>
			<path fill="#FFFFFF" d="M545.99,596.12h16.228v5.575h-23.495v-36.237h7.268V596.12z"/>
			<path fill="#FFFFFF" d="M574.811,601.696h-7.267v-36.237h7.267V601.696z"/>
			<path fill="#FFFFFF" d="M600.894,592.239c0-1.395-0.485-2.515-1.456-3.36c-0.971-0.847-2.676-1.643-5.114-2.39
				c-4.181-1.261-7.354-2.745-9.521-4.455c-2.164-1.708-3.247-4.04-3.247-6.993c0-2.97,1.22-5.396,3.658-7.279
				c2.439-1.884,5.55-2.825,9.333-2.825c4.016,0,7.246,1.012,9.694,3.036c2.447,2.024,3.63,4.679,3.546,7.965l-0.049,0.148h-7.044
				c0-1.808-0.548-3.197-1.643-4.168s-2.63-1.456-4.604-1.456c-1.791,0-3.178,0.432-4.156,1.294
				c-0.979,0.863-1.469,1.966-1.469,3.311c0,1.228,0.531,2.235,1.594,3.023c1.062,0.788,2.895,1.622,5.5,2.501
				c3.982,1.129,7.019,2.602,9.109,4.418c2.09,1.816,3.136,4.21,3.136,7.181c0,3.103-1.212,5.55-3.634,7.342
				c-2.423,1.792-5.625,2.688-9.607,2.688c-3.898,0-7.246-0.971-10.042-2.912c-2.796-1.94-4.152-4.836-4.069-8.686l0.05-0.149h7.044
				c0,2.141,0.63,3.717,1.891,4.729c1.262,1.013,2.971,1.519,5.127,1.519c1.941,0,3.423-0.406,4.443-1.22
				C600.383,594.686,600.894,593.599,600.894,592.239z"/>
			<path fill="#FFFFFF" d="M638.774,571.058H628.42v30.638h-7.268v-30.638h-10.203v-5.6h27.824V571.058z"/>
		</g>
	</g>
	<g>
		<rect x="251.077" y="691.046" fill="#E6BD53" width="418.099" height="110.946"/>
		<g enable-background="new    ">
			<path fill="#FFFFFF" d="M386.446,751.547h-13.439v10.354h15.978v5.575h-23.246v-36.237h23.196v5.6h-15.928v9.109h13.439V751.547z
				"/>
			<path fill="#FFFFFF" d="M394.086,767.476v-36.237h12.643c4.43,0,8.08,1.415,10.951,4.243c2.87,2.829,4.306,6.459,4.306,10.889
				v5.998c0,4.447-1.436,8.076-4.306,10.889c-2.871,2.813-6.521,4.219-10.951,4.219H394.086z M401.354,736.838v25.063h5.375
				c2.39,0,4.314-0.892,5.774-2.675c1.459-1.784,2.19-4.069,2.19-6.857v-6.048c0-2.771-0.73-5.043-2.19-6.819
				c-1.46-1.775-3.385-2.663-5.774-2.663H401.354z"/>
			<path fill="#FFFFFF" d="M435.575,767.476h-7.267v-36.237h7.267V767.476z"/>
			<path fill="#FFFFFF" d="M469.946,755.48l0.049,0.149c0.066,3.866-1.111,6.894-3.533,9.084c-2.423,2.19-5.766,3.285-10.03,3.285
				c-4.347,0-7.856-1.397-10.528-4.193s-4.007-6.409-4.007-10.839v-7.192c0-4.414,1.302-8.026,3.908-10.839
				c2.604-2.813,6.023-4.219,10.254-4.219c4.413,0,7.864,1.079,10.354,3.235c2.489,2.157,3.7,5.193,3.634,9.109l-0.051,0.149h-7.067
				c0-2.323-0.56-4.053-1.68-5.189s-2.85-1.705-5.189-1.705c-2.174,0-3.87,0.876-5.09,2.626c-1.22,1.751-1.829,4.011-1.829,6.782
				v7.242c0,2.787,0.643,5.061,1.929,6.819c1.286,1.759,3.074,2.638,5.363,2.638c2.173,0,3.795-0.567,4.866-1.704
				s1.605-2.883,1.605-5.239H469.946z"/>
			<path fill="#FFFFFF" d="M482.961,767.476h-7.267v-36.237h7.267V767.476z"/>
			<path fill="#FFFFFF" d="M519.473,752.617c0,4.464-1.402,8.143-4.206,11.038s-6.454,4.343-10.95,4.343
				c-4.48,0-8.114-1.451-10.902-4.355c-2.787-2.903-4.181-6.578-4.181-11.025v-6.521c0-4.43,1.39-8.102,4.169-11.013
				c2.779-2.912,6.4-4.368,10.863-4.368c4.496,0,8.155,1.456,10.977,4.368c2.82,2.911,4.23,6.583,4.23,11.013V752.617z
				 M512.231,746.047c0-2.82-0.705-5.135-2.115-6.943c-1.411-1.809-3.36-2.713-5.85-2.713c-2.455,0-4.367,0.904-5.736,2.713
				s-2.053,4.123-2.053,6.943v6.57c0,2.871,0.688,5.21,2.064,7.019s3.303,2.713,5.775,2.713c2.488,0,4.43-0.904,5.823-2.713
				s2.091-4.147,2.091-7.019V746.047z M505.809,720.512h8.089l0.05,0.149l-6.895,6.471h-6.196L505.809,720.512z"/>
			<path fill="#FFFFFF" d="M554.516,767.476h-7.268l-14.609-24.44l-0.149,0.025v24.415h-7.268v-36.237h7.268l14.609,24.415
				l0.149-0.024v-24.391h7.268V767.476z"/>
		</g>
	</g>
	<g>
		<rect x="225.577" y="856.255" fill="#C55194" width="469.098" height="110.946"/>
		<g enable-background="new    ">
			<path fill="#FFFFFF" d="M357.874,917.139v14.485h-7.268v-36.237h12.543c4.132,0,7.363,0.942,9.694,2.825
				c2.331,1.883,3.497,4.509,3.497,7.877c0,1.858-0.494,3.464-1.481,4.815c-0.987,1.353-2.426,2.443-4.318,3.273
				c2.14,0.631,3.679,1.684,4.617,3.16c0.937,1.478,1.406,3.303,1.406,5.476v2.663c0,1.013,0.137,2.07,0.411,3.173
				c0.274,1.104,0.742,1.921,1.406,2.452v0.522h-7.492c-0.664-0.531-1.091-1.41-1.282-2.638c-0.191-1.229-0.286-2.415-0.286-3.56
				v-2.563c0-1.809-0.494-3.215-1.48-4.219c-0.988-1.003-2.386-1.506-4.194-1.506H357.874z M357.874,911.539h5.152
				c2.041,0,3.559-0.431,4.554-1.294c0.996-0.862,1.494-2.141,1.494-3.833c0-1.659-0.502-2.978-1.506-3.957
				c-1.004-0.979-2.477-1.469-4.418-1.469h-5.276V911.539z"/>
			<path fill="#FFFFFF" d="M403.792,915.696h-13.439v10.354h15.978v5.575h-23.246v-36.237h23.196v5.6h-15.928v9.109h13.439V915.696z
				"/>
			<path fill="#FFFFFF" d="M423.778,921.793l0.448,1.991h0.149l0.423-1.916l7.889-26.481h7.666l-12.319,36.237h-7.467
				l-12.294-36.237h7.666L423.778,921.793z"/>
			<path fill="#FFFFFF" d="M451.627,931.624h-7.267v-36.237h7.267V931.624z"/>
			<path fill="#FFFFFF" d="M477.71,922.167c0-1.395-0.485-2.515-1.456-3.36c-0.971-0.847-2.676-1.643-5.114-2.39
				c-4.181-1.261-7.354-2.745-9.52-4.455c-2.165-1.708-3.248-4.04-3.248-6.993c0-2.97,1.219-5.396,3.658-7.279
				c2.439-1.884,5.55-2.825,9.333-2.825c4.016,0,7.246,1.012,9.694,3.036c2.447,2.024,3.63,4.679,3.546,7.965l-0.049,0.148h-7.044
				c0-1.808-0.548-3.197-1.643-4.168s-2.63-1.456-4.604-1.456c-1.791,0-3.177,0.432-4.156,1.294
				c-0.979,0.863-1.468,1.966-1.468,3.311c0,1.228,0.531,2.235,1.593,3.023s2.895,1.622,5.5,2.501
				c3.982,1.129,7.019,2.602,9.109,4.418c2.09,1.816,3.136,4.21,3.136,7.181c0,3.103-1.212,5.55-3.634,7.342
				c-2.423,1.792-5.625,2.688-9.607,2.688c-3.899,0-7.246-0.971-10.042-2.912c-2.796-1.94-4.152-4.836-4.069-8.686l0.049-0.149
				h7.043c0,2.141,0.63,3.717,1.892,4.729c1.261,1.013,2.97,1.519,5.126,1.519c1.941,0,3.423-0.406,4.443-1.22
				C477.199,924.615,477.71,923.528,477.71,922.167z"/>
			<path fill="#FFFFFF" d="M498.094,931.624h-7.268v-36.237h7.268V931.624z"/>
			<path fill="#FFFFFF" d="M534.605,916.766c0,4.464-1.402,8.143-4.206,11.038c-2.805,2.896-6.455,4.343-10.951,4.343
				c-4.479,0-8.113-1.451-10.9-4.355c-2.787-2.903-4.182-6.578-4.182-11.025v-6.521c0-4.43,1.39-8.102,4.169-11.013
				c2.778-2.912,6.399-4.368,10.864-4.368c4.496,0,8.154,1.456,10.975,4.368c2.82,2.911,4.231,6.583,4.231,11.013V916.766z
				 M527.362,910.196c0-2.82-0.705-5.135-2.115-6.943s-3.359-2.713-5.848-2.713c-2.457,0-4.369,0.904-5.737,2.713
				c-1.369,1.809-2.054,4.123-2.054,6.943v6.57c0,2.871,0.688,5.21,2.066,7.019c1.377,1.809,3.301,2.713,5.773,2.713
				c2.489,0,4.43-0.904,5.824-2.713c1.394-1.809,2.09-4.147,2.09-7.019V910.196z M520.942,884.66h8.088l0.05,0.149l-6.894,6.471
				h-6.197L520.942,884.66z"/>
			<path fill="#FFFFFF" d="M569.647,931.624h-7.268l-14.609-24.44l-0.148,0.025v24.415h-7.268v-36.237h7.268l14.609,24.415
				l0.148-0.024v-24.391h7.268V931.624z"/>
		</g>
	</g>
	<g>
		<rect x="225.577" y="1021.282" fill="#D7D8DC" width="469.098" height="110.947"/>
		<g>
			<g enable-background="new    ">
				<path fill="#262C31" d="M373.79,1080.725h-13.439v10.354h15.978v5.575h-23.246v-36.237h23.196v5.6h-15.928v9.109h13.439
					V1080.725z"/>
				<path fill="#262C31" d="M410.724,1096.654h-7.268l-14.609-24.44l-0.149,0.025v24.415h-7.268v-36.237h7.268l14.609,24.415
					l0.149-0.024v-24.391h7.268V1096.654z"/>
				<path fill="#262C31" d="M441.934,1066.016h-10.354v30.638h-7.268v-30.638h-10.204v-5.6h27.825V1066.016z"/>
				<path fill="#262C31" d="M453.184,1082.168v14.485h-7.268v-36.237h12.543c4.132,0,7.363,0.942,9.694,2.825
					c2.331,1.883,3.497,4.509,3.497,7.877c0,1.858-0.494,3.464-1.48,4.815c-0.988,1.353-2.427,2.443-4.318,3.273
					c2.14,0.631,3.68,1.684,4.617,3.16c0.937,1.478,1.406,3.303,1.406,5.476v2.663c0,1.013,0.137,2.07,0.41,3.173
					c0.273,1.104,0.742,1.921,1.406,2.452v0.522H466.2c-0.664-0.531-1.091-1.41-1.282-2.638c-0.191-1.229-0.286-2.415-0.286-3.56
					v-2.563c0-1.809-0.494-3.215-1.48-4.219c-0.988-1.003-2.386-1.506-4.194-1.506H453.184z M453.184,1076.569h5.152
					c2.041,0,3.559-0.431,4.554-1.294c0.996-0.862,1.494-2.141,1.494-3.833c0-1.659-0.502-2.978-1.506-3.957
					c-1.004-0.979-2.477-1.469-4.418-1.469h-5.276V1076.569z"/>
				<path fill="#262C31" d="M499.102,1080.725h-13.439v10.354h15.979v5.575h-23.246v-36.237h23.196v5.6h-15.929v9.109h13.439
					V1080.725z"/>
				<path fill="#262C31" d="M534.518,1091.7c-1.128,1.478-2.813,2.759-5.052,3.846c-2.24,1.087-5.127,1.63-8.661,1.63
					c-4.381,0-7.965-1.377-10.752-4.131c-2.787-2.755-4.182-6.33-4.182-10.728v-7.565c0-4.381,1.353-7.952,4.057-10.715
					c2.705-2.763,6.182-4.144,10.429-4.144c4.431,0,7.823,1.05,10.179,3.148c2.356,2.099,3.493,4.898,3.41,8.399l-0.05,0.149h-6.845
					c0-1.925-0.555-3.422-1.667-4.492s-2.729-1.605-4.853-1.605c-2.225,0-4.016,0.858-5.377,2.576
					c-1.359,1.717-2.04,3.929-2.04,6.633v7.615c0,2.738,0.696,4.97,2.091,6.695c1.394,1.726,3.26,2.588,5.6,2.588
					c1.725,0,3.09-0.174,4.094-0.522s1.779-0.788,2.327-1.318v-7.019h-6.969v-5.027h14.261V1091.7z"/>
				<path fill="#262C31" d="M559.58,1088.839h-11.747l-2.438,7.814h-7.592l12.221-36.237h7.441l12.17,36.237h-7.591L559.58,1088.839
					z M549.625,1083.139h8.188l-4.006-12.768h-0.15L549.625,1083.139z"/>
			</g>
		</g>
	</g>
	<g>
		<path fill="none" stroke="#70AF9D" stroke-width="10" stroke-miterlimit="10" d="M261.688,85.686H51.799c-2.75,0-5,2.25-5,5
			v160.112c0,2.75,2.25,5,5,5h40.29"/>
	</g>
	<g>
		<path fill="none" stroke="#C55194" stroke-width="10" stroke-miterlimit="10" d="M57.036,421.007H18.611c-2.75,0-5,2.25-5,5
			v150.304c0,2.75,2.25,5,5,5h178.785"/>
	</g>
	<g>
		<path fill="none" stroke="#E6BD53" stroke-width="10" stroke-miterlimit="10" d="M251.077,746.249h-62.66c-2.75,0-5,2.25-5,5
			v155.479c0,2.75,2.25,5,5,5h37.16"/>
	</g>
	<g>
		<path fill="none" stroke="#C55194" stroke-width="10" stroke-miterlimit="10" d="M669.176,754.013h73.535c2.75,0,5,2.25,5,5
			v147.716c0,2.75-2.25,5-5,5h-48.036"/>
	</g>
	<g>
		<path fill="none" stroke="#E6BD53" stroke-width="10" stroke-miterlimit="10" d="M828.16,250.894h89.791c2.75,0,5,2.25,5,5
			v160.112c0,2.75-2.25,5-5,5h-54.735"/>
	</g>
	<g>
		<path fill="none" stroke="#70AF9D" stroke-width="10" stroke-miterlimit="10" d="M722.857,581.311h47.741c2.75,0,5,2.25,5,5
			v151.03c0,2.75-2.25,5-5,5H669.176"/>
	</g>
	<g>
		<circle fill="#C55194" cx="747.713" cy="829.125" r="31.458"/>
		<g>
			<path fill="#FFFFFF" d="M761.524,830.313c0.335,0,0.556,0.166,0.668,0.503c0.109,0.335-0.058,0.784-0.505,1.339
				c-1.34,2.013-3.352,4.333-6.028,6.959c-2.682,2.625-4.977,4.554-6.874,5.781c-1.006,0.67-2.402,1.118-4.191,1.34h-2.345
				c-1.679,0.111-3.074-0.391-4.189-1.508c-1.119-1.117-1.843-2.349-2.181-3.688c-0.228-0.781-0.334-2.064-0.334-3.854l0.168-1.339
				c0-0.448,0.252-1.567,0.752-3.354c0.505-1.786,1.202-3.404,2.095-4.859c1.342-2.235,2.737-4.024,4.191-5.363
				c0.559-0.558,1.176-0.727,1.843-0.502c0.112,0.112,0.339,0.112,0.675,0c0.334-0.109,0.61-0.168,0.835-0.168
				c0.224-0.109,0.614-0.169,1.174-0.169c0.782,0,1.678,0.394,2.684,1.175c1.114,1.118,1.677,2.012,1.677,2.683
				c0,0.448-0.282,1.229-0.839,2.346c-0.563,1.116-1.147,2.179-1.761,3.185c-0.615,1.008-1.205,2.012-1.761,3.02
				c-0.785,1.563-1.451,3.24-2.009,5.023c-0.228,1.455-0.283,2.575-0.171,3.354c0.108,0.67,0.505,0.838,1.176,0.502
				c0.78-0.446,1.479-0.862,2.092-1.258c0.614-0.391,1.146-0.695,1.597-0.922c1.113-0.78,3.57-3.07,7.369-6.871
				c1.454-1.45,2.403-2.347,2.854-2.682C760.63,830.536,761.073,830.313,761.524,830.313z M756.327,817.406
				c0,0.227-0.114,0.448-0.337,0.67c-0.224,0.228-0.504,0.336-0.838,0.336h-0.336l-4.522-1.006
				c-0.227-0.108-0.757-0.418-1.596-0.921c-0.837-0.503-1.535-0.866-2.093-1.091c-0.561-0.445-0.782-1.006-0.672-1.677
				c0.672-1.448,1.563-2.622,2.684-3.52c0.555-0.335,1.115-0.39,1.677-0.167l3.518,2.011c0.895,0.562,1.507,1.398,1.847,2.515
				c0.223,0.562,0.439,1.397,0.67,2.514L756.327,817.406L756.327,817.406z"/>
		</g>
	</g>
	
		<line fill="none" stroke="#C55194" stroke-width="10" stroke-miterlimit="10" x1="460.126" y1="801.992" x2="460.126" y2="856.255"/>
	
		<line fill="none" stroke="#C55194" stroke-width="10" stroke-miterlimit="10" x1="460.126" y1="966.981" x2="460.126" y2="1021.282"/>
</g>
</svg>
