<?xml version="1.0" encoding="utf-8"?>
<!-- Generator: Adobe Illustrator 16.0.0, SVG Export Plug-In . SVG Version: 6.00 Build 0)  -->
<!DOCTYPE svg PUBLIC "-//W3C//DTD SVG 1.1//EN" "http://www.w3.org/Graphics/SVG/1.1/DTD/svg11.dtd">
<svg version="1.1" id="Capa_1" xmlns="http://www.w3.org/2000/svg" xmlns:xlink="http://www.w3.org/1999/xlink" x="0px" y="0px"
	 width="936.563px" height="1160.017px" viewBox="0 0 936.563 1160.017" enable-background="new 0 0 936.563 1160.017"
	 xml:space="preserve">
<g>
	<g>
		<rect x="263.583" y="39.632" fill="#70AF9D" width="393.234" height="109.929"/>
		<g>
			<path fill="#FFFFFF" d="M371.981,103.939h-11.641l-2.416,7.743h-7.521l12.107-35.905h7.373l12.059,35.905h-7.521L371.981,103.939
				z M362.116,98.293h8.113l-3.971-12.65h-0.148L362.116,98.293z"/>
			<path fill="#FFFFFF" d="M414.419,111.683h-7.199l-14.477-24.216l-0.146,0.025v24.19h-7.201V75.777h7.201l14.477,24.191
				l0.146-0.023V75.777h7.199V111.683z"/>
			<path fill="#FFFFFF" d="M440.188,103.939H428.55l-2.416,7.743h-7.521l12.107-35.905h7.373l12.059,35.905h-7.521L440.188,103.939z
				 M430.325,98.293h8.113l-3.971-12.65h-0.148L430.325,98.293z M435.7,65.667h8.016l0.049,0.149l-6.83,6.411h-6.141L435.7,65.667z"
				/>
			<path fill="#FFFFFF" d="M460.806,106.158h16.076v5.524h-23.277V75.777h7.201V106.158z"/>
			<path fill="#FFFFFF" d="M489.362,111.683h-7.203V75.777h7.203V111.683z"/>
			<path fill="#FFFFFF" d="M515.206,102.312c0-1.381-0.482-2.491-1.445-3.328c-0.961-0.839-2.65-1.628-5.066-2.367
				c-4.145-1.249-7.287-2.722-9.434-4.415c-2.145-1.692-3.217-4.004-3.217-6.93c0-2.941,1.209-5.348,3.625-7.213
				c2.418-1.865,5.498-2.799,9.246-2.799c3.979,0,7.182,1.004,9.605,3.01c2.426,2.004,3.596,4.635,3.514,7.891l-0.049,0.148h-6.979
				c0-1.793-0.543-3.17-1.627-4.131c-1.086-0.962-2.605-1.442-4.563-1.442c-1.775,0-3.148,0.427-4.117,1.281
				c-0.971,0.854-1.455,1.949-1.455,3.279c0,1.217,0.525,2.217,1.578,2.996c1.051,0.782,2.869,1.608,5.449,2.479
				c3.945,1.118,6.953,2.576,9.025,4.377c2.07,1.8,3.107,4.172,3.107,7.114c0,3.075-1.201,5.499-3.602,7.275
				c-2.4,1.774-5.572,2.662-9.518,2.662c-3.863,0-7.182-0.962-9.949-2.884c-2.771-1.926-4.115-4.793-4.033-8.607l0.049-0.147h6.98
				c0,2.12,0.623,3.682,1.873,4.685c1.25,1.004,2.941,1.506,5.08,1.506c1.924,0,3.391-0.404,4.402-1.21
				C514.698,104.738,515.206,103.661,515.206,102.312z"/>
			<path fill="#FFFFFF" d="M535.401,111.683H528.2V75.777h7.201V111.683z"/>
			<path fill="#FFFFFF" d="M561.245,102.312c0-1.381-0.48-2.491-1.443-3.328c-0.961-0.839-2.65-1.628-5.068-2.367
				c-4.143-1.249-7.285-2.722-9.432-4.415c-2.145-1.692-3.219-4.004-3.219-6.93c0-2.941,1.209-5.348,3.625-7.213
				c2.418-1.865,5.5-2.799,9.248-2.799c3.979,0,7.18,1.004,9.605,3.01c2.424,2.004,3.596,4.635,3.514,7.891l-0.049,0.148h-6.979
				c0-1.793-0.543-3.17-1.627-4.131c-1.086-0.962-2.607-1.442-4.563-1.442c-1.777,0-3.148,0.427-4.119,1.281
				s-1.455,1.949-1.455,3.279c0,1.217,0.527,2.217,1.58,2.996c1.051,0.782,2.867,1.608,5.447,2.479
				c3.945,1.118,6.955,2.576,9.025,4.377c2.072,1.8,3.109,4.172,3.109,7.114c0,3.075-1.201,5.499-3.602,7.275
				c-2.4,1.774-5.572,2.662-9.518,2.662c-3.863,0-7.182-0.962-9.951-2.884c-2.77-1.926-4.115-4.793-4.033-8.607l0.051-0.147h6.979
				c0,2.12,0.625,3.682,1.875,4.685c1.25,1.004,2.941,1.506,5.08,1.506c1.922,0,3.391-0.404,4.4-1.21
				C560.737,104.738,561.245,103.661,561.245,102.312z"/>
		</g>
	</g>
	<g>
		<rect x="95.54" y="203.326" fill="#E6BD53" width="729.32" height="109.93"/>
		<g>
			<path fill="#FFFFFF" d="M160.017,247.164h-10.258v30.355h-7.203v-30.355h-10.109v-5.549h27.57V247.164z"/>
			<path fill="#FFFFFF" d="M171.163,263.168v14.352h-7.201v-35.904h12.428c4.094,0,7.297,0.934,9.605,2.799
				c2.309,1.867,3.465,4.468,3.465,7.805c0,1.841-0.49,3.432-1.467,4.771c-0.979,1.34-2.404,2.422-4.279,3.243
				c2.121,0.624,3.646,1.669,4.574,3.133c0.93,1.463,1.395,3.271,1.395,5.424v2.64c0,1.002,0.137,2.051,0.406,3.143
				c0.271,1.095,0.736,1.904,1.395,2.43v0.518h-7.424c-0.658-0.525-1.082-1.396-1.27-2.613c-0.189-1.217-0.283-2.393-0.283-3.527
				v-2.539c0-1.793-0.49-3.186-1.467-4.18c-0.979-0.995-2.365-1.492-4.156-1.492H171.163z M171.163,257.62h5.105
				c2.021,0,3.525-0.429,4.512-1.283s1.48-2.12,1.48-3.798c0-1.644-0.5-2.951-1.494-3.922c-0.994-0.968-2.451-1.453-4.377-1.453
				h-5.227V257.62z"/>
			<path fill="#FFFFFF" d="M214.86,269.775h-11.639l-2.416,7.744h-7.523l12.109-35.904h7.373l12.059,35.904h-7.521L214.86,269.775z
				 M204.997,264.13h8.113l-3.971-12.65h-0.148L204.997,264.13z"/>
			<path fill="#FFFFFF" d="M257.298,277.52h-7.199l-14.477-24.215l-0.146,0.023v24.191h-7.201v-35.904h7.201l14.477,24.191
				l0.146-0.025v-24.166h7.199V277.52z"/>
			<path fill="#FFFFFF" d="M282.626,268.148c0-1.381-0.48-2.49-1.443-3.328c-0.963-0.839-2.65-1.627-5.068-2.367
				c-4.143-1.25-7.285-2.721-9.432-4.415c-2.146-1.692-3.219-4.003-3.219-6.929c0-2.943,1.209-5.348,3.625-7.213
				c2.418-1.865,5.5-2.799,9.248-2.799c3.979,0,7.18,1.004,9.605,3.008c2.424,2.006,3.596,4.637,3.514,7.891l-0.049,0.149h-6.979
				c0-1.792-0.545-3.169-1.627-4.131c-1.086-0.962-2.607-1.442-4.563-1.442c-1.777,0-3.148,0.427-4.119,1.281
				c-0.971,0.855-1.455,1.949-1.455,3.279c0,1.217,0.527,2.217,1.578,2.996c1.051,0.781,2.869,1.608,5.449,2.479
				c3.945,1.119,6.955,2.577,9.025,4.378c2.072,1.8,3.107,4.173,3.107,7.114c0,3.074-1.199,5.5-3.6,7.275
				c-2.4,1.774-5.574,2.662-9.52,2.662c-3.863,0-7.18-0.961-9.949-2.885c-2.771-1.924-4.115-4.793-4.033-8.606l0.049-0.147h6.98
				c0,2.121,0.625,3.682,1.875,4.686c1.248,1.003,2.941,1.505,5.078,1.505c1.924,0,3.393-0.403,4.402-1.21
				C282.118,270.574,282.626,269.498,282.626,268.148z"/>
			<path fill="#FFFFFF" d="M322.056,265.633l0.051,0.148c0.064,3.83-1.102,6.832-3.502,9.002s-5.713,3.254-9.938,3.254
				c-4.309,0-7.785-1.385-10.432-4.154s-3.969-6.35-3.969-10.738v-7.127c0-4.374,1.289-7.954,3.869-10.74
				c2.582-2.787,5.969-4.18,10.162-4.18c4.371,0,7.791,1.068,10.258,3.206c2.467,2.136,3.666,5.145,3.6,9.024l-0.049,0.148h-7.004
				c0-2.301-0.555-4.015-1.664-5.143c-1.109-1.125-2.822-1.688-5.141-1.688c-2.156,0-3.836,0.867-5.043,2.601
				c-1.211,1.735-1.813,3.976-1.813,6.72v7.178c0,2.762,0.635,5.013,1.91,6.756c1.273,1.742,3.045,2.613,5.314,2.613
				c2.152,0,3.762-0.563,4.82-1.689c1.061-1.125,1.592-2.855,1.592-5.191H322.056z"/>
			<path fill="#FFFFFF" d="M334.46,263.168v14.352h-7.201v-35.904h12.428c4.094,0,7.297,0.934,9.605,2.799
				c2.311,1.867,3.465,4.468,3.465,7.805c0,1.841-0.488,3.432-1.467,4.771s-2.404,2.422-4.279,3.243
				c2.121,0.624,3.646,1.669,4.576,3.133c0.928,1.463,1.393,3.271,1.393,5.424v2.64c0,1.002,0.137,2.051,0.406,3.143
				c0.271,1.095,0.736,1.904,1.395,2.43v0.518h-7.422c-0.66-0.525-1.082-1.396-1.271-2.613s-0.283-2.393-0.283-3.527v-2.539
				c0-1.793-0.49-3.186-1.467-4.18c-0.979-0.995-2.365-1.492-4.156-1.492H334.46z M334.46,257.62h5.105
				c2.021,0,3.525-0.429,4.512-1.283s1.48-2.12,1.48-3.798c0-1.644-0.498-2.951-1.494-3.922c-0.994-0.968-2.451-1.453-4.377-1.453
				h-5.227V257.62z"/>
			<path fill="#FFFFFF" d="M367.136,277.52h-7.203v-35.904h7.203V277.52z"/>
			<path fill="#FFFFFF" d="M381.462,264.498v13.021h-7.201v-35.904h13.736c4.127,0,7.373,1.053,9.74,3.156
				c2.367,2.105,3.551,4.874,3.551,8.311c0,3.438-1.184,6.199-3.551,8.286s-5.613,3.13-9.74,3.13H381.462z M381.462,258.95h6.535
				c2.004,0,3.525-0.545,4.563-1.64c1.033-1.092,1.553-2.485,1.553-4.18c0-1.725-0.514-3.151-1.541-4.279
				c-1.027-1.125-2.553-1.688-4.574-1.688h-6.535V258.95z"/>
			<path fill="#FFFFFF" d="M433.37,265.633l0.051,0.148c0.064,3.83-1.104,6.832-3.504,9.002c-2.398,2.17-5.711,3.254-9.938,3.254
				c-4.307,0-7.783-1.385-10.43-4.154s-3.971-6.35-3.971-10.738v-7.127c0-4.374,1.291-7.954,3.871-10.74
				c2.582-2.787,5.967-4.18,10.162-4.18c4.371,0,7.791,1.068,10.256,3.206c2.467,2.136,3.666,5.145,3.602,9.024l-0.049,0.148h-7.004
				c0-2.301-0.555-4.015-1.664-5.143c-1.111-1.125-2.824-1.688-5.141-1.688c-2.156,0-3.836,0.867-5.045,2.601
				c-1.209,1.735-1.813,3.976-1.813,6.72v7.178c0,2.762,0.637,5.013,1.912,6.756c1.273,1.742,3.045,2.613,5.313,2.613
				c2.154,0,3.762-0.563,4.822-1.689c1.061-1.125,1.59-2.855,1.59-5.191H433.37z"/>
			<path fill="#FFFFFF" d="M446.269,277.52h-7.201v-35.904h7.201V277.52z"/>
			<path fill="#FFFFFF" d="M482.444,262.798c0,4.423-1.389,8.067-4.168,10.938c-2.777,2.868-6.395,4.302-10.852,4.302
				c-4.438,0-8.039-1.438-10.801-4.314c-2.762-2.877-4.143-6.518-4.143-10.925v-6.461c0-4.39,1.377-8.026,4.131-10.911
				c2.754-2.887,6.342-4.328,10.764-4.328c4.457,0,8.08,1.441,10.875,4.328c2.795,2.885,4.193,6.521,4.193,10.911V262.798z
				 M475.267,256.288c0-2.795-0.697-5.089-2.096-6.88c-1.396-1.792-3.328-2.689-5.795-2.689c-2.432,0-4.328,0.897-5.684,2.689
				c-1.355,1.791-2.033,4.085-2.033,6.88v6.51c0,2.845,0.682,5.162,2.045,6.954c1.365,1.791,3.273,2.688,5.721,2.688
				c2.467,0,4.391-0.896,5.771-2.688c1.381-1.792,2.07-4.109,2.07-6.954V256.288z M468.907,230.986h8.014l0.049,0.147l-6.83,6.411
				h-6.143L468.907,230.986z"/>
			<path fill="#FFFFFF" d="M517.165,277.52h-7.201l-14.475-24.215l-0.146,0.023v24.191h-7.203v-35.904h7.203l14.475,24.191
				l0.146-0.025v-24.166h7.201V277.52z"/>
			<path fill="#FFFFFF" d="M536.351,277.52v-35.904h12.529c4.389,0,8.006,1.402,10.85,4.204c2.844,2.804,4.266,6.399,4.266,10.788
				v5.943c0,4.407-1.422,8.004-4.266,10.789c-2.844,2.787-6.461,4.18-10.85,4.18H536.351z M543.554,247.164v24.832h5.326
				c2.367,0,4.273-0.883,5.721-2.652c1.445-1.766,2.17-4.03,2.17-6.793v-5.992c0-2.746-0.725-4.997-2.17-6.756
				c-1.447-1.76-3.354-2.639-5.721-2.639H543.554z"/>
			<path fill="#FFFFFF" d="M590.282,261.736h-13.314v10.26h15.83v5.523h-23.033v-35.904h22.984v5.549h-15.781v9.024h13.314V261.736z
				"/>
			<path fill="#FFFFFF" d="M605.056,271.996h16.076v5.523h-23.279v-35.904h7.203V271.996z"/>
			<path fill="#FFFFFF" d="M666.013,272.613c-1.119,1.463-2.787,2.732-5.006,3.809c-2.219,1.077-5.08,1.615-8.582,1.615
				c-4.34,0-7.891-1.363-10.652-4.094c-2.762-2.729-4.143-6.27-4.143-10.628v-7.495c0-4.341,1.338-7.881,4.018-10.617
				s6.125-4.105,10.334-4.105c4.389,0,7.75,1.04,10.086,3.119c2.334,2.08,3.459,4.854,3.377,8.322l-0.049,0.148h-6.781
				c0-1.907-0.551-3.392-1.65-4.451c-1.104-1.061-2.707-1.59-4.811-1.59c-2.203,0-3.979,0.851-5.326,2.552
				c-1.35,1.7-2.021,3.893-2.021,6.572v7.545c0,2.713,0.689,4.925,2.07,6.634s3.23,2.564,5.549,2.564
				c1.709,0,3.061-0.172,4.057-0.518c0.994-0.344,1.764-0.781,2.307-1.308v-6.954h-6.904v-4.981h14.129V272.613z"/>
			<path fill="#FFFFFF" d="M700.585,241.615v23.5c0,4.045-1.34,7.209-4.018,9.494c-2.682,2.287-6.158,3.428-10.434,3.428
				c-4.258,0-7.713-1.141-10.369-3.428c-2.654-2.285-3.982-5.449-3.982-9.494v-23.5h7.225v23.5c0,2.4,0.643,4.234,1.926,5.5
				c1.281,1.266,3.016,1.898,5.201,1.898c2.221,0,3.979-0.633,5.277-1.898s1.949-3.1,1.949-5.5v-23.5H700.585z"/>
			<path fill="#FFFFFF" d="M714.519,277.52h-7.201v-35.904h7.201V277.52z"/>
			<path fill="#FFFFFF" d="M750.694,262.798c0,4.423-1.389,8.067-4.168,10.938c-2.777,2.868-6.395,4.302-10.852,4.302
				c-4.438,0-8.039-1.438-10.801-4.314c-2.762-2.877-4.143-6.518-4.143-10.925v-6.461c0-4.39,1.377-8.026,4.131-10.911
				c2.754-2.887,6.342-4.328,10.764-4.328c4.457,0,8.08,1.441,10.875,4.328c2.795,2.885,4.193,6.521,4.193,10.911V262.798z
				 M743.517,256.288c0-2.795-0.697-5.089-2.096-6.88c-1.396-1.792-3.328-2.689-5.795-2.689c-2.432,0-4.328,0.897-5.684,2.689
				c-1.355,1.791-2.033,4.085-2.033,6.88v6.51c0,2.845,0.682,5.162,2.045,6.954c1.365,1.791,3.273,2.688,5.721,2.688
				c2.467,0,4.391-0.896,5.771-2.688c1.381-1.792,2.07-4.109,2.07-6.954V256.288z M737.157,230.986h8.014l0.049,0.147l-6.83,6.411
				h-6.143L737.157,230.986z"/>
			<path fill="#FFFFFF" d="M785.415,277.52h-7.201l-14.475-24.215l-0.146,0.023v24.191h-7.203v-35.904h7.203l14.475,24.191
				l0.146-0.025v-24.166h7.201V277.52z"/>
		</g>
	</g>
	<g>
		<rect x="60.81" y="367.02" fill="#C55194" width="798.783" height="109.93"/>
		<g>
			<path fill="#FFFFFF" d="M125.036,413h-10.258v30.357h-7.201V413H97.466v-5.548h27.57V413z"/>
			<path fill="#FFFFFF" d="M136.183,429.006v14.352h-7.201v-35.905h12.428c4.094,0,7.297,0.934,9.605,2.799
				c2.311,1.866,3.465,4.468,3.465,7.805c0,1.841-0.488,3.432-1.467,4.772c-0.979,1.339-2.404,2.421-4.279,3.242
				c2.121,0.625,3.646,1.67,4.576,3.133c0.928,1.463,1.393,3.271,1.393,5.424v2.641c0,1.001,0.137,2.05,0.406,3.143
				c0.271,1.094,0.736,1.903,1.395,2.43v0.518h-7.422c-0.66-0.526-1.082-1.396-1.271-2.613s-0.283-2.394-0.283-3.527v-2.541
				c0-1.791-0.49-3.185-1.467-4.18c-0.979-0.994-2.365-1.49-4.156-1.49H136.183z M136.183,423.457h5.105
				c2.021,0,3.525-0.428,4.512-1.283c0.986-0.854,1.48-2.12,1.48-3.798c0-1.644-0.498-2.95-1.494-3.921
				c-0.994-0.969-2.451-1.455-4.377-1.455h-5.227V423.457z"/>
			<path fill="#FFFFFF" d="M179.88,435.613h-11.639l-2.416,7.744h-7.521l12.107-35.905h7.373l12.059,35.905h-7.521L179.88,435.613z
				 M170.017,429.967h8.113l-3.971-12.65h-0.148L170.017,429.967z"/>
			<path fill="#FFFFFF" d="M193.294,443.357v-35.905h12.527c4.391,0,8.006,1.401,10.852,4.204c2.844,2.804,4.264,6.399,4.264,10.789
				v5.943c0,4.406-1.42,8.002-4.264,10.789c-2.846,2.786-6.461,4.18-10.852,4.18H193.294z M200.495,413v24.834h5.326
				c2.367,0,4.275-0.883,5.723-2.652c1.445-1.766,2.168-4.031,2.168-6.793v-5.992c0-2.746-0.723-4.998-2.168-6.756
				c-1.447-1.761-3.355-2.641-5.723-2.641H200.495z"/>
			<path fill="#FFFFFF" d="M255.165,407.452v23.501c0,4.045-1.34,7.209-4.018,9.494c-2.682,2.285-6.158,3.428-10.434,3.428
				c-4.258,0-7.713-1.143-10.369-3.428c-2.654-2.285-3.982-5.449-3.982-9.494v-23.501h7.225v23.501c0,2.4,0.643,4.233,1.926,5.499
				c1.281,1.266,3.016,1.898,5.201,1.898c2.221,0,3.979-0.633,5.277-1.898s1.949-3.099,1.949-5.499v-23.501H255.165z"/>
			<path fill="#FFFFFF" d="M288.333,431.471l0.051,0.148c0.064,3.83-1.104,6.831-3.504,9c-2.398,2.172-5.711,3.256-9.938,3.256
				c-4.307,0-7.783-1.385-10.43-4.156c-2.646-2.768-3.971-6.348-3.971-10.738v-7.126c0-4.374,1.291-7.954,3.871-10.74
				c2.582-2.786,5.967-4.179,10.162-4.179c4.371,0,7.791,1.067,10.256,3.205c2.467,2.137,3.666,5.145,3.602,9.025l-0.049,0.148
				h-7.004c0-2.303-0.555-4.016-1.664-5.143c-1.111-1.126-2.824-1.689-5.141-1.689c-2.156,0-3.836,0.867-5.045,2.602
				c-1.209,1.736-1.813,3.975-1.813,6.72v7.177c0,2.763,0.637,5.014,1.912,6.757c1.273,1.743,3.045,2.613,5.313,2.613
				c2.154,0,3.762-0.563,4.822-1.688c1.061-1.126,1.59-2.856,1.59-5.191H288.333z"/>
			<path fill="#FFFFFF" d="M320.466,431.471l0.051,0.148c0.064,3.83-1.104,6.831-3.504,9c-2.4,2.172-5.713,3.256-9.938,3.256
				c-4.307,0-7.783-1.385-10.43-4.156c-2.646-2.768-3.971-6.348-3.971-10.738v-7.126c0-4.374,1.291-7.954,3.871-10.74
				c2.582-2.786,5.967-4.179,10.16-4.179c4.373,0,7.791,1.067,10.258,3.205c2.467,2.137,3.666,5.145,3.602,9.025l-0.049,0.148
				h-7.004c0-2.303-0.555-4.016-1.664-5.143c-1.111-1.126-2.824-1.689-5.143-1.689c-2.154,0-3.834,0.867-5.043,2.602
				c-1.209,1.736-1.813,3.975-1.813,6.72v7.177c0,2.763,0.637,5.014,1.91,6.757c1.275,1.743,3.047,2.613,5.314,2.613
				c2.154,0,3.762-0.563,4.822-1.688c1.061-1.126,1.59-2.856,1.59-5.191H320.466z"/>
			<path fill="#FFFFFF" d="M333.362,443.357h-7.201v-35.905h7.201V443.357z"/>
			<path fill="#FFFFFF" d="M369.54,428.635c0,4.423-1.389,8.067-4.168,10.938c-2.779,2.869-6.395,4.303-10.852,4.303
				c-4.438,0-8.039-1.439-10.801-4.314c-2.762-2.877-4.143-6.519-4.143-10.926v-6.461c0-4.389,1.377-8.026,4.131-10.91
				c2.752-2.887,6.342-4.328,10.764-4.328c4.457,0,8.08,1.441,10.875,4.328c2.795,2.884,4.193,6.521,4.193,10.91V428.635z
				 M362.362,422.125c0-2.795-0.697-5.088-2.096-6.88c-1.396-1.792-3.328-2.688-5.795-2.688c-2.434,0-4.328,0.896-5.684,2.688
				s-2.033,4.085-2.033,6.88v6.51c0,2.844,0.682,5.162,2.045,6.954c1.365,1.792,3.271,2.688,5.721,2.688
				c2.467,0,4.391-0.896,5.771-2.688s2.07-4.11,2.07-6.954V422.125z M356.001,396.824h8.016l0.049,0.146l-6.832,6.412h-6.141
				L356.001,396.824z"/>
			<path fill="#FFFFFF" d="M404.261,443.357h-7.201l-14.475-24.216l-0.148,0.024v24.191h-7.201v-35.905h7.201l14.477,24.191
				l0.146-0.024v-24.167h7.201V443.357z"/>
			<path fill="#FFFFFF" d="M423.444,443.357v-35.905h12.529c4.389,0,8.006,1.401,10.85,4.204c2.844,2.804,4.266,6.399,4.266,10.789
				v5.943c0,4.406-1.422,8.002-4.266,10.789c-2.844,2.786-6.461,4.18-10.85,4.18H423.444z M430.647,413v24.834h5.326
				c2.367,0,4.273-0.883,5.721-2.652c1.445-1.766,2.17-4.031,2.17-6.793v-5.992c0-2.746-0.725-4.998-2.17-6.756
				c-1.447-1.761-3.354-2.641-5.721-2.641H430.647z"/>
			<path fill="#FFFFFF" d="M477.376,427.574h-13.314v10.26h15.83v5.523h-23.033v-35.905h22.984V413h-15.781v9.025h13.314V427.574z"
				/>
			<path fill="#FFFFFF" d="M516.241,433.986c0-1.381-0.48-2.492-1.443-3.328c-0.961-0.84-2.65-1.628-5.068-2.367
				c-4.143-1.25-7.285-2.723-9.432-4.416c-2.145-1.691-3.219-4.003-3.219-6.93c0-2.941,1.211-5.347,3.625-7.212
				c2.418-1.865,5.5-2.798,9.248-2.798c3.979,0,7.182,1.002,9.605,3.008c2.424,2.005,3.596,4.636,3.514,7.891l-0.049,0.148h-6.979
				c0-1.791-0.543-3.169-1.627-4.131c-1.086-0.961-2.607-1.441-4.563-1.441c-1.775,0-3.148,0.426-4.119,1.281
				c-0.969,0.854-1.453,1.949-1.453,3.279c0,1.217,0.525,2.217,1.578,2.996c1.051,0.781,2.869,1.607,5.449,2.479
				c3.945,1.119,6.953,2.576,9.023,4.377c2.072,1.801,3.109,4.173,3.109,7.115c0,3.074-1.201,5.498-3.602,7.275
				c-2.4,1.773-5.572,2.662-9.518,2.662c-3.863,0-7.182-0.962-9.951-2.885c-2.77-1.925-4.113-4.793-4.031-8.607l0.049-0.146h6.979
				c0,2.12,0.625,3.682,1.875,4.685s2.941,1.505,5.08,1.505c1.922,0,3.391-0.404,4.4-1.209
				C515.735,436.412,516.241,435.336,516.241,433.986z"/>
			<path fill="#FFFFFF" d="M557.202,407.452v23.501c0,4.045-1.342,7.209-4.02,9.494c-2.682,2.285-6.158,3.428-10.432,3.428
				c-4.258,0-7.715-1.143-10.369-3.428c-2.656-2.285-3.982-5.449-3.982-9.494v-23.501h7.225v23.501c0,2.4,0.641,4.233,1.924,5.499
				c1.281,1.266,3.016,1.898,5.203,1.898c2.221,0,3.979-0.633,5.277-1.898s1.949-3.099,1.949-5.499v-23.501H557.202z"/>
			<path fill="#FFFFFF" d="M563.438,443.357v-35.905h11.764c4.225,0,7.521,0.827,9.889,2.479c2.367,1.651,3.551,4.105,3.551,7.36
				c0,1.644-0.428,3.115-1.283,4.413c-0.854,1.299-2.104,2.278-3.746,2.936c2.234,0.411,3.92,1.381,5.055,2.908
				c1.135,1.53,1.701,3.314,1.701,5.354c0,3.435-1.135,6.037-3.402,7.803c-2.27,1.77-5.484,2.652-9.643,2.652H563.438z
				 M570.642,422.494h4.809c1.922,0,3.4-0.393,4.438-1.184c1.035-0.788,1.555-1.938,1.555-3.452c0-1.661-0.523-2.884-1.566-3.675
				c-1.045-0.788-2.604-1.184-4.674-1.184h-4.561V422.494z M570.642,427.477v10.357h6.682c1.908,0,3.361-0.415,4.365-1.245
				c1.002-0.831,1.504-2.06,1.504-3.687c0-1.743-0.494-3.084-1.479-4.021c-0.988-0.936-2.477-1.404-4.465-1.404H570.642z"/>
			<path fill="#FFFFFF" d="M614.339,433.986c0-1.381-0.48-2.492-1.443-3.328c-0.963-0.84-2.65-1.628-5.068-2.367
				c-4.143-1.25-7.285-2.723-9.432-4.416c-2.146-1.691-3.219-4.003-3.219-6.93c0-2.941,1.209-5.347,3.625-7.212
				c2.418-1.865,5.5-2.798,9.248-2.798c3.979,0,7.18,1.002,9.605,3.008c2.424,2.005,3.596,4.636,3.514,7.891l-0.049,0.148h-6.979
				c0-1.791-0.545-3.169-1.629-4.131c-1.084-0.961-2.605-1.441-4.561-1.441c-1.777,0-3.148,0.426-4.119,1.281
				c-0.971,0.854-1.455,1.949-1.455,3.279c0,1.217,0.527,2.217,1.578,2.996c1.051,0.781,2.869,1.607,5.449,2.479
				c3.945,1.119,6.953,2.576,9.025,4.377s3.107,4.173,3.107,7.115c0,3.074-1.201,5.498-3.6,7.275c-2.4,1.773-5.574,2.662-9.52,2.662
				c-3.863,0-7.18-0.962-9.949-2.885c-2.771-1.925-4.115-4.793-4.033-8.607l0.049-0.146h6.98c0,2.12,0.625,3.682,1.875,4.685
				c1.248,1.003,2.941,1.505,5.078,1.505c1.924,0,3.393-0.404,4.402-1.209S614.339,435.336,614.339,433.986z"/>
			<path fill="#FFFFFF" d="M651.87,413h-10.256v30.357h-7.203V413H624.3v-5.548h27.57V413z"/>
			<path fill="#FFFFFF" d="M663.511,443.357h-7.201v-35.905h7.201V443.357z"/>
			<path fill="#FFFFFF" d="M694.952,413h-10.258v30.357h-7.203V413h-10.109v-5.548h27.57V413z"/>
			<path fill="#FFFFFF" d="M727.354,407.452v23.501c0,4.045-1.34,7.209-4.018,9.494c-2.682,2.285-6.158,3.428-10.434,3.428
				c-4.258,0-7.713-1.143-10.369-3.428c-2.654-2.285-3.982-5.449-3.982-9.494v-23.501h7.225v23.501c0,2.4,0.643,4.233,1.926,5.499
				c1.281,1.266,3.016,1.898,5.201,1.898c2.221,0,3.979-0.633,5.277-1.898s1.949-3.099,1.949-5.499v-23.501H727.354z"/>
			<path fill="#FFFFFF" d="M740.794,437.834h16.076v5.523h-23.277v-35.905h7.201V437.834z"/>
			<path fill="#FFFFFF" d="M790.091,428.635c0,4.423-1.391,8.067-4.17,10.938c-2.777,2.869-6.395,4.303-10.85,4.303
				c-4.438,0-8.039-1.439-10.801-4.314c-2.762-2.877-4.143-6.519-4.143-10.926v-6.461c0-4.389,1.377-8.026,4.131-10.91
				c2.752-2.887,6.342-4.328,10.764-4.328c4.455,0,8.08,1.441,10.875,4.328c2.795,2.884,4.193,6.521,4.193,10.91V428.635z
				 M782.913,422.125c0-2.795-0.697-5.088-2.096-6.88c-1.396-1.792-3.328-2.688-5.795-2.688c-2.434,0-4.328,0.896-5.686,2.688
				c-1.354,1.792-2.031,4.085-2.031,6.88v6.51c0,2.844,0.682,5.162,2.045,6.954c1.365,1.792,3.271,2.688,5.721,2.688
				c2.467,0,4.389-0.896,5.77-2.688c1.383-1.792,2.072-4.11,2.072-6.954V422.125z"/>
			<path fill="#FFFFFF" d="M814.505,433.986c0-1.381-0.482-2.492-1.445-3.328c-0.961-0.84-2.65-1.628-5.066-2.367
				c-4.145-1.25-7.287-2.723-9.434-4.416c-2.145-1.691-3.217-4.003-3.217-6.93c0-2.941,1.209-5.347,3.625-7.212
				c2.418-1.865,5.498-2.798,9.246-2.798c3.979,0,7.182,1.002,9.605,3.008c2.426,2.005,3.596,4.636,3.514,7.891l-0.049,0.148h-6.979
				c0-1.791-0.543-3.169-1.627-4.131c-1.086-0.961-2.605-1.441-4.563-1.441c-1.775,0-3.148,0.426-4.117,1.281
				c-0.971,0.854-1.455,1.949-1.455,3.279c0,1.217,0.525,2.217,1.578,2.996c1.051,0.781,2.869,1.607,5.449,2.479
				c3.945,1.119,6.953,2.576,9.025,4.377c2.07,1.801,3.107,4.173,3.107,7.115c0,3.074-1.201,5.498-3.602,7.275
				c-2.4,1.773-5.572,2.662-9.518,2.662c-3.863,0-7.182-0.962-9.949-2.885c-2.771-1.925-4.115-4.793-4.033-8.607l0.049-0.146h6.98
				c0,2.12,0.623,3.682,1.873,4.685s2.941,1.505,5.08,1.505c1.924,0,3.391-0.404,4.402-1.209
				C813.997,436.412,814.505,435.336,814.505,433.986z"/>
		</g>
	</g>
	<g>
		<rect x="199.88" y="530.713" fill="#70AF9D" width="520.643" height="109.928"/>
		<g>
			<path fill="#FFFFFF" d="M304.438,596.502c0-1.381-0.48-2.491-1.445-3.328c-0.961-0.84-2.648-1.628-5.066-2.367
				c-4.143-1.25-7.287-2.722-9.434-4.416c-2.145-1.691-3.217-4.002-3.217-6.929c0-2.942,1.209-5.347,3.625-7.212
				c2.418-1.865,5.5-2.799,9.246-2.799c3.98,0,7.182,1.003,9.607,3.008c2.424,2.006,3.596,4.636,3.512,7.891l-0.049,0.148h-6.977
				c0-1.791-0.545-3.169-1.629-4.131c-1.084-0.961-2.605-1.441-4.563-1.441c-1.775,0-3.148,0.426-4.117,1.281
				c-0.971,0.854-1.455,1.949-1.455,3.279c0,1.217,0.525,2.217,1.578,2.996c1.051,0.781,2.869,1.608,5.449,2.479
				c3.945,1.119,6.953,2.576,9.025,4.377c2.07,1.801,3.107,4.173,3.107,7.115c0,3.074-1.201,5.499-3.602,7.275
				c-2.398,1.773-5.572,2.662-9.518,2.662c-3.863,0-7.18-0.961-9.949-2.885c-2.771-1.924-4.115-4.793-4.033-8.607l0.049-0.146h6.98
				c0,2.121,0.623,3.682,1.873,4.685s2.943,1.505,5.08,1.505c1.924,0,3.393-0.403,4.402-1.209
				C303.931,598.928,304.438,597.852,304.438,596.502z"/>
			<path fill="#FFFFFF" d="M324.142,592.852v13.021h-7.201v-35.904h13.736c4.127,0,7.373,1.052,9.74,3.156
				c2.367,2.105,3.551,4.873,3.551,8.311c0,3.437-1.184,6.198-3.551,8.285c-2.367,2.088-5.613,3.131-9.74,3.131H324.142z
				 M324.142,587.304h6.535c2.004,0,3.525-0.546,4.563-1.64c1.033-1.093,1.553-2.486,1.553-4.18c0-1.726-0.514-3.152-1.541-4.279
				c-1.027-1.126-2.553-1.688-4.574-1.688h-6.535V587.304z"/>
			<path fill="#FFFFFF" d="M378.171,591.15c0,4.424-1.391,8.068-4.17,10.938c-2.777,2.869-6.395,4.303-10.85,4.303
				c-4.438,0-8.039-1.439-10.801-4.314c-2.762-2.877-4.143-6.519-4.143-10.926v-6.46c0-4.39,1.377-8.027,4.129-10.911
				c2.754-2.887,6.344-4.328,10.766-4.328c4.455,0,8.08,1.441,10.875,4.328c2.795,2.884,4.193,6.521,4.193,10.911V591.15z
				 M370.993,584.641c0-2.795-0.697-5.088-2.096-6.88c-1.396-1.792-3.328-2.688-5.795-2.688c-2.434,0-4.328,0.896-5.686,2.688
				c-1.354,1.792-2.033,4.085-2.033,6.88v6.51c0,2.845,0.684,5.162,2.047,6.954c1.365,1.792,3.271,2.688,5.721,2.688
				c2.467,0,4.389-0.896,5.77-2.688s2.072-4.109,2.072-6.954V584.641z"/>
			<path fill="#FFFFFF" d="M408.229,575.517h-10.258v30.356h-7.201v-30.356h-10.111v-5.548h27.57V575.517z"/>
			<path fill="#FFFFFF" d="M437.601,575.517h-10.258v30.356h-7.201v-30.356H410.03v-5.548h27.57V575.517z"/>
			<path fill="#FFFFFF" d="M449.241,605.873h-7.203v-35.904h7.203V605.873z"/>
			<path fill="#FFFFFF" d="M485.39,605.873h-7.199l-14.477-24.216l-0.146,0.024v24.191h-7.201v-35.904h7.201l14.477,24.19
				l0.146-0.024v-24.166h7.199V605.873z"/>
			<path fill="#FFFFFF" d="M519.521,600.967c-1.119,1.463-2.785,2.731-5.006,3.809c-2.219,1.076-5.08,1.615-8.582,1.615
				c-4.34,0-7.891-1.363-10.652-4.094c-2.762-2.729-4.143-6.271-4.143-10.629v-7.495c0-4.341,1.34-7.88,4.02-10.616
				c2.68-2.737,6.123-4.105,10.332-4.105c4.389,0,7.752,1.039,10.086,3.118c2.334,2.08,3.459,4.854,3.377,8.322l-0.049,0.148h-6.779
				c0-1.907-0.551-3.392-1.652-4.45c-1.104-1.061-2.707-1.591-4.809-1.591c-2.205,0-3.979,0.851-5.326,2.552
				c-1.35,1.701-2.023,3.893-2.023,6.573v7.544c0,2.713,0.691,4.925,2.072,6.635c1.381,1.709,3.23,2.564,5.547,2.564
				c1.711,0,3.063-0.172,4.059-0.518c0.992-0.345,1.762-0.781,2.305-1.309v-6.953h-6.904v-4.982h14.129V600.967z"/>
			<path fill="#FFFFFF" d="M545.415,600.35h16.076v5.523h-23.277v-35.904h7.201V600.35z"/>
			<path fill="#FFFFFF" d="M573.972,605.873h-7.203v-35.904h7.203V605.873z"/>
			<path fill="#FFFFFF" d="M599.813,596.502c0-1.381-0.48-2.491-1.443-3.328c-0.961-0.84-2.65-1.628-5.068-2.367
				c-4.143-1.25-7.285-2.722-9.432-4.416c-2.145-1.691-3.219-4.002-3.219-6.929c0-2.942,1.211-5.347,3.627-7.212
				s5.498-2.799,9.246-2.799c3.979,0,7.182,1.003,9.605,3.008c2.424,2.006,3.596,4.636,3.514,7.891l-0.049,0.148h-6.979
				c0-1.791-0.543-3.169-1.627-4.131c-1.086-0.961-2.607-1.441-4.563-1.441c-1.775,0-3.148,0.426-4.119,1.281
				c-0.969,0.854-1.453,1.949-1.453,3.279c0,1.217,0.525,2.217,1.578,2.996c1.051,0.781,2.869,1.608,5.449,2.479
				c3.945,1.119,6.953,2.576,9.023,4.377c2.072,1.801,3.109,4.173,3.109,7.115c0,3.074-1.201,5.499-3.602,7.275
				c-2.4,1.773-5.572,2.662-9.518,2.662c-3.863,0-7.182-0.961-9.951-2.885s-4.113-4.793-4.031-8.607l0.049-0.146h6.98
				c0,2.121,0.623,3.682,1.873,4.685s2.941,1.505,5.08,1.505c1.922,0,3.391-0.403,4.4-1.209
				C599.308,598.928,599.813,597.852,599.813,596.502z"/>
			<path fill="#FFFFFF" d="M637.347,575.517h-10.258v30.356h-7.201v-30.356h-10.111v-5.548h27.57V575.517z"/>
		</g>
	</g>
	<g>
		<rect x="253.069" y="694.404" fill="#E6BD53" width="414.264" height="109.93"/>
		<g>
			<path fill="#FFFFFF" d="M387.194,754.349H373.88v10.259h15.83v5.524h-23.033v-35.905h22.984v5.549H373.88v9.025h13.314V754.349z"
				/>
			<path fill="#FFFFFF" d="M394.765,770.132v-35.905h12.527c4.391,0,8.008,1.402,10.852,4.204c2.844,2.804,4.266,6.399,4.266,10.789
				v5.943c0,4.407-1.422,8.003-4.266,10.789s-6.461,4.18-10.852,4.18H394.765z M401.966,739.775v24.832h5.326
				c2.367,0,4.275-0.883,5.723-2.651c1.445-1.766,2.17-4.03,2.17-6.793v-5.992c0-2.746-0.725-4.997-2.17-6.757
				c-1.447-1.76-3.355-2.639-5.723-2.639H401.966z"/>
			<path fill="#FFFFFF" d="M435.874,770.132h-7.203v-35.905h7.203V770.132z"/>
			<path fill="#FFFFFF" d="M469.929,758.245l0.051,0.148c0.064,3.83-1.104,6.831-3.504,9.001c-2.398,2.171-5.711,3.254-9.938,3.254
				c-4.307,0-7.783-1.384-10.43-4.154c-2.646-2.77-3.971-6.35-3.971-10.738v-7.127c0-4.373,1.291-7.953,3.871-10.74
				c2.582-2.786,5.967-4.18,10.162-4.18c4.371,0,7.791,1.068,10.256,3.207c2.467,2.135,3.666,5.145,3.602,9.024l-0.049,0.148h-7.004
				c0-2.302-0.555-4.015-1.664-5.143c-1.111-1.126-2.824-1.688-5.141-1.688c-2.156,0-3.836,0.867-5.043,2.602
				c-1.211,1.735-1.814,3.975-1.814,6.719v7.178c0,2.762,0.637,5.014,1.912,6.756c1.273,1.743,3.045,2.613,5.313,2.613
				c2.154,0,3.762-0.563,4.822-1.688s1.59-2.856,1.59-5.191H469.929z"/>
			<path fill="#FFFFFF" d="M482.825,770.132h-7.201v-35.905h7.201V770.132z"/>
			<path fill="#FFFFFF" d="M519.003,755.41c0,4.422-1.389,8.066-4.168,10.938c-2.777,2.868-6.395,4.301-10.85,4.301
				c-4.439,0-8.041-1.438-10.803-4.313c-2.762-2.878-4.143-6.519-4.143-10.925v-6.461c0-4.39,1.377-8.027,4.131-10.912
				c2.754-2.886,6.342-4.328,10.764-4.328c4.457,0,8.08,1.442,10.875,4.328c2.795,2.885,4.193,6.522,4.193,10.912V755.41z
				 M511.825,748.9c0-2.795-0.697-5.089-2.096-6.881c-1.396-1.791-3.328-2.688-5.795-2.688c-2.432,0-4.328,0.897-5.684,2.688
				c-1.355,1.792-2.033,4.086-2.033,6.881v6.51c0,2.844,0.682,5.162,2.045,6.953c1.365,1.792,3.273,2.688,5.723,2.688
				c2.465,0,4.389-0.896,5.77-2.688c1.381-1.791,2.07-4.109,2.07-6.953V748.9z M505.466,723.599h8.014l0.049,0.147l-6.83,6.411
				h-6.143L505.466,723.599z"/>
			<path fill="#FFFFFF" d="M553.722,770.132h-7.201l-14.475-24.216l-0.146,0.024v24.191h-7.203v-35.905h7.203l14.475,24.191
				l0.146-0.024v-24.167h7.201V770.132z"/>
		</g>
	</g>
	<g>
		<rect x="227.804" y="858.099" fill="#C55194" width="464.795" height="109.93"/>
		<g>
			<path fill="#FFFFFF" d="M358.886,918.424v14.352h-7.201V896.87h12.428c4.094,0,7.297,0.934,9.605,2.799
				c2.311,1.867,3.465,4.468,3.465,7.806c0,1.84-0.488,3.431-1.467,4.771c-0.979,1.339-2.404,2.421-4.279,3.242
				c2.121,0.625,3.646,1.67,4.574,3.133c0.93,1.463,1.395,3.271,1.395,5.424v2.641c0,1.001,0.137,2.05,0.406,3.143
				c0.271,1.094,0.736,1.903,1.395,2.43v0.518h-7.424c-0.658-0.526-1.082-1.396-1.27-2.613c-0.189-1.217-0.283-2.393-0.283-3.527
				v-2.541c0-1.791-0.49-3.184-1.467-4.179c-0.979-0.995-2.365-1.491-4.156-1.491H358.886z M358.886,912.875h5.105
				c2.021,0,3.525-0.428,4.512-1.283c0.986-0.854,1.48-2.119,1.48-3.798c0-1.644-0.498-2.95-1.494-3.921
				c-0.994-0.969-2.451-1.455-4.377-1.455h-5.227V912.875z"/>
			<path fill="#FFFFFF" d="M404.382,916.992h-13.314v10.26h15.83v5.523h-23.031V896.87h22.982v5.548h-15.781v9.025h13.314V916.992z"
				/>
			<path fill="#FFFFFF" d="M424.185,923.035l0.443,1.972h0.148l0.42-1.898l7.818-26.238h7.594l-12.205,35.905h-7.398l-12.182-35.905
				h7.594L424.185,923.035z"/>
			<path fill="#FFFFFF" d="M451.778,932.775h-7.201V896.87h7.201V932.775z"/>
			<path fill="#FFFFFF" d="M477.624,923.404c0-1.381-0.48-2.491-1.443-3.328c-0.963-0.84-2.65-1.628-5.068-2.367
				c-4.143-1.25-7.285-2.722-9.432-4.416c-2.146-1.691-3.219-4.003-3.219-6.93c0-2.941,1.209-5.347,3.625-7.212
				c2.418-1.864,5.5-2.798,9.248-2.798c3.979,0,7.18,1.003,9.605,3.008c2.424,2.005,3.596,4.636,3.514,7.891l-0.049,0.148h-6.979
				c0-1.791-0.545-3.169-1.627-4.131c-1.086-0.961-2.607-1.441-4.563-1.441c-1.777,0-3.148,0.426-4.119,1.281
				c-0.971,0.854-1.455,1.949-1.455,3.279c0,1.217,0.527,2.217,1.58,2.996c1.049,0.781,2.867,1.607,5.447,2.479
				c3.945,1.119,6.955,2.576,9.025,4.377c2.072,1.801,3.107,4.173,3.107,7.115c0,3.074-1.199,5.499-3.6,7.275
				c-2.4,1.773-5.574,2.662-9.52,2.662c-3.863,0-7.18-0.962-9.949-2.885c-2.77-1.924-4.115-4.793-4.033-8.607l0.049-0.146h6.98
				c0,2.12,0.625,3.682,1.875,4.685c1.248,1.003,2.941,1.505,5.078,1.505c1.924,0,3.393-0.403,4.402-1.209
				C477.116,925.83,477.624,924.754,477.624,923.404z"/>
			<path fill="#FFFFFF" d="M497.819,932.775h-7.203V896.87h7.203V932.775z"/>
			<path fill="#FFFFFF" d="M533.997,918.053c0,4.423-1.391,8.068-4.17,10.938c-2.777,2.869-6.395,4.303-10.85,4.303
				c-4.438,0-8.039-1.439-10.801-4.314c-2.762-2.877-4.143-6.519-4.143-10.926v-6.461c0-4.389,1.377-8.026,4.129-10.91
				c2.754-2.887,6.344-4.328,10.766-4.328c4.455,0,8.08,1.441,10.875,4.328c2.795,2.884,4.193,6.521,4.193,10.91V918.053z
				 M526.819,911.543c0-2.795-0.697-5.088-2.096-6.88c-1.396-1.792-3.328-2.688-5.795-2.688c-2.434,0-4.328,0.896-5.686,2.688
				c-1.354,1.792-2.033,4.085-2.033,6.88v6.51c0,2.845,0.682,5.162,2.047,6.954s3.271,2.688,5.721,2.688
				c2.467,0,4.389-0.896,5.77-2.688s2.072-4.109,2.072-6.954V911.543z M520.458,886.242h8.016l0.049,0.146l-6.832,6.412h-6.141
				L520.458,886.242z"/>
			<path fill="#FFFFFF" d="M568.716,932.775h-7.199L547.04,908.56l-0.146,0.024v24.191h-7.201V896.87h7.201l14.477,24.191
				l0.146-0.024V896.87h7.199V932.775z"/>
		</g>
	</g>
	<g>
		<rect x="227.804" y="1021.613" fill="#D7D8DC" width="464.795" height="109.929"/>
		<g>
			<g>
				<path fill="#262C31" d="M375.013,1080.506h-13.316v10.26h15.83v5.523h-23.031v-35.904h22.982v5.548h-15.781v9.025h13.316
					V1080.506z"/>
				<path fill="#262C31" d="M411.606,1096.289h-7.199l-14.477-24.215l-0.146,0.023v24.191h-7.201v-35.904h7.201l14.477,24.191
					l0.146-0.025v-24.166h7.199V1096.289z"/>
				<path fill="#262C31" d="M442.532,1065.933h-10.258v30.356h-7.201v-30.356h-10.111v-5.548h27.57V1065.933z"/>
				<path fill="#262C31" d="M453.679,1081.938v14.352h-7.201v-35.904h12.428c4.094,0,7.297,0.934,9.605,2.799
					c2.311,1.866,3.465,4.467,3.465,7.805c0,1.84-0.488,3.432-1.467,4.771s-2.404,2.422-4.279,3.243
					c2.121,0.624,3.646,1.669,4.576,3.132c0.928,1.464,1.393,3.271,1.393,5.425v2.64c0,1.002,0.137,2.051,0.406,3.143
					c0.271,1.095,0.736,1.904,1.395,2.43v0.518h-7.422c-0.66-0.525-1.082-1.396-1.271-2.613s-0.283-2.393-0.283-3.527v-2.54
					c0-1.792-0.49-3.185-1.467-4.18c-0.979-0.995-2.365-1.491-4.156-1.491H453.679z M453.679,1076.39h5.105
					c2.021,0,3.525-0.429,4.512-1.283s1.48-2.12,1.48-3.798c0-1.645-0.498-2.951-1.494-3.922c-0.994-0.969-2.451-1.454-4.377-1.454
					h-5.227V1076.39z"/>
				<path fill="#262C31" d="M499.173,1080.506h-13.314v10.26h15.83v5.523h-23.031v-35.904h22.982v5.548h-15.781v9.025h13.314
					V1080.506z"/>
				<path fill="#262C31" d="M534.267,1091.383c-1.119,1.463-2.787,2.732-5.008,3.809c-2.217,1.076-5.08,1.615-8.58,1.615
					c-4.342,0-7.891-1.363-10.652-4.094c-2.762-2.729-4.145-6.271-4.145-10.629v-7.495c0-4.341,1.34-7.88,4.02-10.616
					s6.123-4.105,10.332-4.105c4.391,0,7.752,1.04,10.088,3.118c2.332,2.08,3.459,4.854,3.377,8.323l-0.049,0.148h-6.781
					c0-1.908-0.551-3.392-1.652-4.451c-1.104-1.061-2.705-1.591-4.809-1.591c-2.205,0-3.979,0.852-5.326,2.552
					c-1.35,1.701-2.023,3.894-2.023,6.573v7.544c0,2.714,0.691,4.925,2.072,6.635c1.381,1.709,3.23,2.564,5.549,2.564
					c1.709,0,3.061-0.172,4.057-0.518c0.992-0.345,1.762-0.781,2.307-1.308v-6.954h-6.906v-4.981h14.131V1091.383z"/>
				<path fill="#262C31" d="M559.101,1088.545H547.46l-2.416,7.744h-7.521l12.109-35.904h7.373l12.057,35.904h-7.521
					L559.101,1088.545z M549.235,1082.899h8.113l-3.969-12.651h-0.15L549.235,1082.899z"/>
			</g>
		</g>
	</g>
	<g>
		<path fill="none" stroke="#70AF9D" stroke-width="10" stroke-miterlimit="10" d="M263.583,94.598H55.665c-2.75,0-5,2.25-5,5
			v158.552c0,2.75,2.25,5,5,5H95.54"/>
	</g>
	<g>
		<path fill="none" stroke="#C55194" stroke-width="10" stroke-miterlimit="10" d="M60.81,426.842H22.78c-2.75,0-5,2.25-5,5v148.834
			c0,2.75,2.25,5,5,5h177.1"/>
	</g>
	<g>
		<path fill="none" stroke="#E6BD53" stroke-width="10" stroke-miterlimit="10" d="M253.069,749.103H191.03c-2.75,0-5,2.25-5,5
			v153.96c0,2.75,2.25,5,5,5h36.773"/>
	</g>
	<g>
		<path fill="none" stroke="#C55194" stroke-width="10" stroke-miterlimit="10" d="M667.333,756.794h72.814c2.75,0,5,2.25,5,5
			v146.269c0,2.75-2.25,5-5,5h-47.549"/>
	</g>
	<g>
		<path fill="none" stroke="#E6BD53" stroke-width="10" stroke-miterlimit="10" d="M824.86,258.289h88.922c2.75,0,5,2.25,5,5
			v158.553c0,2.75-2.25,5-5,5h-54.189"/>
	</g>
	<g>
		<path fill="none" stroke="#70AF9D" stroke-width="10" stroke-miterlimit="10" d="M720.522,585.676h47.258c2.75,0,5,2.25,5,5
			v149.553c0,2.75-2.25,5-5,5H667.333"/>
	</g>
	<g>
		<circle fill="#C55194" cx="745.149" cy="831.217" r="31.17"/>
		<g>
			<path fill="#FFFFFF" d="M758.833,832.394c0.332,0,0.551,0.165,0.664,0.499c0.107,0.332-0.059,0.775-0.5,1.326
				c-1.33,1.992-3.322,4.293-5.975,6.895c-2.658,2.601-4.93,4.512-6.811,5.729c-0.996,0.664-2.381,1.107-4.154,1.328h-2.322
				c-1.662,0.109-3.047-0.389-4.152-1.494c-1.107-1.107-1.824-2.327-2.16-3.654c-0.225-0.773-0.33-2.047-0.33-3.819l0.166-1.327
				c0-0.443,0.25-1.552,0.744-3.322c0.5-1.771,1.191-3.374,2.076-4.816c1.328-2.215,2.713-3.986,4.154-5.314
				c0.553-0.552,1.164-0.72,1.824-0.498c0.111,0.112,0.336,0.112,0.668,0c0.332-0.107,0.607-0.166,0.828-0.166
				c0.221-0.107,0.609-0.168,1.162-0.168c0.775,0,1.664,0.393,2.66,1.165c1.104,1.108,1.66,1.993,1.66,2.659
				c0,0.443-0.279,1.218-0.832,2.322c-0.557,1.107-1.137,2.159-1.742,3.156c-0.611,0.998-1.195,1.992-1.746,2.99
				c-0.777,1.549-1.438,3.211-1.99,4.979c-0.225,1.441-0.279,2.551-0.168,3.322c0.109,0.665,0.5,0.831,1.164,0.499
				c0.773-0.442,1.465-0.854,2.074-1.247c0.607-0.386,1.133-0.688,1.58-0.912c1.104-0.774,3.537-3.043,7.303-6.809
				c1.441-1.438,2.381-2.324,2.824-2.656C757.948,832.615,758.388,832.394,758.833,832.394z M753.687,819.607
				c0,0.223-0.115,0.443-0.334,0.664c-0.223,0.223-0.498,0.332-0.83,0.332h-0.332l-4.482-0.996c-0.225-0.109-0.748-0.415-1.58-0.913
				c-0.83-0.499-1.521-0.858-2.074-1.081c-0.555-0.441-0.775-0.996-0.666-1.662c0.666-1.435,1.549-2.598,2.66-3.485
				c0.549-0.332,1.104-0.386,1.66-0.166l3.484,1.993c0.885,0.556,1.494,1.386,1.83,2.49c0.219,0.557,0.436,1.385,0.664,2.491
				V819.607z"/>
		</g>
	</g>
	<line fill="none" stroke="#C55194" stroke-width="10" stroke-miterlimit="10" x1="460.2" y1="804.334" x2="460.2" y2="858.099"/>
	<line fill="none" stroke="#C55194" stroke-width="10" stroke-miterlimit="10" x1="460.2" y1="967.808" x2="460.2" y2="1021.613"/>
</g>
</svg>
