<?xml version="1.0" encoding="utf-8"?>
<!-- Generator: Adobe Illustrator 16.0.0, SVG Export Plug-In . SVG Version: 6.00 Build 0)  -->
<!DOCTYPE svg PUBLIC "-//W3C//DTD SVG 1.1//EN" "http://www.w3.org/Graphics/SVG/1.1/DTD/svg11.dtd">
<svg version="1.1" id="Capa_1" xmlns="http://www.w3.org/2000/svg" xmlns:xlink="http://www.w3.org/1999/xlink" x="0px" y="0px"
	 width="936.563px" height="1481.703px" viewBox="0 0 936.563 1481.703" enable-background="new 0 0 936.563 1481.703"
	 xml:space="preserve">
<g>
	<g>
		<rect x="207.534" y="45.768" fill="#70AF9D" width="500.65" height="139.957"/>
		<g>
			<path fill="#FFFFFF" d="M345.543,127.639h-14.818l-3.077,9.859h-9.575l15.415-45.713h9.388l15.353,45.713h-9.576L345.543,127.639
				z M332.985,120.449h10.329l-5.055-16.105h-0.188L332.985,120.449z"/>
			<path fill="#FFFFFF" d="M399.576,137.498h-9.168l-18.429-30.832l-0.188,0.031v30.801h-9.168V91.785h9.168l18.429,30.799
				l0.188-0.031V91.785h9.168V137.498z"/>
			<path fill="#FFFFFF" d="M432.384,127.639h-14.818l-3.077,9.859h-9.575l15.415-45.713h9.388l15.353,45.713h-9.576L432.384,127.639
				z M419.826,120.449h10.329l-5.055-16.105h-0.188L419.826,120.449z"/>
			<path fill="#FFFFFF" d="M458.632,130.465h20.47v7.033h-29.638V91.785h9.168V130.465z"/>
			<path fill="#FFFFFF" d="M494.988,137.498h-9.168V91.785h9.168V137.498z"/>
			<path fill="#FFFFFF" d="M527.89,125.566c0-1.758-0.612-3.17-1.836-4.238c-1.225-1.066-3.375-2.072-6.452-3.014
				c-5.274-1.59-9.277-3.463-12.009-5.619s-4.098-5.098-4.098-8.822c0-3.746,1.539-6.809,4.615-9.184
				c3.077-2.375,7.002-3.564,11.773-3.564c5.065,0,9.142,1.277,12.229,3.832c3.088,2.553,4.579,5.902,4.475,10.045l-0.063,0.189
				h-8.885c0-2.281-0.69-4.035-2.072-5.26c-1.381-1.225-3.317-1.836-5.808-1.836c-2.261,0-4.009,0.545-5.243,1.633
				c-1.235,1.088-1.853,2.48-1.853,4.176c0,1.549,0.67,2.82,2.009,3.814c1.34,0.994,3.652,2.047,6.938,3.154
				c5.023,1.424,8.854,3.281,11.491,5.574c2.638,2.291,3.956,5.311,3.956,9.057c0,3.914-1.528,7.002-4.584,9.262
				c-3.056,2.262-7.096,3.391-12.118,3.391c-4.919,0-9.142-1.225-12.669-3.672c-3.527-2.449-5.238-6.102-5.133-10.957l0.063-0.189
				h8.885c0,2.699,0.796,4.689,2.387,5.965c1.59,1.277,3.746,1.916,6.468,1.916c2.448,0,4.316-0.514,5.604-1.539
				S527.89,127.283,527.89,125.566z"/>
			<path fill="#FFFFFF" d="M553.604,137.498h-9.168V91.785h9.168V137.498z"/>
			<path fill="#FFFFFF" d="M586.506,125.566c0-1.758-0.612-3.17-1.836-4.238c-1.225-1.066-3.375-2.072-6.452-3.014
				c-5.274-1.59-9.277-3.463-12.009-5.619s-4.098-5.098-4.098-8.822c0-3.746,1.539-6.809,4.615-9.184
				c3.077-2.375,7.002-3.564,11.773-3.564c5.065,0,9.142,1.277,12.229,3.832c3.088,2.553,4.579,5.902,4.475,10.045l-0.063,0.189
				h-8.885c0-2.281-0.69-4.035-2.072-5.26c-1.381-1.225-3.317-1.836-5.808-1.836c-2.261,0-4.009,0.545-5.243,1.633
				c-1.235,1.088-1.853,2.48-1.853,4.176c0,1.549,0.67,2.82,2.009,3.814c1.34,0.994,3.652,2.047,6.938,3.154
				c5.023,1.424,8.854,3.281,11.491,5.574c2.638,2.291,3.956,5.311,3.956,9.057c0,3.914-1.528,7.002-4.584,9.262
				c-3.056,2.262-7.096,3.391-12.118,3.391c-4.919,0-9.142-1.225-12.669-3.672c-3.527-2.449-5.238-6.102-5.133-10.957l0.063-0.189
				h8.885c0,2.699,0.796,4.689,2.387,5.965c1.59,1.277,3.746,1.916,6.468,1.916c2.448,0,4.316-0.514,5.604-1.539
				S586.506,127.283,586.506,125.566z"/>
		</g>
	</g>
	<g>
		<rect x="88.257" y="254.176" fill="#E6BD53" width="739.209" height="139.957"/>
		<g>
			<path fill="#FFFFFF" d="M171.799,333.502l0.063,0.188c0.084,4.877-1.402,8.697-4.458,11.459
				c-3.056,2.764-7.273,4.145-12.652,4.145c-5.484,0-9.911-1.762-13.28-5.289c-3.37-3.527-5.055-8.084-5.055-13.674v-9.072
				c0-5.568,1.643-10.125,4.929-13.674c3.286-3.547,7.598-5.322,12.936-5.322c5.567,0,9.921,1.361,13.061,4.082
				s4.667,6.551,4.584,11.49l-0.063,0.189h-8.916c0-2.93-0.706-5.111-2.119-6.547c-1.413-1.434-3.595-2.15-6.546-2.15
				c-2.742,0-4.882,1.105-6.421,3.313c-1.538,2.209-2.308,5.061-2.308,8.555v9.137c0,3.518,0.812,6.385,2.434,8.604
				s3.877,3.328,6.766,3.328c2.742,0,4.788-0.717,6.138-2.152c1.351-1.432,2.025-3.635,2.025-6.607H171.799z"/>
			<path fill="#FFFFFF" d="M187.592,330.361v18.273h-9.168v-45.713h15.823c5.212,0,9.288,1.188,12.229,3.564
				c2.94,2.375,4.411,5.688,4.411,9.936c0,2.344-0.623,4.369-1.867,6.076c-1.246,1.705-3.062,3.082-5.447,4.127
				c2.699,0.797,4.641,2.125,5.823,3.988s1.774,4.166,1.774,6.906v3.359c0,1.277,0.173,2.611,0.518,4.004
				c0.346,1.393,0.937,2.422,1.774,3.092v0.66h-9.45c-0.838-0.67-1.377-1.779-1.617-3.328c-0.241-1.549-0.361-3.045-0.361-4.49
				v-3.234c0-2.279-0.623-4.055-1.868-5.32s-3.009-1.9-5.29-1.9H187.592z M187.592,323.297h6.499c2.574,0,4.489-0.543,5.745-1.631
				s1.884-2.701,1.884-4.836c0-2.092-0.634-3.756-1.899-4.992c-1.267-1.234-3.124-1.852-5.573-1.852h-6.655V323.297z"/>
			<path fill="#FFFFFF" d="M245.517,328.541h-16.953v13.061h20.156v7.033h-29.324v-45.713h29.261v7.064h-20.093v11.49h16.953
				V328.541z"/>
			<path fill="#FFFFFF" d="M278.984,338.775h-14.818l-3.077,9.859h-9.575l15.415-45.713h9.388l15.353,45.713h-9.576L278.984,338.775
				z M266.427,331.586h10.329l-5.055-16.105h-0.188L266.427,331.586z"/>
			<path fill="#FFFFFF" d="M330.003,333.502l0.063,0.188c0.084,4.877-1.402,8.697-4.458,11.459
				c-3.056,2.764-7.273,4.145-12.652,4.145c-5.484,0-9.911-1.762-13.28-5.289c-3.37-3.527-5.055-8.084-5.055-13.674v-9.072
				c0-5.568,1.643-10.125,4.929-13.674c3.286-3.547,7.598-5.322,12.936-5.322c5.567,0,9.921,1.361,13.061,4.082
				s4.667,6.551,4.584,11.49l-0.063,0.189h-8.916c0-2.93-0.706-5.111-2.119-6.547c-1.413-1.434-3.595-2.15-6.546-2.15
				c-2.742,0-4.882,1.105-6.421,3.313c-1.538,2.209-2.308,5.061-2.308,8.555v9.137c0,3.518,0.812,6.385,2.434,8.604
				s3.877,3.328,6.766,3.328c2.742,0,4.788-0.717,6.138-2.152c1.351-1.432,2.025-3.635,2.025-6.607H330.003z"/>
			<path fill="#FFFFFF" d="M346.423,348.635h-9.168v-45.713h9.168V348.635z"/>
			<path fill="#FFFFFF" d="M392.48,329.891c0,5.631-1.769,10.271-5.306,13.924c-3.538,3.652-8.143,5.479-13.814,5.479
				c-5.651,0-10.235-1.83-13.751-5.494c-3.517-3.662-5.275-8.299-5.275-13.908v-8.225c0-5.59,1.753-10.221,5.26-13.893
				c3.505-3.674,8.073-5.512,13.704-5.512c5.672,0,10.287,1.838,13.846,5.512c3.558,3.672,5.337,8.303,5.337,13.893V329.891z
				 M383.344,321.602c0-3.557-0.89-6.477-2.668-8.758c-1.779-2.281-4.238-3.424-7.378-3.424c-3.099,0-5.511,1.143-7.237,3.424
				s-2.59,5.201-2.59,8.758v8.289c0,3.621,0.868,6.572,2.605,8.854s4.165,3.422,7.284,3.422c3.14,0,5.589-1.141,7.347-3.422
				s2.637-5.232,2.637-8.854V321.602z M375.244,289.391h10.203l0.063,0.188l-8.697,8.164h-7.817L375.244,289.391z"/>
			<path fill="#FFFFFF" d="M436.686,348.635h-9.168l-18.429-30.832l-0.188,0.031v30.801h-9.168v-45.713h9.168l18.429,30.799
				l0.188-0.031v-30.768h9.168V348.635z"/>
			<path fill="#FFFFFF" d="M461.111,348.635v-45.713h15.949c5.588,0,10.192,1.785,13.814,5.354c3.62,3.568,5.431,8.146,5.431,13.734
				v7.566c0,5.611-1.811,10.189-5.431,13.736c-3.622,3.549-8.227,5.322-13.814,5.322H461.111z M470.279,309.986v31.615h6.781
				c3.014,0,5.441-1.125,7.284-3.375c1.841-2.25,2.763-5.133,2.763-8.65v-7.629c0-3.494-0.922-6.361-2.763-8.602
				c-1.843-2.24-4.271-3.359-7.284-3.359H470.279z"/>
			<path fill="#FFFFFF" d="M529.774,328.541h-16.953v13.061h20.156v7.033h-29.324v-45.713h29.261v7.064h-20.093v11.49h16.953
				V328.541z"/>
			<path fill="#FFFFFF" d="M548.581,341.602h20.47v7.033h-29.638v-45.713h9.168V341.602z"/>
			<path fill="#FFFFFF" d="M626.191,342.387c-1.424,1.863-3.548,3.48-6.374,4.85c-2.825,1.371-6.467,2.057-10.926,2.057
				c-5.525,0-10.046-1.736-13.563-5.211s-5.274-7.984-5.274-13.531v-9.545c0-5.525,1.705-10.031,5.117-13.516
				c3.411-3.484,7.797-5.229,13.155-5.229c5.588,0,9.868,1.324,12.841,3.973c2.972,2.648,4.405,6.18,4.301,10.596l-0.063,0.189
				h-8.634c0-2.428-0.701-4.318-2.104-5.668s-3.443-2.025-6.122-2.025c-2.806,0-5.065,1.084-6.782,3.25
				c-1.716,2.166-2.574,4.955-2.574,8.367v9.607c0,3.453,0.879,6.268,2.638,8.445c1.758,2.178,4.112,3.266,7.063,3.266
				c2.177,0,3.898-0.221,5.165-0.66c1.266-0.439,2.245-0.994,2.936-1.664v-8.854h-8.791v-6.342h17.99V342.387z"/>
			<path fill="#FFFFFF" d="M670.208,302.922v29.92c0,5.148-1.706,9.18-5.117,12.088c-3.412,2.91-7.839,4.363-13.28,4.363
				c-5.421,0-9.822-1.453-13.202-4.363c-3.381-2.908-5.07-6.939-5.07-12.088v-29.92h9.199v29.92c0,3.057,0.816,5.391,2.448,7.002
				c1.633,1.611,3.841,2.418,6.625,2.418c2.825,0,5.064-0.807,6.719-2.418c1.653-1.611,2.48-3.945,2.48-7.002v-29.92H670.208z"/>
			<path fill="#FFFFFF" d="M687.947,348.635h-9.168v-45.713h9.168V348.635z"/>
			<path fill="#FFFFFF" d="M734.005,329.891c0,5.631-1.769,10.271-5.306,13.924c-3.538,3.652-8.143,5.479-13.814,5.479
				c-5.651,0-10.235-1.83-13.751-5.494c-3.517-3.662-5.275-8.299-5.275-13.908v-8.225c0-5.59,1.753-10.221,5.26-13.893
				c3.505-3.674,8.073-5.512,13.704-5.512c5.672,0,10.287,1.838,13.846,5.512c3.558,3.672,5.337,8.303,5.337,13.893V329.891z
				 M724.868,321.602c0-3.557-0.89-6.477-2.668-8.758c-1.779-2.281-4.238-3.424-7.378-3.424c-3.099,0-5.511,1.143-7.237,3.424
				s-2.59,5.201-2.59,8.758v8.289c0,3.621,0.868,6.572,2.605,8.854s4.165,3.422,7.284,3.422c3.14,0,5.589-1.141,7.347-3.422
				s2.637-5.232,2.637-8.854V321.602z M716.769,289.391h10.203l0.063,0.188l-8.697,8.164h-7.817L716.769,289.391z"/>
			<path fill="#FFFFFF" d="M778.21,348.635h-9.168l-18.429-30.832l-0.188,0.031v30.801h-9.168v-45.713h9.168l18.429,30.799
				l0.188-0.031v-30.768h9.168V348.635z"/>
		</g>
	</g>
	<g>
		<rect x="47.062" y="462.582" fill="#C55194" width="821.596" height="139.957"/>
		<g>
			<path fill="#FFFFFF" d="M115.836,543.191v16.578h-9.168v-45.713h17.487c5.254,0,9.388,1.34,12.401,4.02
				c3.015,2.678,4.521,6.205,4.521,10.58s-1.507,7.891-4.521,10.549c-3.014,2.658-7.147,3.986-12.401,3.986H115.836z
				 M115.836,536.129h8.319c2.554,0,4.49-0.697,5.809-2.088c1.318-1.393,1.978-3.166,1.978-5.322c0-2.197-0.654-4.014-1.962-5.447
				c-1.309-1.434-3.25-2.15-5.824-2.15h-8.319V536.129z"/>
			<path fill="#FFFFFF" d="M156.808,541.496v18.273h-9.168v-45.713h15.823c5.212,0,9.288,1.188,12.229,3.564
				c2.94,2.375,4.411,5.688,4.411,9.936c0,2.344-0.623,4.369-1.867,6.076c-1.246,1.705-3.062,3.082-5.447,4.127
				c2.699,0.797,4.641,2.125,5.823,3.988s1.774,4.166,1.774,6.906v3.359c0,1.277,0.173,2.611,0.518,4.004
				c0.346,1.393,0.937,2.422,1.774,3.092v0.66h-9.45c-0.838-0.67-1.377-1.779-1.617-3.328c-0.241-1.549-0.361-3.045-0.361-4.49
				v-3.234c0-2.279-0.623-4.055-1.868-5.32s-3.009-1.9-5.29-1.9H156.808z M156.808,534.432h6.499c2.574,0,4.489-0.543,5.745-1.631
				s1.884-2.701,1.884-4.836c0-2.092-0.634-3.756-1.899-4.992c-1.267-1.234-3.124-1.852-5.573-1.852h-6.655V534.432z"/>
			<path fill="#FFFFFF" d="M225.596,541.025c0,5.631-1.769,10.271-5.306,13.924c-3.538,3.652-8.143,5.479-13.814,5.479
				c-5.651,0-10.235-1.83-13.751-5.494c-3.517-3.662-5.275-8.299-5.275-13.908v-8.225c0-5.59,1.753-10.221,5.26-13.893
				c3.505-3.674,8.073-5.512,13.704-5.512c5.672,0,10.287,1.838,13.846,5.512c3.558,3.672,5.337,8.303,5.337,13.893V541.025z
				 M216.459,532.736c0-3.557-0.89-6.477-2.668-8.758c-1.779-2.281-4.238-3.424-7.378-3.424c-3.099,0-5.511,1.143-7.237,3.424
				s-2.59,5.201-2.59,8.758v8.289c0,3.621,0.868,6.572,2.605,8.854s4.165,3.422,7.284,3.422c3.14,0,5.589-1.141,7.347-3.422
				s2.637-5.232,2.637-8.854V532.736z"/>
			<path fill="#FFFFFF" d="M267.132,544.637l0.063,0.188c0.084,4.877-1.402,8.697-4.458,11.459
				c-3.056,2.764-7.273,4.145-12.652,4.145c-5.484,0-9.911-1.762-13.28-5.289c-3.37-3.527-5.055-8.084-5.055-13.674v-9.072
				c0-5.568,1.643-10.125,4.929-13.674c3.286-3.547,7.598-5.322,12.936-5.322c5.567,0,9.921,1.361,13.061,4.082
				s4.667,6.551,4.584,11.49l-0.063,0.189h-8.916c0-2.93-0.706-5.111-2.119-6.547c-1.413-1.434-3.595-2.15-6.546-2.15
				c-2.742,0-4.882,1.105-6.421,3.313c-1.538,2.209-2.308,5.061-2.308,8.555v9.137c0,3.518,0.812,6.385,2.434,8.604
				s3.877,3.328,6.766,3.328c2.742,0,4.788-0.717,6.138-2.152c1.351-1.432,2.025-3.635,2.025-6.607H267.132z"/>
			<path fill="#FFFFFF" d="M299.878,539.676h-16.953v13.061h20.156v7.033h-29.324v-45.713h29.261v7.064h-20.093v11.49h16.953
				V539.676z"/>
			<path fill="#FFFFFF" d="M333.346,547.838c0-1.758-0.612-3.17-1.836-4.238c-1.225-1.066-3.375-2.072-6.452-3.014
				c-5.274-1.59-9.277-3.463-12.009-5.619s-4.098-5.098-4.098-8.822c0-3.746,1.539-6.809,4.615-9.184
				c3.077-2.375,7.002-3.564,11.773-3.564c5.065,0,9.142,1.277,12.229,3.832c3.088,2.553,4.579,5.902,4.475,10.045l-0.063,0.189
				h-8.885c0-2.281-0.69-4.035-2.072-5.26c-1.381-1.225-3.317-1.836-5.808-1.836c-2.261,0-4.009,0.545-5.243,1.633
				c-1.235,1.088-1.853,2.48-1.853,4.176c0,1.549,0.67,2.82,2.009,3.814c1.34,0.994,3.652,2.047,6.938,3.154
				c5.023,1.424,8.854,3.281,11.491,5.574c2.638,2.291,3.956,5.311,3.956,9.057c0,3.914-1.528,7.002-4.584,9.262
				c-3.056,2.262-7.096,3.391-12.118,3.391c-4.919,0-9.142-1.225-12.669-3.672c-3.527-2.449-5.238-6.102-5.133-10.957l0.063-0.189
				h8.885c0,2.699,0.796,4.689,2.387,5.965c1.59,1.277,3.746,1.916,6.468,1.916c2.448,0,4.316-0.514,5.604-1.539
				S333.346,549.555,333.346,547.838z"/>
			<path fill="#FFFFFF" d="M386.248,541.025c0,5.631-1.769,10.271-5.306,13.924c-3.538,3.652-8.143,5.479-13.814,5.479
				c-5.651,0-10.235-1.83-13.751-5.494c-3.517-3.662-5.275-8.299-5.275-13.908v-8.225c0-5.59,1.753-10.221,5.26-13.893
				c3.505-3.674,8.073-5.512,13.704-5.512c5.672,0,10.287,1.838,13.846,5.512c3.558,3.672,5.337,8.303,5.337,13.893V541.025z
				 M377.111,532.736c0-3.557-0.89-6.477-2.668-8.758c-1.779-2.281-4.238-3.424-7.378-3.424c-3.099,0-5.511,1.143-7.237,3.424
				s-2.59,5.201-2.59,8.758v8.289c0,3.621,0.868,6.572,2.605,8.854s4.165,3.422,7.284,3.422c3.14,0,5.589-1.141,7.347-3.422
				s2.637-5.232,2.637-8.854V532.736z"/>
			<path fill="#FFFFFF" d="M409.513,559.77v-45.713h15.949c5.588,0,10.192,1.785,13.814,5.354c3.62,3.568,5.431,8.146,5.431,13.734
				v7.566c0,5.611-1.811,10.189-5.431,13.736c-3.622,3.549-8.227,5.322-13.814,5.322H409.513z M418.681,521.121v31.615h6.781
				c3.014,0,5.441-1.125,7.284-3.375c1.841-2.25,2.763-5.133,2.763-8.65v-7.629c0-3.494-0.922-6.361-2.763-8.602
				c-1.843-2.24-4.271-3.359-7.284-3.359H418.681z"/>
			<path fill="#FFFFFF" d="M478.175,539.676h-16.953v13.061h20.156v7.033h-29.324v-45.713h29.261v7.064h-20.093v11.49h16.953
				V539.676z"/>
			<path fill="#FFFFFF" d="M512.993,552.736h20.47v7.033h-29.638v-45.713h9.168V552.736z"/>
			<path fill="#FFFFFF" d="M575.754,541.025c0,5.631-1.769,10.271-5.306,13.924c-3.538,3.652-8.143,5.479-13.814,5.479
				c-5.651,0-10.235-1.83-13.751-5.494c-3.517-3.662-5.275-8.299-5.275-13.908v-8.225c0-5.59,1.753-10.221,5.26-13.893
				c3.505-3.674,8.073-5.512,13.704-5.512c5.672,0,10.287,1.838,13.846,5.512c3.558,3.672,5.337,8.303,5.337,13.893V541.025z
				 M566.617,532.736c0-3.557-0.89-6.477-2.668-8.758c-1.779-2.281-4.238-3.424-7.378-3.424c-3.099,0-5.511,1.143-7.237,3.424
				s-2.59,5.201-2.59,8.758v8.289c0,3.621,0.868,6.572,2.605,8.854s4.165,3.422,7.284,3.422c3.14,0,5.589-1.141,7.347-3.422
				s2.637-5.232,2.637-8.854V532.736z"/>
			<path fill="#FFFFFF" d="M617.29,544.637l0.063,0.188c0.084,4.877-1.402,8.697-4.458,11.459
				c-3.056,2.764-7.273,4.145-12.652,4.145c-5.484,0-9.911-1.762-13.28-5.289c-3.37-3.527-5.055-8.084-5.055-13.674v-9.072
				c0-5.568,1.643-10.125,4.929-13.674c3.286-3.547,7.598-5.322,12.936-5.322c5.567,0,9.921,1.361,13.061,4.082
				s4.667,6.551,4.584,11.49l-0.063,0.189h-8.916c0-2.93-0.706-5.111-2.119-6.547c-1.413-1.434-3.595-2.15-6.546-2.15
				c-2.742,0-4.882,1.105-6.421,3.313c-1.538,2.209-2.308,5.061-2.308,8.555v9.137c0,3.518,0.812,6.385,2.434,8.604
				s3.877,3.328,6.766,3.328c2.742,0,4.788-0.717,6.138-2.152c1.351-1.432,2.025-3.635,2.025-6.607H617.29z"/>
			<path fill="#FFFFFF" d="M660.146,514.057v29.92c0,5.148-1.706,9.18-5.117,12.088c-3.412,2.91-7.839,4.363-13.28,4.363
				c-5.421,0-9.822-1.453-13.202-4.363c-3.381-2.908-5.07-6.939-5.07-12.088v-29.92h9.199v29.92c0,3.057,0.816,5.391,2.448,7.002
				c1.633,1.611,3.841,2.418,6.625,2.418c2.825,0,5.064-0.807,6.719-2.418c1.653-1.611,2.48-3.945,2.48-7.002v-29.92H660.146z"/>
			<path fill="#FFFFFF" d="M702.373,544.637l0.063,0.188c0.084,4.877-1.402,8.697-4.458,11.459
				c-3.056,2.764-7.273,4.145-12.652,4.145c-5.484,0-9.911-1.762-13.28-5.289c-3.37-3.527-5.055-8.084-5.055-13.674v-9.072
				c0-5.568,1.643-10.125,4.929-13.674c3.286-3.547,7.598-5.322,12.936-5.322c5.567,0,9.921,1.361,13.061,4.082
				s4.667,6.551,4.584,11.49l-0.063,0.189h-8.916c0-2.93-0.706-5.111-2.119-6.547c-1.413-1.434-3.595-2.15-6.546-2.15
				c-2.742,0-4.882,1.105-6.421,3.313c-1.538,2.209-2.308,5.061-2.308,8.555v9.137c0,3.518,0.812,6.385,2.434,8.604
				s3.877,3.328,6.766,3.328c2.742,0,4.788-0.717,6.138-2.152c1.351-1.432,2.025-3.635,2.025-6.607H702.373z"/>
			<path fill="#FFFFFF" d="M718.793,559.77h-9.168v-45.713h9.168V559.77z"/>
			<path fill="#FFFFFF" d="M764.851,541.025c0,5.631-1.769,10.271-5.306,13.924c-3.538,3.652-8.143,5.479-13.814,5.479
				c-5.651,0-10.235-1.83-13.751-5.494c-3.517-3.662-5.275-8.299-5.275-13.908v-8.225c0-5.59,1.753-10.221,5.26-13.893
				c3.505-3.674,8.073-5.512,13.704-5.512c5.672,0,10.287,1.838,13.846,5.512c3.558,3.672,5.337,8.303,5.337,13.893V541.025z
				 M755.714,532.736c0-3.557-0.89-6.477-2.668-8.758c-1.779-2.281-4.238-3.424-7.378-3.424c-3.099,0-5.511,1.143-7.237,3.424
				s-2.59,5.201-2.59,8.758v8.289c0,3.621,0.868,6.572,2.605,8.854s4.165,3.422,7.284,3.422c3.14,0,5.589-1.141,7.347-3.422
				s2.637-5.232,2.637-8.854V532.736z M747.614,500.525h10.203l0.063,0.188l-8.697,8.164h-7.817L747.614,500.525z"/>
			<path fill="#FFFFFF" d="M809.056,559.77h-9.168l-18.429-30.832l-0.188,0.031v30.801h-9.168v-45.713h9.168l18.429,30.799
				l0.188-0.031v-30.768h9.168V559.77z"/>
		</g>
	</g>
	<g>
		<rect x="126.433" y="670.988" fill="#70AF9D" width="662.857" height="139.955"/>
		<g>
			<path fill="#FFFFFF" d="M212.676,754.652h0.188l11.742-33.688h11.962v45.713h-9.167v-31.207l-0.188-0.033l-11.303,31.24h-6.217
				l-11.302-31.303l-0.188,0.031v31.271h-9.168v-45.713h12.024L212.676,754.652z"/>
			<path fill="#FFFFFF" d="M271.104,746.584H254.15v13.061h20.156v7.033h-29.324v-45.713h29.261v7.064H254.15v11.49h16.953V746.584z
				"/>
			<path fill="#FFFFFF" d="M289.753,759.645h20.973v7.033h-31.772v-4.773l20.344-33.875h-20.313v-7.064h31.207v4.584
				L289.753,759.645z"/>
			<path fill="#FFFFFF" d="M350.724,751.545l0.063,0.188c0.084,4.877-1.402,8.697-4.458,11.459
				c-3.056,2.764-7.273,4.145-12.652,4.145c-5.484,0-9.911-1.762-13.28-5.289c-3.37-3.527-5.055-8.084-5.055-13.674v-9.072
				c0-5.568,1.643-10.125,4.929-13.674c3.286-3.547,7.598-5.322,12.936-5.322c5.567,0,9.921,1.361,13.061,4.082
				s4.667,6.551,4.584,11.49l-0.063,0.189h-8.916c0-2.93-0.706-5.111-2.119-6.547c-1.413-1.434-3.595-2.15-6.546-2.15
				c-2.742,0-4.882,1.105-6.421,3.313c-1.538,2.209-2.308,5.061-2.308,8.555v9.137c0,3.518,0.812,6.385,2.434,8.604
				s3.877,3.328,6.766,3.328c2.742,0,4.788-0.717,6.138-2.152c1.351-1.432,2.025-3.635,2.025-6.607H350.724z"/>
			<path fill="#FFFFFF" d="M366.517,759.645h20.47v7.033h-29.638v-45.713h9.168V759.645z"/>
			<path fill="#FFFFFF" d="M417.502,756.818h-14.818l-3.077,9.859h-9.575l15.415-45.713h9.388l15.353,45.713h-9.576L417.502,756.818
				z M404.944,749.629h10.329l-5.055-16.105h-0.188L404.944,749.629z"/>
			<path fill="#FFFFFF" d="M450.594,766.678v-45.713h15.949c5.588,0,10.192,1.785,13.814,5.354c3.62,3.568,5.431,8.146,5.431,13.734
				v7.566c0,5.611-1.811,10.189-5.431,13.736c-3.622,3.549-8.227,5.322-13.814,5.322H450.594z M459.762,728.029v31.615h6.781
				c3.014,0,5.441-1.125,7.284-3.375c1.841-2.25,2.763-5.133,2.763-8.65v-7.629c0-3.494-0.922-6.361-2.763-8.602
				c-1.843-2.24-4.271-3.359-7.284-3.359H459.762z"/>
			<path fill="#FFFFFF" d="M519.257,746.584h-16.953v13.061h20.156v7.033h-29.324v-45.713h29.261v7.064h-20.093v11.49h16.953
				V746.584z"/>
			<path fill="#FFFFFF" d="M568.736,756.818h-14.818l-3.077,9.859h-9.575l15.415-45.713h9.388l15.353,45.713h-9.576L568.736,756.818
				z M556.179,749.629h10.329l-5.055-16.105h-0.188L556.179,749.629z"/>
			<path fill="#FFFFFF" d="M621.513,720.965v29.92c0,5.148-1.706,9.18-5.117,12.088c-3.412,2.91-7.839,4.363-13.28,4.363
				c-5.421,0-9.822-1.453-13.202-4.363c-3.381-2.908-5.07-6.939-5.07-12.088v-29.92h9.199v29.92c0,3.057,0.816,5.391,2.448,7.002
				c1.633,1.611,3.841,2.418,6.625,2.418c2.825,0,5.064-0.807,6.719-2.418c1.653-1.611,2.48-3.945,2.48-7.002v-29.92H621.513z"/>
			<path fill="#FFFFFF" d="M629.456,766.678v-45.713h15.949c5.588,0,10.192,1.785,13.814,5.354c3.62,3.568,5.431,8.146,5.431,13.734
				v7.566c0,5.611-1.811,10.189-5.431,13.736c-3.622,3.549-8.227,5.322-13.814,5.322H629.456z M638.624,728.029v31.615h6.781
				c3.014,0,5.441-1.125,7.284-3.375c1.841-2.25,2.763-5.133,2.763-8.65v-7.629c0-3.494-0.922-6.361-2.763-8.602
				c-1.843-2.24-4.271-3.359-7.284-3.359H638.624z"/>
			<path fill="#FFFFFF" d="M681.793,766.678h-9.168v-45.713h9.168V766.678z"/>
			<path fill="#FFFFFF" d="M727.851,747.934c0,5.631-1.769,10.271-5.306,13.924c-3.538,3.652-8.143,5.479-13.814,5.479
				c-5.651,0-10.235-1.83-13.751-5.494c-3.517-3.662-5.275-8.299-5.275-13.908v-8.225c0-5.59,1.753-10.221,5.26-13.893
				c3.505-3.674,8.073-5.512,13.704-5.512c5.672,0,10.287,1.838,13.846,5.512c3.558,3.672,5.337,8.303,5.337,13.893V747.934z
				 M718.714,739.645c0-3.557-0.89-6.477-2.668-8.758c-1.779-2.281-4.238-3.424-7.378-3.424c-3.099,0-5.511,1.143-7.237,3.424
				s-2.59,5.201-2.59,8.758v8.289c0,3.621,0.868,6.572,2.605,8.854s4.165,3.422,7.284,3.422c3.14,0,5.589-1.141,7.347-3.422
				s2.637-5.232,2.637-8.854V739.645z"/>
		</g>
	</g>
	<g>
		<rect x="194.151" y="879.395" fill="#E6BD53" width="527.419" height="139.955"/>
		<g>
			<path fill="#FFFFFF" d="M364.915,955.711h-16.953v13.061h20.156v7.033h-29.324v-45.713h29.261v7.064h-20.093v11.49h16.953
				V955.711z"/>
			<path fill="#FFFFFF" d="M374.554,975.805v-45.713h15.949c5.588,0,10.192,1.785,13.814,5.354c3.62,3.568,5.431,8.146,5.431,13.734
				v7.566c0,5.611-1.811,10.189-5.431,13.736c-3.622,3.549-8.227,5.322-13.814,5.322H374.554z M383.722,937.156v31.615h6.781
				c3.014,0,5.441-1.125,7.284-3.375c1.841-2.25,2.763-5.133,2.763-8.65v-7.629c0-3.494-0.922-6.361-2.763-8.602
				c-1.843-2.24-4.271-3.359-7.284-3.359H383.722z"/>
			<path fill="#FFFFFF" d="M426.891,975.805h-9.168v-45.713h9.168V975.805z"/>
			<path fill="#FFFFFF" d="M470.248,960.672l0.063,0.188c0.084,4.877-1.402,8.697-4.458,11.459
				c-3.056,2.764-7.273,4.145-12.652,4.145c-5.484,0-9.911-1.762-13.28-5.289c-3.37-3.527-5.055-8.084-5.055-13.674v-9.072
				c0-5.568,1.643-10.125,4.929-13.674c3.286-3.547,7.598-5.322,12.936-5.322c5.567,0,9.921,1.361,13.061,4.082
				s4.667,6.551,4.584,11.49l-0.063,0.189h-8.916c0-2.93-0.706-5.111-2.119-6.547c-1.413-1.434-3.595-2.15-6.546-2.15
				c-2.742,0-4.882,1.105-6.421,3.313c-1.538,2.209-2.308,5.061-2.308,8.555v9.137c0,3.518,0.812,6.385,2.434,8.604
				s3.877,3.328,6.766,3.328c2.742,0,4.788-0.717,6.138-2.152c1.351-1.432,2.025-3.635,2.025-6.607H470.248z"/>
			<path fill="#FFFFFF" d="M486.669,975.805h-9.168v-45.713h9.168V975.805z"/>
			<path fill="#FFFFFF" d="M532.727,957.061c0,5.631-1.769,10.271-5.306,13.924c-3.538,3.652-8.143,5.479-13.814,5.479
				c-5.651,0-10.235-1.83-13.751-5.494c-3.517-3.662-5.275-8.299-5.275-13.908v-8.225c0-5.59,1.753-10.221,5.26-13.893
				c3.505-3.674,8.073-5.512,13.704-5.512c5.672,0,10.287,1.838,13.846,5.512c3.558,3.672,5.337,8.303,5.337,13.893V957.061z
				 M523.59,948.771c0-3.557-0.89-6.477-2.668-8.758c-1.779-2.281-4.238-3.424-7.378-3.424c-3.099,0-5.511,1.143-7.237,3.424
				s-2.59,5.201-2.59,8.758v8.289c0,3.621,0.868,6.572,2.605,8.854s4.165,3.422,7.284,3.422c3.14,0,5.589-1.141,7.347-3.422
				s2.637-5.232,2.637-8.854V948.771z M515.49,916.561h10.203l0.063,0.188l-8.697,8.164h-7.817L515.49,916.561z"/>
			<path fill="#FFFFFF" d="M576.932,975.805h-9.168l-18.429-30.832l-0.188,0.031v30.801h-9.168v-45.713h9.168l18.429,30.799
				l0.188-0.031v-30.768h9.168V975.805z"/>
		</g>
	</g>
	<g>
		<rect x="161.983" y="1087.801" fill="#C55194" width="591.755" height="139.957"/>
		<g>
			<path fill="#FFFFFF" d="M328.873,1164.6v18.273h-9.168v-45.713h15.823c5.212,0,9.288,1.188,12.229,3.564
				c2.94,2.375,4.411,5.688,4.411,9.936c0,2.344-0.623,4.369-1.867,6.076c-1.246,1.705-3.062,3.082-5.447,4.127
				c2.699,0.797,4.641,2.125,5.823,3.988s1.774,4.166,1.774,6.906v3.359c0,1.277,0.173,2.611,0.518,4.004
				c0.346,1.393,0.937,2.422,1.774,3.092v0.66h-9.45c-0.838-0.67-1.377-1.779-1.617-3.328c-0.241-1.549-0.361-3.045-0.361-4.49
				v-3.234c0-2.279-0.623-4.055-1.868-5.32s-3.009-1.9-5.29-1.9H328.873z M328.873,1157.535h6.499c2.574,0,4.489-0.543,5.745-1.631
				s1.884-2.701,1.884-4.836c0-2.092-0.634-3.756-1.899-4.992c-1.267-1.234-3.124-1.852-5.573-1.852h-6.655V1157.535z"/>
			<path fill="#FFFFFF" d="M386.798,1162.779h-16.953v13.061h20.156v7.033h-29.324v-45.713h29.261v7.064h-20.093v11.49h16.953
				V1162.779z"/>
			<path fill="#FFFFFF" d="M412.009,1170.471l0.565,2.512h0.188l0.533-2.418l9.953-33.404h9.67l-15.541,45.713h-9.419l-15.51-45.713
				h9.67L412.009,1170.471z"/>
			<path fill="#FFFFFF" d="M447.142,1182.873h-9.168v-45.713h9.168V1182.873z"/>
			<path fill="#FFFFFF" d="M480.043,1170.941c0-1.758-0.612-3.17-1.836-4.238c-1.225-1.066-3.375-2.072-6.452-3.014
				c-5.274-1.59-9.277-3.463-12.009-5.619s-4.098-5.098-4.098-8.822c0-3.746,1.539-6.809,4.615-9.184
				c3.077-2.375,7.002-3.564,11.773-3.564c5.065,0,9.142,1.277,12.229,3.832c3.088,2.553,4.579,5.902,4.475,10.045l-0.063,0.189
				h-8.885c0-2.281-0.69-4.035-2.072-5.26c-1.381-1.225-3.317-1.836-5.808-1.836c-2.261,0-4.009,0.545-5.243,1.633
				c-1.235,1.088-1.853,2.48-1.853,4.176c0,1.549,0.67,2.82,2.009,3.814c1.34,0.994,3.652,2.047,6.938,3.154
				c5.023,1.424,8.854,3.281,11.491,5.574c2.638,2.291,3.956,5.311,3.956,9.057c0,3.914-1.528,7.002-4.584,9.262
				c-3.056,2.262-7.096,3.391-12.118,3.391c-4.919,0-9.142-1.225-12.669-3.672c-3.527-2.449-5.238-6.102-5.133-10.957l0.063-0.189
				h8.885c0,2.699,0.796,4.689,2.387,5.965c1.59,1.277,3.746,1.916,6.468,1.916c2.448,0,4.316-0.514,5.604-1.539
				S480.043,1172.658,480.043,1170.941z"/>
			<path fill="#FFFFFF" d="M505.757,1182.873h-9.168v-45.713h9.168V1182.873z"/>
			<path fill="#FFFFFF" d="M551.814,1164.129c0,5.631-1.769,10.271-5.306,13.924c-3.538,3.652-8.143,5.479-13.814,5.479
				c-5.651,0-10.235-1.83-13.751-5.494c-3.517-3.662-5.275-8.299-5.275-13.908v-8.225c0-5.59,1.753-10.221,5.26-13.893
				c3.505-3.674,8.073-5.512,13.704-5.512c5.672,0,10.287,1.838,13.846,5.512c3.558,3.672,5.337,8.303,5.337,13.893V1164.129z
				 M542.678,1155.84c0-3.557-0.89-6.477-2.668-8.758c-1.779-2.281-4.238-3.424-7.378-3.424c-3.099,0-5.511,1.143-7.237,3.424
				s-2.59,5.201-2.59,8.758v8.289c0,3.621,0.868,6.572,2.605,8.854s4.165,3.422,7.284,3.422c3.14,0,5.589-1.141,7.347-3.422
				s2.637-5.232,2.637-8.854V1155.84z M534.578,1123.629h10.203l0.063,0.188l-8.697,8.164h-7.817L534.578,1123.629z"/>
			<path fill="#FFFFFF" d="M596.021,1182.873h-9.168l-18.429-30.832l-0.188,0.031v30.801h-9.168v-45.713h9.168l18.429,30.799
				l0.188-0.031v-30.768h9.168V1182.873z"/>
		</g>
	</g>
	<g>
		<rect x="161.983" y="1295.979" fill="#262C31" width="591.755" height="139.957"/>
		<g>
			<path fill="#FFFFFF" d="M349.405,1370.959h-16.953v13.061h20.156v7.033h-29.324v-45.713h29.261v7.064h-20.093v11.49h16.953
				V1370.959z"/>
			<path fill="#FFFFFF" d="M395.997,1391.053h-9.168l-18.429-30.832l-0.188,0.031v30.801h-9.168v-45.713h9.168l18.429,30.799
				l0.188-0.031v-30.768h9.168V1391.053z"/>
			<path fill="#FFFFFF" d="M435.368,1352.404h-13.062v38.648h-9.167v-38.648h-12.872v-7.064h35.101V1352.404z"/>
			<path fill="#FFFFFF" d="M449.559,1372.779v18.273h-9.168v-45.713h15.823c5.212,0,9.288,1.188,12.229,3.564
				c2.94,2.375,4.411,5.688,4.411,9.936c0,2.344-0.623,4.369-1.867,6.076c-1.246,1.705-3.062,3.082-5.447,4.127
				c2.699,0.797,4.641,2.125,5.823,3.988s1.774,4.166,1.774,6.906v3.359c0,1.277,0.173,2.611,0.518,4.004
				c0.346,1.393,0.937,2.422,1.774,3.092v0.66h-9.45c-0.838-0.67-1.377-1.779-1.617-3.328c-0.241-1.549-0.361-3.045-0.361-4.49V1380
				c0-2.279-0.623-4.055-1.868-5.32s-3.009-1.9-5.29-1.9H449.559z M449.559,1365.715h6.499c2.574,0,4.489-0.543,5.745-1.631
				s1.884-2.701,1.884-4.836c0-2.092-0.634-3.756-1.899-4.992c-1.267-1.234-3.124-1.852-5.573-1.852h-6.655V1365.715z"/>
			<path fill="#FFFFFF" d="M507.483,1370.959H490.53v13.061h20.156v7.033h-29.324v-45.713h29.261v7.064H490.53v11.49h16.953
				V1370.959z"/>
			<path fill="#FFFFFF" d="M552.16,1384.805c-1.424,1.863-3.548,3.48-6.374,4.85c-2.825,1.371-6.467,2.057-10.926,2.057
				c-5.525,0-10.046-1.736-13.563-5.211s-5.274-7.984-5.274-13.531v-9.545c0-5.525,1.705-10.031,5.117-13.516
				c3.411-3.484,7.797-5.229,13.155-5.229c5.588,0,9.868,1.324,12.841,3.973c2.972,2.648,4.405,6.18,4.301,10.596l-0.063,0.189
				h-8.634c0-2.428-0.701-4.318-2.104-5.668s-3.443-2.025-6.122-2.025c-2.806,0-5.065,1.084-6.782,3.25
				c-1.716,2.166-2.574,4.955-2.574,8.367v9.607c0,3.453,0.879,6.268,2.638,8.445c1.758,2.178,4.112,3.266,7.063,3.266
				c2.177,0,3.898-0.221,5.165-0.66c1.266-0.439,2.245-0.994,2.936-1.664v-8.854h-8.791v-6.342h17.99V1384.805z"/>
			<path fill="#FFFFFF" d="M583.775,1381.193h-14.818l-3.077,9.859h-9.575l15.415-45.713h9.388l15.353,45.713h-9.576
				L583.775,1381.193z M571.218,1374.004h10.329l-5.055-16.105h-0.188L571.218,1374.004z"/>
		</g>
	</g>
	<g>
		<path fill="none" stroke="#70AF9D" stroke-width="10" stroke-miterlimit="10" d="M207.534,115.746H25.063c-2.75,0-5,2.25-5,5
			v204.592c0,2.75,2.25,5,5,5h63.193"/>
	</g>
	<g>
		<path fill="none" stroke="#C55194" stroke-width="10" stroke-miterlimit="10" d="M47.062,538.744H25.063c-2.75,0-5,2.25-5,5
			v192.221c0,2.75,2.25,5,5,5h101.369"/>
	</g>
	<g>
		<path fill="none" stroke="#E6BD53" stroke-width="10" stroke-miterlimit="10" d="M194.151,949.031H113.8c-2.75,0-5,2.25-5,5
			v198.746c0,2.75,2.25,5,5,5h48.184"/>
	</g>
	<g>
		<path fill="none" stroke="#C55194" stroke-width="10" stroke-miterlimit="10" d="M721.57,958.824h94.071c2.75,0,5,2.25,5,5
			v188.953c0,2.75-2.25,5-5,5h-61.903"/>
	</g>
	<g>
		<path fill="none" stroke="#E6BD53" stroke-width="10" stroke-miterlimit="10" d="M827.466,324.152h89.663c2.75,0,5,2.25,5,5
			v204.592c0,2.75-2.25,5-5,5h-48.472"/>
	</g>
	<g>
		<path fill="none" stroke="#70AF9D" stroke-width="10" stroke-miterlimit="10" d="M789.29,740.965h61.529c2.75,0,5,2.25,5,5V939.1
			c0,2.75-2.25,5-5,5H721.57"/>
	</g>
	<g>
		<circle fill="#C55194" cx="820.644" cy="1053.576" r="39.685"/>
		<g>
			<path fill="#FFFFFF" d="M838.065,1055.074c0.423,0,0.701,0.209,0.844,0.635c0.138,0.424-0.072,0.988-0.637,1.689
				c-1.691,2.535-4.229,5.465-7.606,8.777c-3.383,3.311-6.276,5.744-8.671,7.291c-1.27,0.846-3.031,1.412-5.287,1.691h-2.959
				c-2.115,0.143-3.879-0.494-5.284-1.902c-1.411-1.408-2.324-2.961-2.751-4.65c-0.285-0.986-0.422-2.607-0.422-4.863l0.213-1.689
				c0-0.564,0.318-1.977,0.947-4.229c0.637-2.256,1.519-4.297,2.644-6.133c1.691-2.82,3.455-5.076,5.288-6.766
				c0.703-0.703,1.482-0.916,2.324-0.635c0.143,0.143,0.427,0.143,0.85,0c0.422-0.137,0.772-0.211,1.055-0.211
				c0.281-0.139,0.774-0.213,1.48-0.213c0.985,0,2.117,0.498,3.385,1.48c1.406,1.412,2.115,2.537,2.115,3.387
				c0,0.564-0.356,1.551-1.062,2.957c-0.706,1.408-1.444,2.748-2.218,4.018c-0.777,1.271-1.52,2.537-2.221,3.809
				c-0.99,1.971-1.833,4.088-2.535,6.338c-0.285,1.834-0.355,3.246-0.215,4.229c0.139,0.846,0.637,1.059,1.483,0.637
				c0.983-0.564,1.864-1.09,2.641-1.588c0.773-0.492,1.443-0.877,2.011-1.162c1.406-0.984,4.505-3.873,9.297-8.668
				c1.834-1.83,3.032-2.961,3.598-3.383C836.938,1055.357,837.498,1055.074,838.065,1055.074z M831.512,1038.795
				c0,0.285-0.144,0.564-0.425,0.846c-0.283,0.285-0.635,0.422-1.059,0.422h-0.422l-5.705-1.268
				c-0.287-0.139-0.953-0.527-2.012-1.162c-1.057-0.635-1.938-1.092-2.641-1.375c-0.707-0.563-0.989-1.27-0.848-2.117
				c0.848-1.826,1.971-3.309,3.385-4.438c0.699-0.422,1.406-0.492,2.115-0.211l4.437,2.537c1.126,0.707,1.901,1.764,2.328,3.172
				c0.28,0.707,0.557,1.762,0.846,3.17V1038.795z"/>
		</g>
	</g>
	
		<line fill="none" stroke="#C55194" stroke-width="10" stroke-miterlimit="10" x1="457.861" y1="1019.35" x2="457.861" y2="1087.801"/>
	
		<line fill="none" stroke="#C55194" stroke-width="10" stroke-miterlimit="10" x1="457.861" y1="1227.477" x2="457.861" y2="1295.979"/>
</g>
</svg>
