<?xml version="1.0" encoding="utf-8"?>
<!-- Generator: Adobe Illustrator 16.0.0, SVG Export Plug-In . SVG Version: 6.00 Build 0)  -->
<!DOCTYPE svg PUBLIC "-//W3C//DTD SVG 1.1//EN" "http://www.w3.org/Graphics/SVG/1.1/DTD/svg11.dtd">
<svg version="1.1" id="Capa_1" xmlns="http://www.w3.org/2000/svg" xmlns:xlink="http://www.w3.org/1999/xlink" x="0px" y="0px"
	 width="1200px" height="1200px" viewBox="0 0 1200 1200" enable-background="new 0 0 1200 1200" xml:space="preserve">
<path fill="#C45193" d="M300.117,955.176c-14.722,0-28.552-5.723-38.944-16.114c-10.392-10.393-16.115-24.223-16.115-38.944
	s5.723-28.552,16.115-38.943l260.939-261.187l-261.18-260.933c-21.467-21.467-21.467-56.407,0.007-77.881
	c10.392-10.392,24.222-16.115,38.944-16.115s28.552,5.723,38.944,16.115l261.187,260.939l260.932-261.18
	c10.386-10.385,24.216-16.108,38.938-16.108s28.552,5.723,38.943,16.115c10.393,10.392,16.115,24.222,16.115,38.944
	s-5.723,28.552-16.115,38.944L677.888,600.013l261.18,260.932c21.468,21.468,21.468,56.407-0.006,77.881
	c-10.393,10.393-24.223,16.115-38.944,16.115s-28.552-5.723-38.943-16.115L599.987,677.888l-260.933,261.18
	C328.669,949.453,314.839,955.176,300.117,955.176z"/>
</svg>
