<?xml version="1.0" encoding="utf-8"?>
<!-- Generator: Adobe Illustrator 16.0.0, SVG Export Plug-In . SVG Version: 6.00 Build 0)  -->
<!DOCTYPE svg PUBLIC "-//W3C//DTD SVG 1.1//EN" "http://www.w3.org/Graphics/SVG/1.1/DTD/svg11.dtd">
<svg version="1.1" id="Capa_1" xmlns="http://www.w3.org/2000/svg" xmlns:xlink="http://www.w3.org/1999/xlink" x="0px" y="0px"
	 width="864.174px" height="234.994px" viewBox="0 0 864.174 234.994" enable-background="new 0 0 864.174 234.994"
	 xml:space="preserve">
<g>
	<path fill="#73CBAF" d="M64.314,117.497c0,40.098-14.707,76.785-39.012,104.961H10.52c19.428-29.49,30.883-65.716,30.883-104.961
		c0-39.244-11.455-75.47-30.883-104.96h14.783C49.686,40.711,64.314,77.401,64.314,117.497z"/>
	<path fill="#EFC351" d="M118.112,117.497c0,40.098-14.708,76.785-39.013,104.961H64.314C83.743,192.966,95.2,156.741,95.2,117.497
		s-11.457-75.47-30.886-104.96H79.1C103.482,40.711,118.112,77.401,118.112,117.497z"/>
	<path fill="#DD51A4" d="M171.907,117.497c0,40.098-14.705,76.785-39.012,104.961h-14.783
		c19.429-29.49,30.884-65.716,30.884-104.961c0-39.244-11.455-75.47-30.884-104.96h14.783
		C157.277,40.711,171.907,77.401,171.907,117.497z"/>
	<g>
		<path fill="#262C31" d="M281.428,107.494c3.69-0.479,6.162-2.022,7.411-4.646c0.714-1.425,1.07-3.478,1.07-6.158
			c0-5.475-1.949-9.452-5.848-11.922c-3.899-2.47-9.483-3.706-16.743-3.706c-8.396,0-14.35,2.262-17.86,6.785
			c-1.963,2.502-3.245,6.226-3.841,11.167h-15.002c0.299-11.788,4.123-19.992,11.477-24.608c7.35-4.609,15.877-6.919,25.581-6.919
			c11.253,0,20.393,2.144,27.415,6.434c6.968,4.284,10.449,10.952,10.449,19.999v55.097c0,1.672,0.341,3.01,1.026,4.02
			c0.686,1.016,2.13,1.518,4.332,1.518c0.714,0,1.519-0.041,2.409-0.127c0.896-0.094,1.844-0.228,2.858-0.408v11.879
			c-2.501,0.715-4.406,1.162-5.716,1.34c-1.309,0.179-3.095,0.265-5.356,0.265c-5.536,0-9.556-1.96-12.058-5.894
			c-1.309-2.084-2.231-5.027-2.766-8.838c-3.274,4.285-7.979,8.01-14.109,11.162c-6.134,3.152-12.892,4.731-20.271,4.731
			c-8.872,0-16.118-2.692-21.744-8.081c-5.626-5.385-8.438-12.133-8.438-20.227c0-8.869,2.768-15.746,8.307-20.625
			c5.533-4.884,12.798-7.891,21.785-9.021L281.428,107.494z M247.582,150.981c3.395,2.678,7.414,4.019,12.056,4.019
			c5.653,0,11.13-1.31,16.431-3.927c8.93-4.344,13.395-11.461,13.395-21.344v-12.95c-1.963,1.249-4.496,2.292-7.589,3.128
			c-3.099,0.829-6.134,1.425-9.109,1.782l-9.733,1.252c-5.835,0.775-10.211,1.992-13.127,3.658
			c-4.942,2.803-7.414,7.264-7.414,13.397C242.49,144.638,244.188,148.3,247.582,150.981z"/>
		<path fill="#262C31" d="M345.605,70.435v63.492c0,4.885,0.773,8.873,2.322,11.965c2.857,5.715,8.184,8.572,15.984,8.572
			c11.189,0,18.811-5.002,22.862-15c2.2-5.359,3.302-12.71,3.302-22.057V70.435h16.074v95.64h-15.184l0.182-14.111
			c-2.087,3.633-4.678,6.699-7.771,9.201c-6.13,5.002-13.573,7.498-22.323,7.498c-13.632,0-22.92-4.555-27.863-13.662
			c-2.676-4.88-4.016-11.4-4.016-19.555V70.435H345.605z"/>
		<path fill="#262C31" d="M427.151,70.435h15.271V89.09c1.247-3.214,4.314-7.128,9.197-11.738c4.88-4.616,10.506-6.927,16.877-6.927
			c0.298,0,0.806,0.032,1.517,0.094c0.719,0.061,1.938,0.177,3.663,0.355v16.968c-0.952-0.178-1.831-0.301-2.637-0.357
			c-0.801-0.062-1.68-0.091-2.632-0.091c-8.098,0-14.317,2.604-18.662,7.817c-4.348,5.205-6.521,11.203-6.521,17.989v55.009H427.15
			L427.151,70.435L427.151,70.435z"/>
		<path fill="#262C31" d="M536.672,107.042c3.69-0.48,6.159-2.023,7.411-4.646c0.713-1.426,1.067-3.479,1.067-6.158
			c0-5.476-1.946-9.452-5.848-11.922c-3.896-2.471-9.48-3.707-16.743-3.707c-8.395,0-14.348,2.262-17.858,6.786
			c-1.965,2.501-3.246,6.226-3.842,11.166h-15c0.297-11.788,4.122-19.992,11.477-24.607c7.351-4.608,15.877-6.92,25.58-6.92
			c11.254,0,20.392,2.145,27.416,6.435c6.967,4.283,10.449,10.951,10.449,19.999v55.095c0,1.672,0.341,3.01,1.025,4.02
			c0.687,1.014,2.128,1.52,4.332,1.52c0.712,0,1.518-0.045,2.409-0.129c0.893-0.093,1.844-0.229,2.858-0.406v11.879
			c-2.501,0.712-4.408,1.16-5.716,1.34c-1.311,0.177-3.096,0.264-5.357,0.264c-5.535,0-9.555-1.96-12.057-5.895
			c-1.31-2.082-2.231-5.026-2.767-8.836c-3.276,4.283-7.979,8.008-14.11,11.16c-6.134,3.153-12.892,4.731-20.271,4.731
			c-8.87,0-16.116-2.69-21.742-8.081c-5.626-5.384-8.438-12.131-8.438-20.227c0-8.867,2.768-15.745,8.304-20.623
			c5.534-4.887,12.8-7.892,21.788-9.022L536.672,107.042z M502.826,150.528c3.393,2.679,7.412,4.02,12.055,4.02
			c5.654,0,11.131-1.309,16.433-3.928c8.928-4.346,13.395-11.461,13.395-21.344v-12.949c-1.963,1.248-4.496,2.293-7.592,3.128
			c-3.098,0.83-6.132,1.427-9.107,1.782l-9.733,1.254c-5.837,0.773-10.21,1.992-13.128,3.656c-4.939,2.804-7.411,7.265-7.411,13.397
			C497.734,144.187,499.431,147.849,502.826,150.528z"/>
		<path fill="#262C31" d="M588.004,44.356h16.254v25.865h15.268v13.127h-15.268v63.252c0,3.33,1.129,5.567,3.393,6.692
			c1.249,0.658,3.334,0.981,6.253,0.981c0.771,0,1.605-0.012,2.498-0.043c0.895-0.03,1.937-0.104,3.124-0.221v12.68
			c-1.843,0.535-3.764,0.922-5.757,1.16c-1.995,0.234-4.151,0.357-6.476,0.357c-7.502,0-12.59-1.917-15.27-5.757
			c-2.68-3.843-4.021-8.826-4.021-14.958V83.349h-12.948V70.222h12.948L588.004,44.356L588.004,44.356z"/>
		<rect x="641.651" y="37.031" fill="#262C31" width="16.342" height="18.215"/>
		<rect x="641.651" y="70.222" fill="#262C31" width="16.342" height="97.987"/>
		<path fill="#262C31" d="M681.021,37.031h15.448V113.2l43.457-42.831h20.538l-38.813,38.012l38.666,59.828h-20.541l-29.822-48.218
			l-13.484,12.322v35.896h-15.447V37.031H681.021z"/>
		<path fill="#262C31" d="M818.921,107.042c3.688-0.48,6.159-2.023,7.411-4.646c0.711-1.426,1.068-3.479,1.068-6.158
			c0-5.476-1.947-9.452-5.849-11.922c-3.898-2.471-9.48-3.707-16.744-3.707c-8.394,0-14.346,2.262-17.856,6.786
			c-1.965,2.501-3.246,6.226-3.842,11.166h-15.003c0.299-11.788,4.125-19.992,11.479-24.607c7.35-4.608,15.877-6.92,25.58-6.92
			c11.254,0,20.391,2.145,27.416,6.435c6.965,4.283,10.446,10.951,10.446,19.999v55.095c0,1.672,0.343,3.01,1.025,4.02
			c0.687,1.014,2.13,1.52,4.334,1.52c0.712,0,1.518-0.045,2.408-0.129c0.896-0.093,1.845-0.229,2.857-0.406v11.879
			c-2.501,0.712-4.406,1.16-5.716,1.34c-1.309,0.177-3.094,0.264-5.354,0.264c-5.538,0-9.556-1.96-12.06-5.895
			c-1.308-2.082-2.229-5.026-2.765-8.836c-3.276,4.283-7.98,8.008-14.11,11.16c-6.133,3.153-12.891,4.731-20.271,4.731
			c-8.87,0-16.116-2.69-21.742-8.081c-5.628-5.384-8.438-12.131-8.438-20.227c0-8.867,2.771-15.745,8.306-20.623
			c5.535-4.887,12.799-7.892,21.788-9.022L818.921,107.042z M785.076,150.528c3.392,2.679,7.411,4.02,12.055,4.02
			c5.653,0,11.13-1.309,16.429-3.928c8.932-4.346,13.396-11.461,13.396-21.344v-12.949c-1.966,1.248-4.496,2.293-7.591,3.128
			c-3.099,0.83-6.134,1.427-9.107,1.782l-9.735,1.254c-5.834,0.773-10.211,1.992-13.127,3.656c-4.939,2.804-7.41,7.265-7.41,13.397
			C779.984,144.187,781.68,147.849,785.076,150.528z"/>
	</g>
</g>
</svg>
