<?xml version="1.0" encoding="utf-8"?>
<!-- Generator: Adobe Illustrator 16.0.0, SVG Export Plug-In . SVG Version: 6.00 Build 0)  -->
<!DOCTYPE svg PUBLIC "-//W3C//DTD SVG 1.1//EN" "http://www.w3.org/Graphics/SVG/1.1/DTD/svg11.dtd">
<svg version="1.1" id="Capa_1" xmlns="http://www.w3.org/2000/svg" xmlns:xlink="http://www.w3.org/1999/xlink" x="0px" y="0px"
	 width="559.192px" height="437.912px" viewBox="0 0 559.192 437.912" enable-background="new 0 0 559.192 437.912"
	 xml:space="preserve">
<pattern  x="-0.001" y="-3386.793" width="72" height="72" patternUnits="userSpaceOnUse" id="Negro_Auratika" viewBox="0 -72 72 72" overflow="visible">
	<g>
		<polygon fill="none" points="0,-72 72,-72 72,0 0,0 		"/>
		<polygon fill="#16171C" points="72,0 0,0 0,-72 72,-72 		"/>
	</g>
</pattern>
<g>
	<defs>
		<rect id="SVGID_224_" x="1" y="5" width="558.192" height="432.404"/>
	</defs>
	<clipPath id="SVGID_2_">
		<use xlink:href="#SVGID_224_"  overflow="visible"/>
	</clipPath>
	<g clip-path="url(#SVGID_2_)">
		<circle fill="#E6BD53" cx="280.982" cy="284.494" r="271.822"/>
		<circle fill="#C45192" cx="280.982" cy="284.494" r="271.822"/>
		<g>
			<g>
				<pattern  id="SVGID_4_" xlink:href="#Negro_Auratika" patternTransform="matrix(1 0 0 1 123.2388 28.4136)">
				</pattern>
				<path fill="url(#SVGID_4_)" d="M71.253,383.653l-2.317-5.042l17.847-17.346l2.222,4.83l-3.734,3.424l3.609,7.85l5.047-0.572
					l2.143,4.66L71.253,383.653z M84.65,377.848l-2.513-5.461l-7.148,6.551L84.65,377.848z"/>
				<pattern  id="SVGID_6_" xlink:href="#Negro_Auratika" patternTransform="matrix(1 0 0 1 123.2388 28.4136)">
				</pattern>
				<path fill="url(#SVGID_6_)" d="M62.087,353.91c-2.375-1.295-3.959-3.344-4.754-6.15c-1.063-3.758-0.594-6.858,1.405-9.301
					c1.127-1.357,2.384-2.27,3.773-2.738l1.336,4.717c-0.996,0.607-1.704,1.224-2.122,1.85c-0.746,1.116-0.882,2.501-0.415,4.151
					c0.477,1.68,1.541,2.809,3.201,3.39c1.661,0.576,3.755,0.508,6.287-0.207c2.532-0.719,4.282-1.768,5.254-3.15
					c0.97-1.381,1.229-2.86,0.784-4.437c-0.455-1.618-1.347-2.698-2.667-3.241c-0.716-0.303-1.699-0.446-2.954-0.428l-1.324-4.686
					c2.574-0.293,4.865,0.172,6.879,1.396c2.012,1.228,3.386,3.137,4.123,5.732c0.91,3.213,0.583,6.033-0.979,8.461
					c-1.573,2.432-4.185,4.164-7.824,5.195C68.146,355.58,64.813,355.394,62.087,353.91z"/>
				<pattern  id="SVGID_7_" xlink:href="#Negro_Auratika" patternTransform="matrix(1 0 0 1 123.2388 28.4136)">
				</pattern>
				<path fill="url(#SVGID_7_)" d="M54.058,319.518c-2.145-1.641-3.394-3.911-3.749-6.808c-0.47-3.876,0.467-6.87,2.818-8.974
					c1.323-1.167,2.706-1.873,4.151-2.125l0.594,4.867c-1.078,0.445-1.875,0.945-2.382,1.5c-0.908,0.99-1.254,2.336-1.049,4.037
					c0.212,1.733,1.092,3.016,2.643,3.842c1.548,0.828,3.626,1.081,6.242,0.763c2.612-0.317,4.504-1.085,5.675-2.301
					c1.173-1.214,1.661-2.634,1.46-4.263c-0.202-1.668-0.917-2.872-2.138-3.614c-0.661-0.409-1.61-0.704-2.853-0.876l-0.586-4.834
					c2.588,0.107,4.782,0.923,6.583,2.44c1.798,1.521,2.862,3.618,3.189,6.298c0.401,3.314-0.354,6.05-2.272,8.209
					c-1.927,2.16-4.771,3.47-8.533,3.93C59.787,322.102,56.521,321.406,54.058,319.518z"/>
				<pattern  id="SVGID_9_" xlink:href="#Negro_Auratika" patternTransform="matrix(1 0 0 1 123.2388 28.4136)">
				</pattern>
				<path fill="url(#SVGID_9_)" d="M53.537,269.293l-0.333,12.412l4.979,0.133l0.305-11.393l4.074,0.111l-0.305,11.392l6.029,0.162
					l0.35-12.983l4.216,0.112l-0.479,17.774l-23.453-0.631l0.465-17.199L53.537,269.293z"/>
				<pattern  id="SVGID_10_" xlink:href="#Negro_Auratika" patternTransform="matrix(1 0 0 1 123.2388 28.4136)">
				</pattern>
				<path fill="url(#SVGID_10_)" d="M67.631,252.135c1.084,0.035,1.922-0.123,2.521-0.471c1.091-0.635,1.806-1.924,2.142-3.866
					c0.204-1.165,0.243-2.13,0.114-2.902c-0.241-1.456-1.014-2.304-2.321-2.53c-0.763-0.133-1.412,0.104-1.947,0.705
					c-0.524,0.604-1.071,1.611-1.64,3.024l-0.984,2.407c-0.971,2.363-1.854,3.951-2.654,4.76c-1.334,1.373-3.138,1.861-5.405,1.467
					c-2.07-0.358-3.658-1.419-4.764-3.18c-1.105-1.764-1.401-4.121-0.889-7.071c0.429-2.468,1.439-4.458,3.034-5.978
					c1.595-1.516,3.626-2.102,6.097-1.762l-0.809,4.643c-1.404-0.154-2.499,0.295-3.286,1.35c-0.52,0.705-0.881,1.633-1.079,2.779
					c-0.218,1.275-0.148,2.338,0.223,3.185c0.37,0.847,1.004,1.351,1.905,1.507c0.824,0.143,1.508-0.125,2.044-0.805
					c0.355-0.436,0.853-1.406,1.49-2.904l1.661-3.891c0.729-1.707,1.519-2.941,2.374-3.707c1.326-1.19,3.018-1.605,5.079-1.248
					c2.109,0.366,3.724,1.488,4.834,3.361c1.112,1.877,1.412,4.303,0.894,7.281c-0.53,3.045-1.633,5.32-3.309,6.824
					c-1.676,1.507-3.719,2.049-6.124,1.632L67.631,252.135z"/>
				<pattern  id="SVGID_11_" xlink:href="#Negro_Auratika" patternTransform="matrix(1 0 0 1 123.2388 28.4136)">
				</pattern>
				<path fill="url(#SVGID_11_)" d="M81.812,222.702l-1.389,4.667l-22.49-6.678l1.387-4.672L81.812,222.702z"/>
				<pattern  id="SVGID_12_" xlink:href="#Negro_Auratika" patternTransform="matrix(1 0 0 1 123.2388 28.4136)">
				</pattern>
				<path fill="url(#SVGID_12_)" d="M73.742,185.6c1.2-0.258,2.439-0.113,3.713,0.442c1.316,0.572,2.226,1.361,2.734,2.372
					c0.29,0.564,0.457,1.291,0.513,2.174c0.878-0.925,1.871-1.479,2.98-1.66c1.109-0.182,2.283-0.002,3.518,0.531
					c1.277,0.555,2.281,1.369,3.013,2.449c0.499,0.696,0.84,1.451,1.033,2.26c0.225,0.915,0.235,1.881,0.023,2.902
					c-0.21,1.017-0.554,2.072-1.028,3.164l-4.213,9.699l-21.519-9.352l4.519-10.399C70.205,187.575,71.778,186.049,73.742,185.6z
					 M70.108,197.912l4.747,2.063l2.271-5.229c0.41-0.936,0.56-1.771,0.457-2.508c-0.101-0.736-0.604-1.304-1.509-1.695
					c-1.003-0.436-1.831-0.34-2.488,0.291c-0.512,0.568-0.994,1.368-1.443,2.398L70.108,197.912z M78.419,201.523l5.733,2.491
					l2.272-5.224c0.405-0.93,0.595-1.713,0.568-2.342c-0.058-1.149-0.746-2.008-2.074-2.582c-1.117-0.487-2.084-0.364-2.901,0.369
					c-0.455,0.406-0.889,1.071-1.299,1.988L78.419,201.523z"/>
				<pattern  id="SVGID_13_" xlink:href="#Negro_Auratika" patternTransform="matrix(1 0 0 1 123.2388 28.4136)">
				</pattern>
				<path fill="url(#SVGID_13_)" d="M79.893,168.621l2.586-4.162l16.347,10.154l6.183-9.952l3.584,2.224l-8.768,14.118
					L79.893,168.621z"/>
				<pattern  id="SVGID_14_" xlink:href="#Negro_Auratika" patternTransform="matrix(1 0 0 1 123.2388 28.4136)">
				</pattern>
				<path fill="url(#SVGID_14_)" d="M111.989,131.512l-7.969,9.521l3.821,3.198l7.315-8.738l3.125,2.612l-7.315,8.739l4.626,3.874
					l8.336-9.96l3.234,2.706l-11.41,13.635l-17.992-15.059l11.041-13.195L111.989,131.512z"/>
				<pattern  id="SVGID_15_" xlink:href="#Negro_Auratika" patternTransform="matrix(1 0 0 1 123.2388 28.4136)">
				</pattern>
				<path fill="url(#SVGID_15_)" d="M138.276,137.722c0.489-0.813,0.686-1.583,0.589-2.31c-0.098-0.727-0.492-1.5-1.184-2.323
					l-2,1.893l-3.272-3.451l3.558-3.374l2.833,2.989c0.499,0.525,0.95,1.138,1.351,1.841c0.401,0.703,0.612,1.439,0.626,2.214
					c0.016,0.831-0.145,1.622-0.479,2.372c-0.335,0.75-0.606,1.222-0.815,1.419L138.276,137.722z"/>
				<pattern  id="SVGID_16_" xlink:href="#Negro_Auratika" patternTransform="matrix(1 0 0 1 123.2388 28.4136)">
				</pattern>
				<path fill="url(#SVGID_16_)" d="M178.076,100.592c-0.56,2.48-2.272,4.596-5.134,6.346c-2.859,1.749-5.524,2.303-7.987,1.672
					c-3.195-0.671-5.89-2.806-8.085-6.399c-2.243-3.669-2.91-7.038-2.004-10.118c0.561-2.48,2.272-4.596,5.132-6.345
					c2.863-1.747,5.525-2.303,7.988-1.671c3.144,0.604,5.833,2.738,8.076,6.407C178.258,94.078,178.928,97.449,178.076,100.592z
					 M173.603,99.148c0.229-1.817-0.35-3.854-1.727-6.11c-1.374-2.245-2.919-3.683-4.642-4.317
					c-1.724-0.632-3.416-0.442-5.069,0.572c-1.659,1.013-2.607,2.432-2.846,4.256c-0.241,1.826,0.328,3.867,1.704,6.122
					c1.38,2.254,2.935,3.692,4.668,4.31c1.734,0.619,3.428,0.424,5.085-0.588C172.436,102.378,173.375,100.967,173.603,99.148z"/>
				<pattern  id="SVGID_17_" xlink:href="#Negro_Auratika" patternTransform="matrix(1 0 0 1 123.2388 28.4136)">
				</pattern>
				<path fill="url(#SVGID_17_)" d="M198.485,68.245c0.941,0.016,1.826,0.244,2.655,0.682c0.684,0.36,1.3,0.82,1.838,1.377
					c0.544,0.56,0.992,1.265,1.342,2.117c0.423,1.032,0.577,2.151,0.469,3.362c-0.113,1.208-0.684,2.266-1.711,3.172
					c1.168-0.009,2.11,0.271,2.83,0.842c0.723,0.567,1.397,1.615,2.021,3.135l0.6,1.458c0.408,0.992,0.723,1.648,0.948,1.967
					c0.349,0.513,0.798,0.81,1.346,0.896l0.223,0.542l-5.006,2.057c-0.333-0.424-0.591-0.772-0.772-1.041
					c-0.369-0.561-0.688-1.16-0.96-1.793l-0.855-2.006c-0.587-1.375-1.206-2.199-1.854-2.473c-0.65-0.271-1.606-0.15-2.868,0.367
					l-4.429,1.819l3.496,8.511l-4.434,1.821l-8.911-21.703l10.382-4.262C196.328,68.512,197.548,68.229,198.485,68.245z
					 M190.43,75.302l2.396,5.833l4.881-2.004c0.969-0.399,1.646-0.816,2.035-1.252c0.688-0.765,0.782-1.755,0.282-2.971
					c-0.538-1.315-1.315-2.028-2.332-2.138c-0.571-0.065-1.322,0.093-2.255,0.478L190.43,75.302z"/>
				<pattern  id="SVGID_18_" xlink:href="#Negro_Auratika" patternTransform="matrix(1 0 0 1 123.2388 28.4136)">
				</pattern>
				<path fill="url(#SVGID_18_)" d="M227.914,82.829l-4.695,1.292l-6.221-22.62l4.695-1.293L227.914,82.829z"/>
				<pattern  id="SVGID_19_" xlink:href="#Negro_Auratika" patternTransform="matrix(1 0 0 1 123.2388 28.4136)">
				</pattern>
				<path fill="url(#SVGID_19_)" d="M254.146,61.407c-0.595-1.534-1.651-2.514-3.171-2.937c-0.851-0.232-1.764-0.276-2.74-0.136
					c-1.868,0.271-3.304,1.196-4.302,2.779c-0.998,1.583-1.295,3.792-0.884,6.622c0.412,2.851,1.353,4.773,2.827,5.771
					c1.474,0.997,3.039,1.374,4.697,1.137c1.629-0.236,2.895-0.896,3.801-1.981c0.904-1.082,1.368-2.399,1.393-3.947l-5.374,0.775
					l-0.561-3.873l9.674-1.397l1.798,12.459l-3.213,0.465l-0.906-2.827c-0.777,1.23-1.505,2.13-2.184,2.686
					c-1.169,0.969-2.688,1.588-4.558,1.856c-3.079,0.444-5.752-0.258-8.022-2.103c-2.358-1.848-3.804-4.627-4.341-8.344
					c-0.543-3.756,0.058-6.918,1.799-9.482c1.742-2.566,4.314-4.095,7.718-4.587c2.95-0.426,5.43-0.021,7.438,1.22
					c2.005,1.236,3.302,2.956,3.887,5.155L254.146,61.407z"/>
				<pattern  id="SVGID_20_" xlink:href="#Negro_Auratika" patternTransform="matrix(1 0 0 1 123.2388 28.4136)">
				</pattern>
				<path fill="url(#SVGID_20_)" d="M279.241,76.023l-4.87,0.096l-0.458-23.458l4.869-0.097L279.241,76.023z"/>
				<pattern  id="SVGID_21_" xlink:href="#Negro_Auratika" patternTransform="matrix(1 0 0 1 123.2388 28.4136)">
				</pattern>
				<path fill="url(#SVGID_21_)" d="M294.839,52.785l5.116,0.51l7.651,17.199l1.615-16.278l4.545,0.452l-2.317,23.346l-4.879-0.482
					l-7.857-17.511l-1.645,16.563l-4.546-0.451L294.839,52.785z"/>
				<pattern  id="SVGID_22_" xlink:href="#Negro_Auratika" patternTransform="matrix(1 0 0 1 123.2388 28.4136)">
				</pattern>
				<path fill="url(#SVGID_22_)" d="M336.817,59.326l5.371,1.392l2.15,24.794l-5.146-1.334l-0.291-5.058l-8.363-2.169l-2.751,4.272
					l-4.959-1.288L336.817,59.326z M332.844,73.373l5.817,1.508l-0.554-9.68L332.844,73.373z"/>
				<pattern  id="SVGID_23_" xlink:href="#Negro_Auratika" patternTransform="matrix(1 0 0 1 123.2388 28.4136)">
				</pattern>
				<path fill="url(#SVGID_23_)" d="M364.423,67.91l4.513,1.91l-7.5,17.722l10.789,4.565l-1.644,3.885l-15.305-6.476L364.423,67.91z
					"/>
				<pattern  id="SVGID_24_" xlink:href="#Negro_Auratika" patternTransform="matrix(1 0 0 1 123.2388 28.4136)">
				</pattern>
				<path fill="url(#SVGID_24_)" d="M378.909,104.682c0.918,0.225,1.712,0.185,2.375-0.123c0.669-0.306,1.293-0.91,1.872-1.814
					l-2.397-1.349l2.334-4.147l4.273,2.402l-2.02,3.592c-0.355,0.631-0.81,1.241-1.361,1.83c-0.552,0.591-1.195,1.012-1.929,1.253
					c-0.79,0.259-1.595,0.339-2.41,0.243c-0.816-0.101-1.347-0.219-1.596-0.359L378.909,104.682z"/>
				<pattern  id="SVGID_25_" xlink:href="#Negro_Auratika" patternTransform="matrix(1 0 0 1 123.2388 28.4136)">
				</pattern>
				<path fill="url(#SVGID_25_)" d="M429.736,124.116c-1.79-0.031-3.646-0.886-5.567-2.556l-3.691-3.202l-5.527,6.374l-3.682-3.193
					l15.375-17.722l7.608,6.601c1.756,1.523,2.758,3.193,3.009,5.013c0.25,1.819-0.455,3.686-2.121,5.601
					C433.328,123.125,431.526,124.153,429.736,124.116z M432.449,115.282c-0.129-0.8-0.615-1.567-1.46-2.299l-3.335-2.897
					l-4.527,5.22l3.335,2.895c0.845,0.733,1.687,1.092,2.523,1.073s1.659-0.488,2.458-1.411
					C432.242,116.942,432.577,116.081,432.449,115.282z"/>
				<pattern  id="SVGID_26_" xlink:href="#Negro_Auratika" patternTransform="matrix(1 0 0 1 123.2388 28.4136)">
				</pattern>
				<path fill="url(#SVGID_26_)" d="M453.932,129.945l3.651,4.176l-12.196,21.693l-3.501-4.003l2.611-4.341l-5.688-6.504
					l-4.675,1.98l-3.377-3.862L453.932,129.945z M442.73,139.313l3.952,4.521l5.001-8.309L442.73,139.313z"/>
				<pattern  id="SVGID_27_" xlink:href="#Negro_Auratika" patternTransform="matrix(1 0 0 1 123.2388 28.4136)">
				</pattern>
				<path fill="url(#SVGID_27_)" d="M479.575,165.678c0.15,0.928,0.08,1.84-0.209,2.734c-0.237,0.734-0.581,1.419-1.035,2.051
					c-0.455,0.632-1.072,1.196-1.851,1.688c-0.941,0.598-2.018,0.945-3.227,1.048c-1.213,0.102-2.353-0.276-3.422-1.132
					c0.213,1.15,0.101,2.127-0.335,2.937c-0.434,0.812-1.348,1.656-2.736,2.536l-1.331,0.846c-0.906,0.57-1.495,0.996-1.772,1.273
					c-0.443,0.434-0.659,0.928-0.646,1.48l-0.497,0.314l-2.898-4.569c0.359-0.405,0.656-0.719,0.893-0.943
					c0.488-0.46,1.019-0.878,1.598-1.257l1.824-1.193c1.251-0.818,1.955-1.569,2.112-2.258c0.155-0.686-0.131-1.605-0.864-2.758
					l-2.562-4.046l-7.77,4.927l-2.565-4.049l19.816-12.559l6.009,9.481C478.938,163.598,479.426,164.75,479.575,165.678z
					 M471.222,158.977l-5.326,3.373l2.823,4.457c0.562,0.885,1.093,1.482,1.586,1.788c0.875,0.546,1.865,0.465,2.977-0.239
					c1.203-0.76,1.767-1.651,1.703-2.67c-0.037-0.575-0.326-1.286-0.866-2.137L471.222,158.977z"/>
				<pattern  id="SVGID_28_" xlink:href="#Negro_Auratika" patternTransform="matrix(1 0 0 1 123.2388 28.4136)">
				</pattern>
				<path fill="url(#SVGID_28_)" d="M492.699,189.652l2.214,5.086l-18.199,16.972l-2.122-4.872l3.804-3.346l-3.449-7.922
					l-5.054,0.467l-2.049-4.702L492.699,189.652z M479.188,195.18l2.398,5.512l7.282-6.402L479.188,195.18z"/>
				<pattern  id="SVGID_29_" xlink:href="#Negro_Auratika" patternTransform="matrix(1 0 0 1 123.2388 28.4136)">
				</pattern>
				<path fill="url(#SVGID_29_)" d="M510.788,251.582l-4.086,0.756l-1.273-6.904l-18.991,3.503l-0.892-4.854l18.987-3.502
					l-1.279-6.934l4.085-0.755L510.788,251.582z"/>
				<pattern  id="SVGID_30_" xlink:href="#Negro_Auratika" patternTransform="matrix(1 0 0 1 123.2388 28.4136)">
				</pattern>
				<path fill="url(#SVGID_30_)" d="M491.672,284.681c-1.885-1.704-2.89-4.234-3.01-7.584c-0.122-3.354,0.699-5.946,2.461-7.784
					c2.152-2.455,5.334-3.757,9.544-3.908c4.293-0.154,7.561,0.918,9.798,3.216c1.887,1.706,2.891,4.237,3.013,7.586
					c0.119,3.351-0.7,5.945-2.462,7.782c-2.068,2.441-5.25,3.74-9.544,3.895C497.261,288.032,493.994,286.965,491.672,284.681z
					 M495.126,281.49c1.474,1.09,3.53,1.586,6.171,1.492c2.629-0.094,4.644-0.738,6.04-1.928c1.394-1.191,2.058-2.756,1.99-4.699
					c-0.071-1.941-0.841-3.464-2.316-4.566c-1.474-1.105-3.529-1.611-6.172-1.516c-2.637,0.094-4.653,0.742-6.043,1.951
					c-1.391,1.208-2.051,2.783-1.981,4.723C492.883,278.887,493.655,280.402,495.126,281.49z"/>
				<pattern  id="SVGID_31_" xlink:href="#Negro_Auratika" patternTransform="matrix(1 0 0 1 123.2388 28.4136)">
				</pattern>
				<path fill="url(#SVGID_31_)" d="M510.165,317.047c-0.735,1.568-1.882,2.773-3.437,3.612c-1.256,0.669-2.579,1.071-3.962,1.202
					c-1.384,0.133-2.687,0.122-3.909-0.023c-3.098-0.377-5.644-1.316-7.643-2.822c-2.692-2.039-3.825-4.817-3.396-8.338
					l1.216-10.042l23.293,2.824l-1.22,10.044C510.912,314.945,510.598,316.125,510.165,317.047z M507.708,307.694l-15.2-1.845
					l-0.545,4.496c-0.279,2.299,0.656,4.041,2.812,5.222c1.186,0.648,2.633,1.075,4.352,1.284c2.368,0.288,4.232,0.137,5.595-0.455
					c1.359-0.589,2.175-1.99,2.443-4.206L507.708,307.694z"/>
				<pattern  id="SVGID_32_" xlink:href="#Negro_Auratika" patternTransform="matrix(1 0 0 1 123.2388 28.4136)">
				</pattern>
				<path fill="url(#SVGID_32_)" d="M481.189,350.32c-1.265-2.209-1.433-4.924-0.507-8.145c0.925-3.224,2.51-5.434,4.752-6.633
					c2.811-1.669,6.238-1.917,10.288-0.755c4.13,1.188,6.904,3.221,8.317,6.101c1.264,2.207,1.435,4.923,0.509,8.145
					c-0.929,3.223-2.513,5.434-4.756,6.633c-2.724,1.679-6.151,1.925-10.284,0.738C485.461,355.239,482.688,353.213,481.189,350.32z
					 M485.461,348.361c1.063,1.489,2.863,2.602,5.404,3.331c2.529,0.727,4.641,0.741,6.338,0.04
					c1.698-0.697,2.814-1.979,3.351-3.846c0.535-1.867,0.277-3.555-0.782-5.063c-1.058-1.508-2.858-2.627-5.395-3.355
					c-2.539-0.729-4.656-0.735-6.354-0.018c-1.697,0.713-2.813,2.004-3.349,3.871C484.139,345.189,484.402,346.867,485.461,348.361z
					"/>
				<pattern  id="SVGID_33_" xlink:href="#Negro_Auratika" patternTransform="matrix(1 0 0 1 123.2388 28.4136)">
				</pattern>
				<path fill="url(#SVGID_33_)" d="M478.751,370.871c-1.037-0.314-1.891-0.379-2.556-0.201c-1.216,0.329-2.243,1.389-3.074,3.177
					c-0.497,1.073-0.784,1.993-0.866,2.769c-0.145,1.474,0.383,2.492,1.587,3.052c0.701,0.325,1.389,0.269,2.063-0.175
					c0.662-0.447,1.454-1.278,2.368-2.49l1.576-2.068c1.552-2.032,2.817-3.338,3.8-3.91c1.646-0.98,3.513-0.98,5.603-0.014
					c1.905,0.886,3.167,2.324,3.772,4.313c0.608,1.988,0.282,4.34-0.981,7.061c-1.054,2.271-2.547,3.928-4.484,4.979
					c-1.932,1.053-4.048,1.091-6.344,0.118l1.985-4.272c1.317,0.514,2.492,0.365,3.525-0.449c0.688-0.545,1.277-1.346,1.766-2.4
					c0.547-1.176,0.749-2.222,0.615-3.135c-0.136-0.916-0.619-1.565-1.448-1.95c-0.76-0.353-1.488-0.271-2.182,0.243
					c-0.46,0.329-1.192,1.137-2.197,2.419l-2.614,3.323c-1.145,1.461-2.229,2.447-3.253,2.967c-1.593,0.803-3.335,0.764-5.229-0.119
					c-1.946-0.902-3.208-2.404-3.795-4.504c-0.587-2.101-0.245-4.52,1.031-7.264c1.3-2.799,2.957-4.709,4.968-5.728
					c2.011-1.019,4.123-1.011,6.336,0.017L478.751,370.871z"/>
			</g>
		</g>
		<g>
			<pattern  id="SVGID_34_" xlink:href="#Negro_Auratika" patternTransform="matrix(0.7773 0 0 0.7773 -1459.1597 -834.9238)">
			</pattern>
			<path fill="url(#SVGID_34_)" d="M153.961,286.635c1.762-0.23,2.94-0.963,3.536-2.216c0.342-0.681,0.511-1.659,0.511-2.94
				c0-2.611-0.932-4.51-2.79-5.688c-1.861-1.179-4.526-1.769-7.99-1.769c-4.006,0-6.847,1.079-8.523,3.239
				c-0.934,1.193-1.547,2.97-1.833,5.326h-7.157c0.141-5.624,1.967-9.539,5.477-11.742c3.505-2.199,7.575-3.301,12.207-3.301
				c5.365,0,9.729,1.025,13.081,3.068c3.323,2.046,4.984,5.229,4.984,9.545v26.289c0,0.798,0.166,1.438,0.49,1.918
				c0.327,0.484,1.018,0.727,2.068,0.727c0.342,0,0.725-0.023,1.15-0.064c0.425-0.043,0.882-0.105,1.364-0.193v5.668
				c-1.194,0.34-2.104,0.557-2.727,0.64c-0.627,0.086-1.478,0.126-2.558,0.126c-2.64,0-4.559-0.934-5.754-2.813
				c-0.624-0.992-1.063-2.398-1.317-4.215c-1.563,2.045-3.809,3.821-6.733,5.323c-2.927,1.505-6.151,2.263-9.673,2.263
				c-4.236,0-7.69-1.287-10.375-3.858c-2.686-2.57-4.027-5.789-4.027-9.652c0-4.231,1.321-7.513,3.964-9.843
				c2.64-2.33,6.104-3.766,10.395-4.303L153.961,286.635z M137.811,307.384c1.619,1.28,3.538,1.921,5.752,1.921
				c2.698,0,5.311-0.626,7.84-1.875c4.262-2.073,6.392-5.469,6.392-10.184v-6.179c-0.936,0.596-2.146,1.093-3.623,1.493
				c-1.476,0.393-2.926,0.68-4.344,0.85l-4.648,0.599c-2.783,0.368-4.87,0.95-6.261,1.743c-2.357,1.337-3.537,3.469-3.537,6.395
				C135.382,304.359,136.192,306.107,137.811,307.384z"/>
			<pattern  id="SVGID_35_" xlink:href="#Negro_Auratika" patternTransform="matrix(0.7773 0 0 0.7773 -1459.1597 -834.9238)">
			</pattern>
			<path fill="url(#SVGID_35_)" d="M184.583,268.953v30.295c0,2.331,0.37,4.232,1.108,5.708c1.363,2.728,3.907,4.095,7.627,4.095
				c5.339,0,8.978-2.391,10.909-7.158c1.051-2.559,1.577-6.066,1.577-10.525v-22.414h7.67v45.635h-7.245l0.086-6.732
				c-0.996,1.732-2.231,3.197-3.708,4.39c-2.926,2.388-6.477,3.581-10.65,3.581c-6.507,0-10.94-2.176-13.298-6.521
				c-1.277-2.33-1.915-5.44-1.915-9.332v-31.02H184.583z"/>
			<pattern  id="SVGID_36_" xlink:href="#Negro_Auratika" patternTransform="matrix(0.7773 0 0 0.7773 -1459.1597 -834.9238)">
			</pattern>
			<path fill="url(#SVGID_36_)" d="M223.498,268.953h7.284v8.901c0.596-1.534,2.06-3.401,4.391-5.601
				c2.326-2.202,5.012-3.305,8.05-3.305c0.143,0,0.383,0.016,0.726,0.043c0.341,0.03,0.923,0.084,1.746,0.171v8.096
				c-0.453-0.085-0.873-0.146-1.256-0.17c-0.383-0.028-0.803-0.044-1.257-0.044c-3.865,0-6.832,1.246-8.904,3.73
				c-2.078,2.484-3.112,5.346-3.112,8.584v26.247h-7.667V268.953z"/>
			<pattern  id="SVGID_37_" xlink:href="#Negro_Auratika" patternTransform="matrix(0.7773 0 0 0.7773 -1459.1597 -834.9238)">
			</pattern>
			<path fill="url(#SVGID_37_)" d="M275.756,286.42c1.758-0.229,2.938-0.964,3.536-2.217c0.341-0.682,0.511-1.66,0.511-2.939
				c0-2.609-0.933-4.51-2.793-5.688c-1.86-1.178-4.524-1.77-7.987-1.77c-4.007,0-6.846,1.078-8.524,3.238
				c-0.936,1.195-1.547,2.97-1.832,5.33h-7.158c0.139-5.625,1.967-9.541,5.477-11.743c3.508-2.202,7.577-3.302,12.207-3.302
				c5.37,0,9.727,1.021,13.082,3.069c3.323,2.045,4.985,5.226,4.985,9.544v26.289c0,0.796,0.162,1.436,0.491,1.916
				c0.324,0.484,1.014,0.724,2.067,0.724c0.338,0,0.723-0.019,1.146-0.058c0.429-0.045,0.882-0.109,1.366-0.197v5.67
				c-1.195,0.34-2.102,0.555-2.729,0.641c-0.624,0.084-1.476,0.125-2.557,0.125c-2.64,0-4.558-0.935-5.752-2.813
				c-0.624-0.992-1.063-2.398-1.319-4.217c-1.563,2.045-3.807,3.82-6.735,5.326c-2.924,1.504-6.149,2.257-9.671,2.257
				c-4.231,0-7.689-1.285-10.375-3.855c-2.685-2.567-4.025-5.79-4.025-9.649c0-4.232,1.321-7.514,3.963-9.843
				c2.64-2.329,6.105-3.767,10.396-4.306L275.756,286.42z M259.606,307.17c1.617,1.279,3.537,1.919,5.752,1.919
				c2.698,0,5.311-0.624,7.838-1.873c4.263-2.074,6.392-5.47,6.392-10.185v-6.181c-0.938,0.597-2.145,1.095-3.621,1.491
				c-1.478,0.397-2.926,0.682-4.346,0.854l-4.646,0.597c-2.784,0.37-4.872,0.95-6.263,1.745c-2.357,1.337-3.538,3.465-3.538,6.393
				C257.175,304.143,257.983,305.893,259.606,307.17z"/>
			<pattern  id="SVGID_38_" xlink:href="#Negro_Auratika" patternTransform="matrix(0.7773 0 0 0.7773 -1459.1597 -834.9238)">
			</pattern>
			<path fill="url(#SVGID_38_)" d="M300.25,256.508h7.754v12.343h7.286v6.265h-7.286v30.18c0,1.59,0.539,2.658,1.619,3.195
				c0.596,0.313,1.589,0.469,2.985,0.469c0.364,0,0.765-0.004,1.192-0.02c0.425-0.016,0.925-0.049,1.49-0.105v6.049
				c-0.88,0.257-1.794,0.439-2.748,0.557c-0.95,0.111-1.978,0.167-3.088,0.167c-3.578,0-6.008-0.914-7.286-2.747
				c-1.279-1.832-1.918-4.211-1.918-7.138v-30.606h-6.179v-6.265h6.179V256.508z"/>
			<pattern  id="SVGID_39_" xlink:href="#Negro_Auratika" patternTransform="matrix(0.7773 0 0 0.7773 -1459.1597 -834.9238)">
			</pattern>
			<rect x="325.848" y="253.013" fill="url(#SVGID_39_)" width="7.794" height="8.692"/>
			<pattern  id="SVGID_40_" xlink:href="#Negro_Auratika" patternTransform="matrix(0.7773 0 0 0.7773 -1459.1597 -834.9238)">
			</pattern>
			<rect x="325.848" y="268.851" fill="url(#SVGID_40_)" width="7.794" height="46.756"/>
			<pattern  id="SVGID_41_" xlink:href="#Negro_Auratika" patternTransform="matrix(0.7773 0 0 0.7773 -1459.1597 -834.9238)">
			</pattern>
			<path fill="url(#SVGID_41_)" d="M344.634,253.013h7.369v36.347l20.737-20.438h9.8l-18.518,18.138l18.447,28.547h-9.8
				l-14.23-23.011l-6.436,5.885v17.126h-7.369V253.013z"/>
			<pattern  id="SVGID_42_" xlink:href="#Negro_Auratika" patternTransform="matrix(0.7773 0 0 0.7773 -1459.1597 -834.9238)">
			</pattern>
			<path fill="url(#SVGID_42_)" d="M410.435,286.42c1.762-0.229,2.937-0.964,3.536-2.217c0.34-0.682,0.511-1.66,0.511-2.939
				c0-2.609-0.931-4.51-2.79-5.688c-1.865-1.178-4.527-1.77-7.992-1.77c-4.007,0-6.844,1.078-8.521,3.238
				c-0.938,1.195-1.55,2.97-1.833,5.33h-7.159c0.143-5.625,1.966-9.541,5.475-11.743c3.51-2.202,7.577-3.302,12.21-3.302
				c5.365,0,9.727,1.021,13.082,3.069c3.321,2.045,4.983,5.226,4.983,9.544v26.289c0,0.796,0.162,1.436,0.491,1.916
				c0.325,0.484,1.017,0.724,2.067,0.724c0.342,0,0.725-0.019,1.148-0.058c0.427-0.045,0.88-0.109,1.365-0.197v5.67
				c-1.194,0.34-2.102,0.555-2.729,0.641c-0.624,0.084-1.478,0.125-2.554,0.125c-2.642,0-4.559-0.935-5.754-2.813
				c-0.624-0.992-1.063-2.398-1.321-4.217c-1.56,2.045-3.806,3.82-6.73,5.326c-2.928,1.504-6.151,2.257-9.675,2.257
				c-4.234,0-7.69-1.285-10.373-3.855c-2.687-2.567-4.027-5.79-4.027-9.649c0-4.232,1.321-7.514,3.962-9.843
				c2.64-2.329,6.106-3.767,10.396-4.306L410.435,286.42z M394.286,307.17c1.617,1.279,3.535,1.919,5.752,1.919
				c2.698,0,5.311-0.624,7.839-1.873c4.261-2.074,6.391-5.47,6.391-10.185v-6.181c-0.936,0.597-2.144,1.095-3.621,1.491
				c-1.478,0.397-2.927,0.682-4.346,0.854l-4.646,0.597c-2.783,0.37-4.871,0.95-6.26,1.745c-2.362,1.337-3.541,3.465-3.541,6.393
				C391.854,304.143,392.665,305.893,394.286,307.17z"/>
			<g>
				<pattern  id="SVGID_43_" xlink:href="#Negro_Auratika" patternTransform="matrix(0.7773 0 0 0.7773 -1459.1597 -834.9238)">
				</pattern>
				<path fill="url(#SVGID_43_)" d="M432.725,259.648v0.838h-2.374v6.204h-0.971v-6.204h-2.371v-0.838H432.725z"/>
				<pattern  id="SVGID_44_" xlink:href="#Negro_Auratika" patternTransform="matrix(0.7773 0 0 0.7773 -1459.1597 -834.9238)">
				</pattern>
				<path fill="url(#SVGID_44_)" d="M433.524,259.648h1.366l2.021,5.952l2.009-5.952h1.353v7.042h-0.906v-4.156
					c0-0.144,0.005-0.384,0.01-0.714c0.006-0.332,0.011-0.689,0.011-1.07l-2.011,5.94h-0.941l-2.024-5.94v0.217
					c0,0.172,0.005,0.434,0.01,0.789c0.007,0.354,0.012,0.61,0.012,0.778v4.156h-0.91V259.648z"/>
			</g>
		</g>
	</g>
</g>
</svg>
